<svg width="175" height="115" viewBox="0 0 175 115" fill="none" xmlns="http://www.w3.org/2000/svg">
<path d="M59.3716 6.72743H114.258L133.883 23.3779L78.0051 24.9243L59.3716 6.72743Z" fill="#D8D8D8"/>
<path d="M54.8728 106.918H100.292V27.8191H54.8728V106.918Z" fill="#D8D8D8"/>
<path d="M30.4172 106.918H75.8385V27.8191H30.4172V106.918Z" fill="#EFEFEF"/>
<path d="M38.373 98.8906H67.883V35.8451H38.373V98.8906Z" fill="#405360"/>
<path d="M39.6982 97.5537H66.555V37.1834H39.6982V97.5537Z" fill="#78D1E3"/>
<path d="M39.6982 48.8643V37.1834H51.2747L39.6982 48.8643Z" fill="#8CE3ED"/>
<path d="M39.6982 63.1738V53.5051L55.8726 37.1832H65.4549L39.6982 63.1738Z" fill="#8CE3ED"/>
<path d="M39.6982 86.3809V74.0937L66.5555 46.9943V59.2796C57.6037 68.3139 48.6501 77.3465 39.6982 86.3809Z" fill="#8CE3ED"/>
<path d="M44.3605 97.5537H39.6982V91.3698L66.5555 64.2686V75.1586C59.1572 82.6236 51.7589 90.0887 44.3605 97.5537Z" fill="#8CE3ED"/>
<path d="M58.8873 97.5537H50.343L66.5556 81.195V89.8145L58.8873 97.5537Z" fill="#8CE3ED"/>
<path d="M54.0262 98.5942H52.8489V36.31H54.0262V98.5942Z" fill="#405360"/>
<path d="M67.0725 51.3243H39.0745V52.5122H67.0725V51.3243Z" fill="#405360"/>
<path d="M67.0725 66.634H39.0745V67.8237H67.0725V66.634Z" fill="#405360"/>
<path d="M67.0725 81.9451H39.0745V83.1348H67.0725V81.9451Z" fill="#405360"/>
<path d="M79.3735 98.4448H160.252V68.1202H79.3735V98.4448Z" fill="#405360"/>
<path d="M87.3295 98.4447V68.1206H163.051V59.6486H70.9758V106.918H163.051V98.4447H87.3295Z" fill="#FAFAFA"/>
<path d="M163.051 68.1201V59.6481H131.155V68.1201H163.051Z" fill="#E8E9EA"/>
<path d="M31.3476 68.1201V59.6481H14.4958V68.1201H31.3476Z" fill="#EFEFEF"/>
<path d="M131.155 98.4447V106.918H163.051V98.4447H131.155Z" fill="#E8E9EA"/>
<path d="M80.699 97.1074H158.927V69.4587H80.699V97.1074Z" fill="#5BBBD4"/>
<path d="M136.472 69.4573H128.37V77.6323L136.472 69.4573Z" fill="#78D1E3"/>
<path d="M146.479 69.4582H143.414C138.4 74.5192 133.384 79.5785 128.37 84.6395V87.7324C134.407 81.6416 140.443 75.5508 146.479 69.4582Z" fill="#78D1E3"/>
<path d="M158.927 76.742V69.458H153.247L128.37 94.5593V97.1074H138.743L158.927 76.742Z" fill="#78D1E3"/>
<path d="M146.74 97.1074H158.927V84.8098L146.74 97.1074Z" fill="#78D1E3"/>
<path d="M79.3735 98.4448H128.652V68.1202H79.3735V98.4448Z" fill="#405360"/>
<path d="M80.699 97.1074H127.327V69.4587H80.699V97.1074Z" fill="#78D1E3"/>
<path d="M80.699 79.1055V69.4579H90.2586L80.699 79.1055Z" fill="#8CE3ED"/>
<path d="M80.699 90.1045V82.7045L93.8272 69.4579H101.161L80.699 90.1045Z" fill="#8CE3ED"/>
<path d="M92.617 97.1074H82.042C87.6883 91.4085 93.3363 85.7113 98.9843 80.0124L109.443 69.458H120.018C110.885 78.675 101.75 87.8921 92.617 97.1074Z" fill="#8CE3ED"/>
<path d="M109.411 97.1074H97.3625L124.763 69.458H127.327V79.03C121.355 85.0558 115.383 91.0816 109.411 97.1074Z" fill="#8CE3ED"/>
<path d="M127.327 97.1074H118.578C121.493 94.1639 124.41 91.2204 127.327 88.2787V97.1074Z" fill="#8CE3ED"/>
<path d="M104.355 97.4922H103.085V68.8146H104.355V97.4922Z" fill="#405360"/>
<path d="M145.668 97.4922H144.588V68.8146H145.668V97.4922Z" fill="#405360"/>
<path d="M80.2007 83.7939V82.5111H127.602V83.7939H80.2007Z" fill="#405360"/>
<path d="M127.603 83.7939V82.5111H159.657V83.7939H127.603Z" fill="#405360"/>
<path d="M133.883 30.2153H26.6328V23.3777H133.883V30.2153Z" fill="#EFEFEF"/>
<path d="M82.2456 23.3777V30.2153H133.882V23.3777H82.2456Z" fill="#D3D3D3"/>
<path d="M121.286 59.6484H106.259V5.24217H121.286V59.6484Z" fill="#5C7997"/>
<path d="M127.552 5.24217H121.176V59.6484H127.552V5.24217Z" fill="#4C6382"/>
<path d="M130.95 5.85547H102.17V0.000107765H130.95V5.85547Z" fill="#EFEFEF"/>
<path d="M120.725 0.000107765V5.85547H130.95V0.000107765H120.725Z" fill="#D3D3D3"/>
<path d="M84.5308 59.7188H95.2069V39.8132H84.5308V59.7188Z" fill="#405360"/>
<path d="M85.9224 59.7188H93.814V41.2184H85.9224V59.7188Z" fill="#78D1E3"/>
<path d="M85.9224 43.2866V41.2183H87.974L85.9224 43.2866Z" fill="#8CE3ED"/>
<path d="M87.9792 59.7188H85.9224V57.0688L93.8135 49.1064V53.8318C91.8699 55.7947 89.9245 57.7558 87.9792 59.7188Z" fill="#8CE3ED"/>
<path d="M85.9224 53.9897V46.8129L91.4676 41.2176H93.8135V46.0274L85.9224 53.9897Z" fill="#8CE3ED"/>
<path d="M163.003 60.0547H70.9849V58.1797H163.003V60.0547Z" fill="#96B826"/>
<path d="M130.788 58.1797V60.0547H163.002V58.1797H130.788Z" fill="#68821D"/>
<path d="M167.364 110.485H7.05225V106.025H167.364V110.485Z" fill="#CF8F35"/>
<path d="M101.144 6.72744H46.2555L26.6328 23.3779H82.2841L101.144 6.72744Z" fill="white"/>
<path d="M79.245 21.2747C78.8479 21.6121 77.8656 21.8862 77.0505 21.8862H33.7438C32.9287 21.8862 32.5908 21.6121 32.9879 21.2747L47.9657 8.55C48.3628 8.21084 49.3451 7.93846 50.1602 7.93846H93.4686C94.282 7.93846 94.6216 8.21084 94.2245 8.55L79.245 21.2747Z" fill="#596976"/>
<path d="M45.9331 11.5859L49.5069 8.54923H59.38L55.8062 11.5859H45.9331ZM56.9662 11.5859L60.5399 8.54923H70.4131L66.8393 11.5859H56.9662ZM67.9992 11.5859L71.5747 8.54923H81.4461L77.8724 11.5859H67.9992ZM79.034 11.5859L82.6078 8.54923H92.481L88.9054 11.5859H79.034ZM42.1311 14.8158L45.7049 11.7774H55.5781L52.0043 14.8158H42.1311ZM53.1642 14.8158L56.7397 11.7774H66.6112L63.0374 14.8158H53.1642ZM64.1991 14.8158L67.7728 11.7774H77.646L74.0705 14.8158H64.1991ZM75.2321 14.8158L78.8059 11.7774H88.679L85.1053 14.8158H75.2321ZM38.331 18.044L41.9048 15.0073H51.7779L48.2024 18.044H38.331ZM49.364 18.044L52.9378 15.0073H62.811L59.2372 18.044H49.364ZM60.3971 18.044L63.9709 15.0073H73.844L70.2703 18.044H60.3971ZM71.4302 18.044L75.0057 15.0073H84.8771L81.3034 18.044H71.4302ZM34.5291 21.2739L38.1028 18.2373H47.976L44.4022 21.2739H34.5291ZM45.5621 21.2739L49.1359 18.2373H59.0091L55.4353 21.2739H45.5621ZM56.5952 21.2739L60.1707 18.2373H70.0421L66.4683 21.2739H56.5952ZM67.63 21.2739L71.2038 18.2373H81.0769L77.5014 21.2739H67.63Z" fill="#78B2BD"/>
<path d="M92.0825 8.66035H82.7457L79.4332 11.4738H88.7699L92.0825 8.66035ZM81.0477 8.66035H71.7109L68.3984 11.4738H77.7351L81.0477 8.66035ZM70.0146 8.66035H60.6778L57.3653 11.4738H66.7021L70.0146 8.66035ZM58.9815 8.66035H49.6448L46.3323 11.4738H55.669L58.9815 8.66035ZM88.2806 11.8903H78.9438L75.6313 14.7037H84.968L88.2806 11.8903ZM77.2475 11.8903H67.9107L64.5982 14.7037H73.935L77.2475 11.8903ZM66.2144 11.8903H56.8777L53.5651 14.7037H62.9001L66.2144 11.8903ZM55.1796 11.8903H45.8428L42.5303 14.7037H51.8671L55.1796 11.8903ZM84.4786 15.1185H75.1419L71.8293 17.9337H81.1661L84.4786 15.1185ZM73.4455 15.1185H64.1088L60.7963 17.9337H70.133L73.4455 15.1185ZM62.4125 15.1185H53.0757L49.7632 17.9337H59.1L62.4125 15.1185ZM51.3794 15.1185H42.0427L38.7302 17.9337H48.0669L51.3794 15.1185ZM80.6784 18.3484H71.3417L68.0292 21.1636H77.3659L80.6784 18.3484ZM69.6437 18.3484H60.3086L56.9961 21.1636H66.3311L69.6437 18.3484ZM58.6106 18.3484H49.2738L45.9613 21.1636H55.298L58.6106 18.3484ZM44.2649 21.1636H34.9282L38.2408 18.3484H47.5775L44.2649 21.1636Z" fill="#54D1D1"/>
<path d="M67.63 21.2739L69.7652 19.4586L67.63 21.2739ZM66.4683 21.2739H63.2498H66.4683L68.0393 19.9401L66.4683 21.2739ZM34.5291 21.2739L34.8652 20.9892L34.5291 21.2739ZM57.21 19.7661L59.0091 18.2373L57.21 19.7661ZM46.6802 19.3374L47.976 18.2373L46.6802 19.3374ZM81.0595 18.2513L81.0769 18.2373L81.0595 18.2513ZM60.3971 18.044L61.5048 17.1038L60.3971 18.044ZM49.364 18.044L51.2798 16.4149L49.364 18.044ZM42.1311 14.8158L43.8031 13.3941L42.1311 14.8158ZM77.0573 13.2641L77.9194 12.5313L77.0573 13.2641ZM65.0071 13.1411L65.9685 12.3239L65.0071 13.1411ZM55.1392 12.1517L55.5781 11.7774L55.1392 12.1517ZM56.9662 11.5859L60.2195 8.82162L56.9662 11.5859ZM79.5112 10.1923L81.4461 8.54923L79.5112 10.1923ZM81.2389 9.71259L82.6078 8.54923L81.2389 9.71259Z" fill="#7CAFB7"/>
<path d="M70.2111 21.2739H67.63L69.7652 19.4586L70.1658 19.3479L68.0288 21.1632H70.6099C70.4775 21.2001 70.3434 21.237 70.2111 21.2739ZM66.4683 21.2739H63.2498L63.6487 21.1632H66.3308L67.6405 20.0508L68.0393 19.9401L66.4683 21.2739ZM51.7988 21.2739H46.5339L46.9328 21.1632H52.1976L51.7988 21.2739ZM39.7312 21.2739H34.5291L34.8652 20.9892L35.264 20.8785L34.9279 21.1632H40.13L39.7312 21.2739ZM56.8111 19.8768L58.6102 18.348H57.0358L57.4364 18.2373H59.0091L57.21 19.7661L56.8111 19.8768ZM46.2814 19.4498L47.5771 18.348H44.343L44.7418 18.2373H47.976L46.6802 19.3374L46.2814 19.4498ZM58.9359 19.2864L60.1707 18.2373H62.6995L62.3007 18.348H60.3083L59.3347 19.1739L58.9359 19.2864ZM48.4062 18.8576L49.1359 18.2373H50.6319L50.2331 18.348H49.2735L48.8067 18.7451L48.4062 18.8576ZM80.6607 18.3621L80.6781 18.348H73.7517L74.1506 18.2373H81.0769L81.0595 18.2513C80.9254 18.2882 80.7931 18.3252 80.6607 18.3621ZM81.3034 18.044H74.8437L75.2426 17.9333H81.1658L84.0551 15.4783L84.4539 15.3676L81.3034 18.044ZM63.3927 18.044H60.3971L61.5048 17.1038L61.9036 16.9931L60.796 17.9333H63.7915L63.3927 18.044ZM59.2372 18.044H58.1278L58.5266 17.9333H59.0996L59.3783 17.696L59.7771 17.5853L59.2372 18.044ZM51.3251 18.044H49.364L51.2798 16.4149L51.6786 16.3043L49.7629 17.9333H51.7239L51.3251 18.044ZM48.2024 18.044H45.435L45.8338 17.9333H48.0665L49.1551 17.0089L49.5539 16.8964L48.2024 18.044ZM40.4505 16.2427L41.9048 15.0073H44.8846L44.4858 15.1181H42.0423L40.8493 16.132L40.4505 16.2427ZM73.2258 15.3043L73.4452 15.1181H68.6297L69.0285 15.0073H73.844L73.6246 15.1936L73.2258 15.3043ZM61.827 15.1181H55.9369L56.3357 15.0073H62.2258L61.827 15.1181ZM74.0705 14.8158H69.7217C69.8558 14.7772 69.9882 14.7402 70.1205 14.7033H73.9346L75.7946 13.1235C75.927 13.0866 76.0594 13.0497 76.1935 13.0128L74.0705 14.8158ZM62.919 14.8158H57.0288L57.4277 14.7033H62.8998L65.5697 12.4347L65.9685 12.3239L65.0071 13.1411L63.0966 14.7649L62.919 14.8158ZM45.5778 14.8158H42.1311L43.8031 13.3941C43.9372 13.3572 44.0696 13.3203 44.2019 13.2834L42.53 14.7033H45.9766L45.5778 14.8158ZM75.3523 14.7121L77.0573 13.2641L77.9194 12.5313L78.3182 12.4206L75.7511 14.6014L75.3523 14.7121ZM64.8225 14.2851L67.6962 11.8442L67.9296 11.7774H73.8197L73.4208 11.8899H67.9104L65.2214 14.1726L64.8225 14.2851ZM54.7404 12.2624L55.1793 11.8899H49.2073C49.3397 11.853 49.472 11.8161 49.6061 11.7774H55.5781L55.1392 12.1517L54.7404 12.2624ZM85.4884 11.8899H80.2253L80.6224 11.7774H85.8872L85.4884 11.8899ZM86.5804 11.5859H81.3155C81.4496 11.549 81.582 11.5103 81.7161 11.4734H86.9792L86.5804 11.5859ZM74.5128 11.5859H68.6227L69.0233 11.4734H74.9117L74.5128 11.5859ZM57.1717 11.5859H56.9662L60.2195 8.82162L60.6183 8.71094L57.365 11.4734H57.5705C57.4381 11.5103 57.3058 11.549 57.1717 11.5859ZM55.8062 11.5859H50.2993L50.6981 11.4734H55.6687L58.093 9.41386L58.4918 9.30313L55.8062 11.5859ZM89.6421 10.7318L92.0821 8.65997H91.8174C91.9515 8.62306 92.0839 8.58614 92.2162 8.54923H92.481L90.041 10.6211L89.6421 10.7318ZM79.1124 10.303L81.0473 8.65997H79.1246L79.5234 8.54923H81.4461L79.5112 10.1923L79.1124 10.303ZM81.2389 9.71259L82.6078 8.54923H85.4135L85.0147 8.65997H82.7454L81.6377 9.6001L81.2389 9.71259ZM67.6736 8.65997H60.8012L61.2 8.54923H68.0724C67.94 8.58614 67.8077 8.62306 67.6736 8.65997Z" fill="#8CD4DA"/>
<path d="M70.6102 21.1636H68.0292L70.1661 19.3483L73.7521 18.3484H80.6784L80.661 18.3624C77.3102 19.2973 73.9611 20.2287 70.6102 21.1636ZM66.3311 21.1636H63.649L67.6408 20.0512L66.3311 21.1636ZM52.198 21.1636H46.9331L57.0361 18.3484H58.6106L56.8115 19.8772L52.198 21.1636ZM40.1304 21.1636H34.9282L35.2643 20.8789L44.3434 18.3484H47.5775L46.2817 19.4502L40.1304 21.1636ZM59.3351 19.1743L60.3086 18.3484H62.301L59.3351 19.1743ZM48.8071 18.7455L49.2738 18.3484H50.2334L48.8071 18.7455ZM81.1661 17.9337H75.2429L84.0554 15.4787L81.1661 17.9337ZM63.7918 17.9337H60.7963L61.9039 16.9935L68.63 15.1185H73.4455L73.2261 15.3047L63.7918 17.9337ZM59.1 17.9337H58.527L59.3786 17.6964L59.1 17.9337ZM51.7243 17.9337H49.7632L51.679 16.3046L55.9372 15.1185H61.8273L51.7243 17.9337ZM48.0669 17.9337H45.8341L49.1554 17.0093L48.0669 17.9337ZM40.8497 16.1324L42.0427 15.1185H44.4861L40.8497 16.1324ZM73.935 14.7037H70.1209C72.0122 14.1765 73.9036 13.6511 75.795 13.1239L73.935 14.7037ZM62.9001 14.7037H57.428L65.57 12.435L62.9001 14.7037ZM45.977 14.7037H42.5303L44.2023 13.2838C45.8707 12.8199 47.5392 12.3542 49.2076 11.8903H55.1796L54.7407 12.2628L45.977 14.7037ZM75.7514 14.6018L78.3186 12.421L80.2257 11.8903H85.4888L75.7514 14.6018ZM65.2217 14.173L67.9107 11.8903H73.4212L65.2217 14.173ZM86.9796 11.4738H81.7164C85.083 10.5354 88.4512 9.59699 91.8177 8.66035H92.0825L89.6425 10.7322L86.9796 11.4738ZM74.912 11.4738H69.0236L79.1249 8.66035H81.0477L79.1127 10.3034L74.912 11.4738ZM57.5708 11.4738H57.3653L60.6186 8.71132L60.8015 8.66035H67.6739C64.3074 9.59699 60.9391 10.5354 57.5708 11.4738ZM55.669 11.4738H50.6985L58.0933 9.41424L55.669 11.4738ZM81.6381 9.60048L82.7457 8.66035H85.0151L81.6381 9.60048Z" fill="#7AE3E4"/>
<path d="M92.0825 8.66035H82.7457L79.4332 11.4738L82.9983 8.90459L92.0825 8.66035ZM81.0477 8.66035H71.7109L68.3984 11.4738L71.8676 8.90459L81.0477 8.66035ZM70.0146 8.66035H60.6778L57.3653 11.4738L60.8973 8.90459L70.0146 8.66035ZM58.9815 8.66035H49.6448L46.3323 11.4738L49.9095 8.89228L58.9815 8.66035ZM88.2806 11.8903H78.9438L75.6313 14.7037L79.1458 12.1029L88.2806 11.8903ZM77.0141 11.9254L67.9107 11.8903L64.5982 14.7037L68.0658 12.1908L77.0141 11.9254ZM66.2127 11.8903H56.8777L53.5651 14.7037L57.125 12.1029L66.2127 11.8903ZM55.1796 11.8903H45.8428L42.5303 14.7037L46.0449 12.1222L55.1796 11.8903ZM84.4786 15.1185H75.1419L71.8293 17.9337L75.3439 15.3891L84.4786 15.1185ZM73.4455 15.1185H64.1088L60.7963 17.9337L64.3579 15.433L73.4455 15.1185ZM62.4125 15.1185H53.0757L49.7632 17.9337L53.323 15.3891L62.4125 15.1185ZM51.3794 15.1185H42.0427L38.7302 17.9337L42.2726 15.3891L51.3794 15.1185ZM80.6784 18.3484H71.3417L68.0292 21.1636L71.5559 18.6313L80.6784 18.3484ZM69.6437 18.3484H60.3086L56.9961 21.1636L60.5054 18.6313L69.6437 18.3484ZM58.6106 18.3484H49.2738L45.9613 21.1636L49.535 18.6313L58.6106 18.3484ZM38.4846 18.6313L34.9282 21.1636L38.2408 18.3484H47.5775L38.4846 18.6313Z" fill="white"/>
<path d="M151.816 107.15H152.201C151.997 107.424 151.87 107.762 151.87 108.131C151.87 108.965 152.495 109.647 153.298 109.744L153.274 109.983C153.274 110.213 153.335 110.427 153.404 110.635H168.823L168.897 110.255C168.897 109.863 168.69 109.535 168.394 109.329H168.951C169.458 109.329 169.869 108.914 169.869 108.403C169.869 108.203 169.793 108.027 169.686 107.876C170.609 107.547 171.273 106.669 171.273 105.625C171.273 104.584 170.613 103.707 169.693 103.377C169.801 103.073 169.869 102.751 169.869 102.411C169.869 101.133 169.04 100.061 167.9 99.6815L167.926 99.4161C167.926 98.3933 167.105 97.5639 166.092 97.5639H165.86C166.003 97.3249 166.092 97.0473 166.092 96.7468C166.092 95.8734 165.39 95.1669 164.526 95.1669H157.645C156.781 95.1669 156.081 95.8734 156.081 96.7468C156.081 97.0473 156.168 97.3249 156.313 97.5639H154.677C153.664 97.5639 152.842 98.3933 152.842 99.4161L152.882 99.7992C151.905 100.258 151.222 101.252 151.222 102.411C151.222 103.196 151.535 103.906 152.039 104.426H151.816C151.07 104.426 150.466 105.036 150.466 105.788C150.466 106.54 151.07 107.15 151.816 107.15Z" fill="#5F8012"/>
<path d="M150.686 107.15H151.071C150.865 107.424 150.74 107.762 150.74 108.131C150.74 108.965 151.363 109.647 152.166 109.744L152.143 109.983C152.143 110.213 152.204 110.427 152.274 110.635H164.159L164.234 110.255C164.234 109.863 164.026 109.535 163.73 109.329H164.288C164.794 109.329 165.205 108.914 165.205 108.403C165.205 108.203 165.129 108.027 165.023 107.876C165.944 107.547 166.609 106.669 166.609 105.625C166.609 104.584 165.947 103.707 165.03 103.377C165.138 103.073 165.205 102.751 165.205 102.411C165.205 101.133 164.376 100.061 163.236 99.6815L163.262 99.4161C163.262 98.3933 162.442 97.5639 161.428 97.5639H161.196C161.339 97.3249 161.428 97.0473 161.428 96.7468C161.428 95.8734 160.726 95.1669 159.862 95.1669H156.515C155.651 95.1669 154.949 95.8734 154.949 96.7468C154.949 97.0473 155.038 97.3249 155.181 97.5639H153.545C152.532 97.5639 151.712 98.3933 151.712 99.4161L151.752 99.7992C150.773 100.258 150.092 101.252 150.092 102.411C150.092 103.196 150.404 103.906 150.909 104.426H150.686C149.94 104.426 149.336 105.036 149.336 105.788C149.336 106.54 149.94 107.15 150.686 107.15Z" fill="#8BB43D"/>
<path d="M150.686 107.15H151.071C150.865 107.424 150.74 107.762 150.74 108.131C150.74 108.965 151.363 109.647 152.166 109.744L152.142 109.983C152.142 110.213 152.204 110.427 152.274 110.635H159.07C158.882 110.31 158.617 110.043 158.251 109.93C158.615 109.816 158.873 109.552 158.955 109.171H161.045C161.856 109.171 162.516 108.507 162.516 107.686C162.516 106.867 161.856 106.201 161.045 106.201H158.436L158.504 105.865C158.504 105.045 157.845 104.38 157.032 104.38H150.877L150.909 104.426H150.686C149.94 104.426 149.336 105.036 149.336 105.788C149.336 106.54 149.94 107.15 150.686 107.15Z" fill="#709114"/>
<path d="M163.235 99.6821L163.262 99.4167C163.262 98.394 162.441 97.5645 161.428 97.5645H161.194C161.339 97.3255 161.428 97.0479 161.428 96.7474C161.428 95.874 160.726 95.1676 159.862 95.1676H158.277L158.192 95.5506C158.192 96.1218 158.575 96.5839 159.089 96.7403C158.779 96.8388 158.559 97.0637 158.49 97.387H156.713C156.022 97.387 155.463 97.9529 155.463 98.6488C155.463 99.3464 156.022 99.9105 156.713 99.9105H158.932L158.874 100.199C158.874 100.895 159.433 101.46 160.125 101.46H165.038C164.744 100.622 164.077 99.9632 163.235 99.6821Z" fill="#B9DD59"/>
<path d="M96.4293 107.379H96.8176C96.6104 107.654 96.4833 107.994 96.4833 108.366C96.4833 109.208 97.112 109.895 97.9218 109.993L97.8975 110.232C97.8975 110.466 97.9602 110.681 98.0298 110.89H113.567L113.643 110.507C113.643 110.111 113.434 109.781 113.135 109.573H113.697C114.208 109.573 114.622 109.155 114.622 108.64C114.622 108.438 114.545 108.262 114.437 108.11C115.367 107.777 116.036 106.892 116.036 105.841C116.036 104.792 115.371 103.91 114.444 103.576C114.552 103.27 114.622 102.945 114.622 102.602C114.622 101.314 113.786 100.235 112.637 99.852L112.664 99.5849C112.664 98.5533 111.836 97.7186 110.815 97.7186H110.58C110.726 97.4779 110.815 97.1967 110.815 96.8944C110.815 96.0158 110.108 95.3023 109.237 95.3023H102.304C101.433 95.3023 100.726 96.0158 100.726 96.8944C100.726 97.1967 100.815 97.4779 100.959 97.7186H99.3116C98.291 97.7186 97.4621 98.5533 97.4621 99.5849L97.5039 99.9715C96.5181 100.434 95.8302 101.434 95.8302 102.602C95.8302 103.393 96.1454 104.108 96.6539 104.634H96.4293C95.6786 104.634 95.0691 105.247 95.0691 106.006C95.0691 106.763 95.6786 107.379 96.4293 107.379Z" fill="#5F8012"/>
<path d="M95.2884 107.379H95.6768C95.4713 107.654 95.3441 107.994 95.3441 108.366C95.3441 109.208 95.9728 109.895 96.7809 109.993L96.7583 110.232C96.7583 110.466 96.8193 110.681 96.8889 110.89H108.866L108.943 110.507C108.943 110.111 108.734 109.781 108.434 109.573H108.997C109.507 109.573 109.921 109.155 109.921 108.64C109.921 108.438 109.845 108.262 109.737 108.11C110.667 107.777 111.336 106.892 111.336 105.841C111.336 104.792 110.67 103.91 109.744 103.576C109.852 103.27 109.921 102.945 109.921 102.602C109.921 101.314 109.087 100.235 107.936 99.852L107.964 99.5849C107.964 98.5533 107.135 97.7186 106.114 97.7186H105.881C106.025 97.4779 106.114 97.1967 106.114 96.8944C106.114 96.0158 105.407 95.3023 104.536 95.3023H101.165C100.292 95.3023 99.5867 96.0158 99.5867 96.8944C99.5867 97.1967 99.6755 97.4779 99.82 97.7186H98.1725C97.1501 97.7186 96.3229 98.5533 96.3229 99.5849L96.3629 99.9715C95.3789 100.434 94.691 101.434 94.691 102.602C94.691 103.393 95.0062 104.108 95.513 104.634H95.2884C94.5378 104.634 93.9299 105.247 93.9299 106.006C93.9299 106.763 94.5378 107.379 95.2884 107.379Z" fill="#8BB43D"/>
<path d="M95.2901 107.379H95.6768C95.4713 107.654 95.3441 107.994 95.3441 108.366C95.3441 109.208 95.9728 109.895 96.7809 109.993L96.7583 110.232C96.7583 110.466 96.8193 110.681 96.8889 110.89H103.739C103.549 110.563 103.282 110.292 102.913 110.18C103.281 110.065 103.54 109.798 103.624 109.415H105.728C106.548 109.415 107.211 108.746 107.211 107.918C107.211 107.092 106.548 106.423 105.728 106.423H103.099L103.167 106.083C103.167 105.257 102.504 104.586 101.685 104.586H95.4834L95.513 104.634H95.2901C94.5378 104.634 93.9299 105.247 93.9299 106.006C93.9299 106.763 94.5378 107.379 95.2901 107.379Z" fill="#709114"/>
<path d="M107.936 99.8521L107.964 99.5832C107.964 98.5534 107.135 97.7187 106.114 97.7187H105.881C106.025 97.478 106.114 97.1968 106.114 96.8945C106.114 96.0159 105.407 95.3024 104.536 95.3024H102.939L102.854 95.689C102.854 96.2637 103.239 96.7311 103.758 96.8875C103.446 96.9859 103.225 97.2126 103.153 97.5395H101.365C100.668 97.5395 100.104 98.1089 100.104 98.8118C100.104 99.5129 100.668 100.082 101.365 100.082H103.599L103.542 100.372C103.542 101.073 104.106 101.645 104.801 101.645H109.752C109.456 100.799 108.784 100.135 107.936 99.8521Z" fill="#B9DD59"/>
<path d="M11.0469 108.099H11.3116C11.1705 108.287 11.0835 108.517 11.0835 108.772C11.0835 109.347 11.5119 109.814 12.064 109.879L12.0465 110.043C12.0465 110.203 12.0883 110.348 12.1371 110.491H22.7191L22.7714 110.231C22.7714 109.962 22.6286 109.735 22.4248 109.594H22.8079C23.1562 109.594 23.4384 109.31 23.4384 108.958L23.313 108.596C23.9452 108.371 24.4015 107.769 24.4015 107.052C24.4015 106.338 23.947 105.735 23.3165 105.509C23.3914 105.301 23.4384 105.08 23.4384 104.846C23.4384 103.969 22.8689 103.233 22.0852 102.973L22.1043 102.79C22.1043 102.089 21.54 101.52 20.8451 101.52H20.6849C20.7842 101.356 20.8451 101.165 20.8451 100.959C20.8451 100.36 20.3627 99.8748 19.7706 99.8748H15.0473C14.4552 99.8748 13.9728 100.36 13.9728 100.959C13.9728 101.165 14.0337 101.356 14.133 101.52H13.0097C12.3148 101.52 11.7505 102.089 11.7505 102.79L11.7784 103.054C11.1079 103.368 10.6394 104.05 10.6394 104.846C10.6394 105.386 10.8536 105.873 11.2001 106.229H11.0469C10.5348 106.229 10.1204 106.648 10.1204 107.164C10.1204 107.681 10.5348 108.099 11.0469 108.099Z" fill="#5F8012"/>
<path d="M10.2703 108.099H10.535C10.394 108.287 10.3069 108.517 10.3069 108.772C10.3069 109.347 10.7353 109.814 11.2874 109.879L11.27 110.043C11.27 110.203 11.3135 110.348 11.3605 110.491H19.5182L19.5705 110.231C19.5705 109.962 19.4277 109.735 19.2239 109.594H19.6071C19.9554 109.594 20.2375 109.31 20.2375 108.958L20.1104 108.596C20.7443 108.371 21.2006 107.769 21.2006 107.052C21.2006 106.338 20.7461 105.735 20.1156 105.509C20.1887 105.301 20.2375 105.08 20.2375 104.846C20.2375 103.969 19.668 103.233 18.8843 102.973L18.9034 102.79C18.9034 102.089 18.3392 101.52 17.6425 101.52H17.4841C17.5833 101.356 17.6425 101.165 17.6425 100.959C17.6425 100.36 17.1619 99.8748 16.5697 99.8748H14.2725C13.6786 99.8748 13.1979 100.36 13.1979 100.959C13.1979 101.165 13.2571 101.356 13.3564 101.52H12.2348C11.5382 101.52 10.9739 102.089 10.9739 102.79L11.0018 103.054C10.3312 103.368 9.86279 104.05 9.86279 104.846C9.86279 105.386 10.077 105.873 10.4236 106.229H10.2703C9.75826 106.229 9.34375 106.648 9.34375 107.164C9.34375 107.681 9.75826 108.099 10.2703 108.099Z" fill="#8BB43D"/>
<path d="M10.2703 108.099H10.535C10.394 108.287 10.3069 108.517 10.3069 108.772C10.3069 109.347 10.7353 109.814 11.2874 109.879L11.27 110.043C11.27 110.203 11.3118 110.348 11.3605 110.491H16.0246C15.8974 110.269 15.7146 110.083 15.4638 110.007C15.7128 109.93 15.8905 109.747 15.9462 109.486H17.3813C17.9386 109.486 18.3897 109.03 18.3897 108.468C18.3897 107.904 17.9386 107.449 17.3813 107.449H15.5909L15.6362 107.217C15.6362 106.654 15.1851 106.198 14.6278 106.198H10.4027L10.4236 106.229H10.2703C9.75826 106.229 9.34375 106.648 9.34375 107.164C9.34375 107.681 9.75826 108.099 10.2703 108.099Z" fill="#709114"/>
<path d="M18.8846 102.973L18.9037 102.791C18.9037 102.089 18.3395 101.52 17.6428 101.52H17.4844C17.5836 101.357 17.6428 101.165 17.6428 100.959C17.6428 100.36 17.1622 99.8752 16.57 99.8752H15.4815L15.4223 100.137C15.4223 100.529 15.6853 100.847 16.0388 100.954C15.8263 101.021 15.6748 101.176 15.6278 101.397H14.4086C13.9349 101.397 13.55 101.785 13.55 102.263C13.55 102.743 13.9349 103.13 14.4086 103.13H15.9308L15.8908 103.328C15.8908 103.806 16.2756 104.193 16.7494 104.193H20.1229C19.9191 103.618 19.4628 103.165 18.8846 102.973Z" fill="#B9DD59"/>
<path d="M80.1683 108.363H80.4469C80.2989 108.561 80.2066 108.805 80.2066 109.073C80.2066 109.681 80.6594 110.174 81.2411 110.245L81.2254 110.417C81.2254 110.584 81.2689 110.739 81.3194 110.89H92.5006L92.5563 110.614C92.5563 110.331 92.4065 110.092 92.1906 109.942H92.5946C92.9621 109.942 93.2599 109.642 93.2599 109.271L93.1275 108.888C93.7963 108.649 94.2787 108.013 94.2787 107.256C94.2787 106.502 93.7998 105.866 93.1328 105.627C93.2111 105.407 93.2599 105.173 93.2599 104.927C93.2599 103.999 92.659 103.223 91.8318 102.947L91.851 102.753C91.851 102.012 91.2553 101.411 90.5203 101.411H90.3514C90.4559 101.237 90.5203 101.036 90.5203 100.819C90.5203 100.186 90.0118 99.6727 89.3848 99.6727H84.3951C83.7682 99.6727 83.2596 100.186 83.2596 100.819C83.2596 101.036 83.324 101.237 83.4285 101.411H82.2425C81.5075 101.411 80.9119 102.012 80.9119 102.753L80.9415 103.033C80.2309 103.365 79.7363 104.085 79.7363 104.927C79.7363 105.495 79.9645 106.01 80.3285 106.387H80.1683C79.6266 106.387 79.1895 106.83 79.1895 107.375C79.1895 107.92 79.6266 108.363 80.1683 108.363Z" fill="#5F8012"/>
<path d="M79.3479 108.363H79.6266C79.4785 108.561 79.3863 108.805 79.3863 109.073C79.3863 109.681 79.8391 110.174 80.4208 110.245L80.4051 110.417C80.4051 110.584 80.4486 110.739 80.4991 110.89H89.1183L89.1741 110.614C89.1741 110.331 89.0225 110.092 88.8083 109.942H89.2124C89.5799 109.942 89.8777 109.642 89.8777 109.271L89.7453 108.888C90.4141 108.649 90.8965 108.013 90.8965 107.256C90.8965 106.502 90.4158 105.866 89.7505 105.627C89.8272 105.407 89.8777 105.173 89.8777 104.927C89.8777 103.999 89.2768 103.223 88.4496 102.947L88.4687 102.753C88.4687 102.012 87.8731 101.411 87.1381 101.411H86.9692C87.0737 101.237 87.1381 101.036 87.1381 100.819C87.1381 100.186 86.6296 99.6727 86.0026 99.6727H83.5748C82.9478 99.6727 82.4393 100.186 82.4393 100.819C82.4393 101.036 82.5037 101.237 82.6082 101.411H81.4222C80.6872 101.411 80.0916 102.012 80.0916 102.753L80.1212 103.033C79.4106 103.365 78.916 104.085 78.916 104.927C78.916 105.495 79.1442 106.01 79.5082 106.387H79.3479C78.8063 106.387 78.3691 106.83 78.3691 107.375C78.3691 107.92 78.8063 108.363 79.3479 108.363Z" fill="#8BB43D"/>
<path d="M79.3479 108.363H79.6266C79.4785 108.561 79.3863 108.805 79.3863 109.073C79.3863 109.681 79.8391 110.174 80.4208 110.245L80.4051 110.417C80.4051 110.584 80.4486 110.739 80.4991 110.89H85.4279C85.292 110.654 85.1005 110.459 84.834 110.378C85.0987 110.297 85.2851 110.104 85.3443 109.828H86.8595C87.4499 109.828 87.9271 109.347 87.9271 108.753C87.9271 108.157 87.4499 107.676 86.8595 107.676H84.9681L85.0168 107.431C85.0168 106.836 84.5397 106.354 83.951 106.354H79.4872L79.5082 106.387H79.3479C78.8063 106.387 78.3691 106.83 78.3691 107.375C78.3691 107.92 78.8063 108.363 79.3479 108.363Z" fill="#709114"/>
<path d="M88.4496 102.947L88.4687 102.754C88.4687 102.012 87.8731 101.411 87.1382 101.411H86.9692C87.0737 101.237 87.1382 101.037 87.1382 100.819C87.1382 100.186 86.6296 99.6731 86.0026 99.6731H84.8532L84.7922 99.9508C84.7922 100.365 85.0691 100.701 85.4419 100.814C85.2172 100.884 85.0587 101.047 85.0082 101.281H83.7194C83.2178 101.281 82.812 101.692 82.812 102.198C82.812 102.703 83.2178 103.112 83.7194 103.112H85.3269L85.2868 103.321C85.2868 103.826 85.6926 104.237 86.1942 104.237H89.7558C89.5433 103.629 89.0592 103.149 88.4496 102.947Z" fill="#B9DD59"/>
<path d="M24.4699 107.469H24.8182C24.6336 107.716 24.5186 108.02 24.5186 108.354C24.5186 109.11 25.0829 109.725 25.8074 109.813L25.7865 110.027C25.7865 110.236 25.8422 110.43 25.9049 110.618H39.8308L39.8988 110.273C39.8988 109.918 39.7124 109.623 39.4442 109.437H39.9475C40.4056 109.437 40.7765 109.062 40.7765 108.6C40.7765 108.419 40.7068 108.261 40.611 108.124C41.4435 107.827 42.0444 107.033 42.0444 106.091C42.0444 105.151 41.447 104.36 40.618 104.059C40.7138 103.787 40.7765 103.495 40.7765 103.19C40.7765 102.035 40.0276 101.067 38.9966 100.722L39.021 100.483C39.021 99.559 38.279 98.8103 37.363 98.8103H37.154C37.2846 98.5942 37.363 98.3446 37.363 98.0722C37.363 97.285 36.7307 96.6453 35.9505 96.6453H29.7365C28.9545 96.6453 28.3223 97.285 28.3223 98.0722C28.3223 98.3446 28.4007 98.5942 28.5313 98.8103H27.0544C26.1383 98.8103 25.3964 99.559 25.3964 100.483L25.433 100.829C24.55 101.244 23.9334 102.142 23.9334 103.19C23.9334 103.898 24.2156 104.539 24.6719 105.008H24.4699C23.7976 105.008 23.2507 105.558 23.2507 106.238C23.2507 106.919 23.7976 107.469 24.4699 107.469Z" fill="#5F8012"/>
<path d="M23.4489 107.469H23.7954C23.6108 107.716 23.4976 108.02 23.4976 108.354C23.4976 109.11 24.0619 109.725 24.7864 109.813L24.7637 110.027C24.7637 110.236 24.8195 110.43 24.8822 110.618H35.6174L35.6853 110.273C35.6853 109.918 35.499 109.623 35.2308 109.437H35.7341C36.1921 109.437 36.5631 109.062 36.5631 108.6C36.5631 108.419 36.4935 108.261 36.3977 108.124C37.2302 107.827 37.831 107.033 37.831 106.091C37.831 105.151 37.2336 104.36 36.4046 104.059C36.5004 103.787 36.5631 103.495 36.5631 103.19C36.5631 102.035 35.8142 101.067 34.7849 100.722L34.8076 100.483C34.8076 99.559 34.0657 98.8103 33.1513 98.8103H32.9406C33.0712 98.5942 33.1513 98.3446 33.1513 98.0722C33.1513 97.285 32.5174 96.6453 31.7371 96.6453H28.7137C27.9335 96.6453 27.2995 97.285 27.2995 98.0722C27.2995 98.3446 27.3796 98.5942 27.5085 98.8103H26.0316C25.1173 98.8103 24.3754 99.559 24.3754 100.483L24.4119 100.829C23.5272 101.244 22.9124 102.142 22.9124 103.19C22.9124 103.898 23.1946 104.539 23.6491 105.008H23.4489C22.7749 105.008 22.2297 105.558 22.2297 106.238C22.2297 106.919 22.7749 107.469 23.4489 107.469Z" fill="#8BB43D"/>
<path d="M23.4489 107.469H23.7954C23.6108 107.716 23.4976 108.02 23.4976 108.354C23.4976 109.11 24.0602 109.725 24.7864 109.813L24.7637 110.027C24.7637 110.236 24.8195 110.43 24.8822 110.618H31.0214C30.8524 110.322 30.6138 110.08 30.2812 109.98C30.6103 109.878 30.8437 109.639 30.9186 109.294H32.8048C33.538 109.294 34.1336 108.693 34.1336 107.954C34.1336 107.212 33.538 106.613 32.8048 106.613H30.4484L30.5093 106.309C30.5093 105.567 29.9154 104.966 29.1805 104.966H23.6213L23.6491 105.008H23.4489C22.7749 105.008 22.2297 105.558 22.2297 106.238C22.2297 106.919 22.7749 107.469 23.4489 107.469Z" fill="#709114"/>
<path d="M34.7836 100.722L34.808 100.483C34.808 99.5588 34.0661 98.8102 33.15 98.8102H32.941C33.0716 98.594 33.15 98.3445 33.15 98.0721C33.15 97.2848 32.5178 96.6452 31.7375 96.6452H30.3059L30.2293 96.9914C30.2293 97.5062 30.5741 97.9263 31.0392 98.0668C30.7588 98.153 30.5602 98.3568 30.4975 98.6502H28.8935C28.27 98.6502 27.7632 99.1599 27.7632 99.789C27.7632 100.42 28.27 100.929 28.8935 100.929H30.8963L30.8441 101.19C30.8441 101.819 31.3509 102.33 31.9744 102.33H36.412C36.1456 101.573 35.5447 100.977 34.7836 100.722Z" fill="#B9DD59"/>
<path d="M119.049 108.363H119.328C119.18 108.561 119.088 108.805 119.088 109.073C119.088 109.681 119.54 110.174 120.122 110.245L120.105 110.417C120.105 110.584 120.15 110.739 120.201 110.89H131.382L131.437 110.614C131.437 110.331 131.288 110.092 131.072 109.942H131.476C131.843 109.942 132.141 109.642 132.141 109.271L132.009 108.888C132.677 108.649 133.16 108.013 133.16 107.256C133.16 106.502 132.681 105.866 132.014 105.627C132.092 105.407 132.141 105.173 132.141 104.927C132.141 103.999 131.54 103.223 130.713 102.947L130.732 102.753C130.732 102.012 130.136 101.411 129.401 101.411H129.233C129.337 101.237 129.401 101.036 129.401 100.819C129.401 100.186 128.893 99.6727 128.266 99.6727H123.276C122.649 99.6727 122.141 100.186 122.141 100.819C122.141 101.036 122.205 101.237 122.31 101.411H121.124C120.389 101.411 119.793 102.012 119.793 102.753L119.823 103.033C119.112 103.365 118.617 104.085 118.617 104.927C118.617 105.495 118.846 106.01 119.21 106.387H119.049C118.508 106.387 118.071 106.83 118.071 107.375C118.071 107.92 118.508 108.363 119.049 108.363Z" fill="#5F8012"/>
<path d="M118.229 108.363H118.508C118.36 108.561 118.267 108.805 118.267 109.073C118.267 109.681 118.72 110.174 119.302 110.245L119.286 110.417C119.286 110.584 119.33 110.739 119.38 110.89H127.999L128.055 110.614C128.055 110.331 127.904 110.092 127.689 109.942H128.093C128.461 109.942 128.759 109.642 128.759 109.271L128.626 108.888C129.295 108.649 129.778 108.013 129.778 107.256C129.778 106.502 129.297 105.866 128.632 105.627C128.708 105.407 128.759 105.173 128.759 104.927C128.759 103.999 128.158 103.223 127.331 102.947L127.35 102.753C127.35 102.012 126.754 101.411 126.019 101.411H125.85C125.955 101.237 126.019 101.036 126.019 100.819C126.019 100.186 125.511 99.6727 124.884 99.6727H122.456C121.829 99.6727 121.32 100.186 121.32 100.819C121.32 101.036 121.385 101.237 121.489 101.411H120.303C119.568 101.411 118.973 102.012 118.973 102.753L119.002 103.033C118.292 103.365 117.797 104.085 117.797 104.927C117.797 105.495 118.025 106.01 118.389 106.387H118.229C117.687 106.387 117.25 106.83 117.25 107.375C117.25 107.92 117.687 108.363 118.229 108.363Z" fill="#8BB43D"/>
<path d="M118.229 108.363H118.508C118.36 108.561 118.267 108.805 118.267 109.073C118.267 109.681 118.72 110.174 119.302 110.245L119.284 110.417C119.284 110.584 119.33 110.739 119.38 110.89H124.309C124.173 110.654 123.982 110.459 123.715 110.378C123.98 110.297 124.166 110.104 124.225 109.828H125.741C126.331 109.828 126.808 109.347 126.808 108.753C126.808 108.157 126.331 107.676 125.741 107.676H123.849L123.898 107.431C123.898 106.836 123.421 106.354 122.832 106.354H118.368L118.389 106.387H118.229C117.687 106.387 117.25 106.83 117.25 107.375C117.25 107.92 117.687 108.363 118.229 108.363Z" fill="#709114"/>
<path d="M127.331 102.947L127.35 102.754C127.35 102.012 126.754 101.411 126.019 101.411H125.85C125.955 101.237 126.019 101.037 126.019 100.819C126.019 100.186 125.511 99.6731 124.884 99.6731H123.734L123.672 99.9508C123.672 100.365 123.95 100.701 124.323 100.814C124.098 100.884 123.94 101.047 123.889 101.281H122.6C122.099 101.281 121.693 101.692 121.693 102.198C121.693 102.703 122.099 103.112 122.6 103.112H124.208L124.168 103.321C124.168 103.826 124.574 104.237 125.074 104.237H128.637C128.424 103.629 127.94 103.149 127.331 102.947Z" fill="#B9DD59"/>
<path d="M55.641 106.777H56.0677C55.8413 107.081 55.7003 107.454 55.7003 107.863C55.7003 108.788 56.3917 109.543 57.2799 109.651L57.2538 109.912C57.2538 110.169 57.3217 110.405 57.3983 110.635H74.4626L74.5462 110.215C74.5462 109.781 74.3163 109.417 73.9889 109.188H74.6054C75.1662 109.188 75.6207 108.73 75.6207 108.164C75.6207 107.943 75.5371 107.749 75.4187 107.581C76.4393 107.217 77.1743 106.245 77.1743 105.09C77.1743 103.939 76.4428 102.968 75.4274 102.602C75.5459 102.266 75.6207 101.91 75.6207 101.534C75.6207 100.119 74.7046 98.9328 73.442 98.5128L73.4699 98.2176C73.4699 97.0859 72.5607 96.1686 71.4391 96.1686H71.1831C71.3433 95.905 71.4391 95.5974 71.4391 95.2653C71.4391 94.2988 70.6641 93.5168 69.708 93.5168H62.0937C61.1358 93.5168 60.3608 94.2988 60.3608 95.2653C60.3608 95.5974 60.4566 95.905 60.6168 96.1686H58.8073C57.6857 96.1686 56.7766 97.0859 56.7766 98.2176L56.8219 98.6429C55.7386 99.1507 54.9845 100.251 54.9845 101.534C54.9845 102.402 55.3293 103.189 55.8883 103.764H55.641C54.8155 103.764 54.1467 104.438 54.1467 105.271C54.1467 106.103 54.8155 106.777 55.641 106.777Z" fill="#5F8012"/>
<path d="M54.3888 106.777H54.8155C54.5891 107.081 54.4498 107.454 54.4498 107.863C54.4498 108.788 55.1412 109.543 56.0276 109.651L56.0015 109.912C56.0015 110.169 56.0695 110.405 56.1478 110.635H69.3004L69.384 110.215C69.384 109.781 69.1541 109.417 68.8267 109.188H69.4432C70.004 109.188 70.4586 108.73 70.4586 108.164C70.4586 107.943 70.375 107.749 70.2565 107.581C71.2771 107.217 72.0121 106.245 72.0121 105.09C72.0121 103.939 71.2806 102.968 70.2653 102.602C70.3837 102.266 70.4586 101.91 70.4586 101.534C70.4586 100.119 69.5425 98.9328 68.2799 98.5128L68.3094 98.2176C68.3094 97.0859 67.3986 96.1686 66.277 96.1686H66.021C66.1812 95.905 66.277 95.5974 66.277 95.2653C66.277 94.2988 65.502 93.5168 64.5459 93.5168H60.8415C59.8853 93.5168 59.1086 94.2988 59.1086 95.2653C59.1086 95.5974 59.2061 95.905 59.3646 96.1686H57.555C56.4334 96.1686 55.5243 97.0859 55.5243 98.2176L55.5696 98.6429C54.4863 99.1507 53.7322 100.251 53.7322 101.534C53.7322 102.402 54.0788 103.189 54.6361 103.764H54.3888C53.565 103.764 52.8962 104.438 52.8962 105.271C52.8962 106.103 53.565 106.777 54.3888 106.777Z" fill="#8BB43D"/>
<path d="M54.3888 106.777H54.8155C54.5891 107.081 54.4498 107.454 54.4498 107.863C54.4498 108.788 55.1394 109.542 56.0276 109.651L56.0015 109.912C56.0015 110.169 56.0695 110.405 56.1461 110.635H63.6681C63.4608 110.276 63.1683 109.977 62.7625 109.854C63.1665 109.73 63.4521 109.436 63.5427 109.014H65.8538C66.7542 109.014 67.4822 108.278 67.4822 107.371C67.4822 106.465 66.7542 105.728 65.8538 105.728H62.968L63.0428 105.356C63.0428 104.449 62.3131 103.713 61.4145 103.713H54.603L54.6361 103.764H54.3888C53.565 103.764 52.8962 104.438 52.8962 105.271C52.8962 106.103 53.565 106.777 54.3888 106.777Z" fill="#709114"/>
<path d="M68.2793 98.5132L68.3089 98.218C68.3089 97.0863 67.3981 96.169 66.2765 96.169H66.0205C66.1807 95.9054 66.2765 95.5979 66.2765 95.2657C66.2765 94.2992 65.5015 93.5172 64.5453 93.5172H62.7915L62.6957 93.9408C62.6957 94.5716 63.1189 95.0848 63.6902 95.2587C63.3454 95.3659 63.1033 95.6137 63.0267 95.9722H61.0604C60.2958 95.9722 59.6758 96.5978 59.6758 97.3692C59.6758 98.1407 60.2958 98.7663 61.0604 98.7663H63.5143L63.4516 99.0844C63.4516 99.8558 64.0716 100.481 64.8362 100.481H70.2735C69.9478 99.5536 69.2094 98.8225 68.2793 98.5132Z" fill="#B9DD59"/>
<path d="M175 115C174.664 113.011 172.957 111.492 170.89 111.492H4.11021C2.04292 111.492 0.33613 113.011 0 115H175Z" fill="#79442B"/>
<path d="M169.383 111.116C169.383 111.477 169.092 111.77 168.735 111.77H5.08366C4.72663 111.77 4.43579 111.477 4.43579 111.116C4.43579 110.754 4.72663 110.463 5.08366 110.463H168.735C169.092 110.463 169.383 110.754 169.383 111.116Z" fill="#709114"/>
</svg>
