<svg width="708" height="621" viewBox="0 0 708 621" fill="none" xmlns="http://www.w3.org/2000/svg">
<path d="M708 620.91C706.633 612.941 699.735 606.853 691.371 606.853H16.6287C8.26507 606.853 1.35989 612.941 0 620.91H708Z" fill="#79442B"/>
<path d="M207.004 223.198C197.189 201.975 175.72 187.242 150.805 187.242C125.89 187.242 104.428 201.975 94.6128 223.198H207.004Z" fill="#D9B880"/>
<path d="M176.34 223.198H207.005C198.162 204.082 179.856 190.271 158.105 187.714C166.102 192.759 172.711 205.864 176.34 223.198Z" fill="#C2934F"/>
<path d="M153.229 219.224C152.954 219.816 152.08 220.295 151.291 220.295H109.163C108.367 220.295 107.951 219.816 108.233 219.224L118.738 196.902C119.013 196.31 119.88 195.831 120.676 195.831H162.804C163.594 195.831 164.009 196.31 163.734 196.902L153.229 219.224Z" fill="#596976"/>
<path d="M117.731 202.229L120.233 196.902H129.836L127.335 202.229H117.731ZM128.462 202.229L130.971 196.902H140.574L138.066 202.229H128.462ZM139.193 202.229L141.702 196.902H151.306L148.797 202.229H139.193ZM149.925 202.229L152.433 196.902H162.037L159.528 202.229H149.925ZM115.061 207.894L117.569 202.567H127.173L124.664 207.894H115.061ZM125.799 207.894L128.3 202.567H137.904L135.403 207.894H125.799ZM136.53 207.894L139.038 202.567H148.642L146.134 207.894H136.53ZM147.261 207.894L149.77 202.567H159.373L156.865 207.894H147.261ZM112.397 213.559L114.906 208.232H124.509L122.001 213.559H112.397ZM123.128 213.559L125.637 208.232H135.241L132.732 213.559H123.128ZM133.867 213.559L136.368 208.232H145.972L143.47 213.559H133.867ZM144.598 213.559L147.099 208.232H156.71L154.202 213.559H144.598ZM109.734 219.224L112.235 213.897H121.839L119.338 219.224H109.734ZM120.465 219.224L122.973 213.897H132.577L130.069 219.224H120.465ZM131.196 219.224L133.705 213.897H143.308L140.8 219.224H131.196ZM141.927 219.224L144.436 213.897H154.039L151.538 219.224H141.927Z" fill="#78B2BD"/>
<path d="M161.683 197.098H152.601L150.275 202.037H159.358L161.683 197.098ZM150.952 197.098H141.869L139.544 202.037H148.627L150.952 197.098ZM140.221 197.098H131.138L128.813 202.037H137.895L140.221 197.098ZM129.482 197.098H120.4L118.082 202.037H127.164L129.482 197.098ZM159.02 202.763H149.937L147.612 207.695H156.694L159.02 202.763ZM148.288 202.763H139.206L136.881 207.695H145.963L148.288 202.763ZM137.55 202.763H128.468L126.15 207.695H135.232L137.55 202.763ZM126.819 202.763H117.737L115.412 207.695H124.494L126.819 202.763ZM156.349 208.428H147.267L144.949 213.36H154.031L156.349 208.428ZM145.618 208.428H136.536L134.217 213.36H143.3L145.618 208.428ZM134.887 208.428H125.804L123.479 213.36H132.562L134.887 208.428ZM124.156 208.428H115.073L112.748 213.36H121.83L124.156 208.428ZM153.686 214.093H144.603L142.285 219.025H151.368L153.686 214.093ZM142.955 214.093H133.872L131.547 219.025H140.629L142.955 214.093ZM132.223 214.093H123.141L120.816 219.025H129.898L132.223 214.093ZM119.167 219.025H110.085L112.403 214.093H121.485L119.167 219.025Z" fill="#5C7997"/>
<path d="M184.323 219.224L185.654 220.295H200.761L200.458 219.224L183.378 196.902L182.047 195.831H166.94L167.243 196.902L184.323 219.224Z" fill="#596976"/>
<path d="M183.469 202.229L179.397 196.902H182.842L186.915 202.229H183.469ZM179.622 202.229L175.55 196.902H178.995L183.068 202.229H179.622ZM175.775 202.229L171.703 196.902H175.141L179.221 202.229H175.775ZM171.928 202.229L167.848 196.902H171.294L175.366 202.229H171.928ZM187.81 207.894L183.73 202.567H187.176L191.248 207.894H187.81ZM183.956 207.894L179.883 202.567H183.329L187.401 207.894H183.956ZM180.108 207.894L176.036 202.567H179.474L183.554 207.894H180.108ZM176.261 207.894L172.182 202.567H175.627L179.707 207.894H176.261ZM192.143 213.559L188.063 208.232H191.509L195.582 213.559H192.143ZM188.289 213.559L184.216 208.232H187.662L191.734 213.559H188.289ZM184.442 213.559L180.369 208.232H183.815L187.887 213.559H184.442ZM180.595 213.559L176.515 208.232H179.96L184.04 213.559H180.595ZM196.476 219.224L192.397 213.897H195.842L199.922 219.224H196.476ZM192.622 219.224L188.55 213.897H191.995L196.068 219.224H192.622ZM188.775 219.224L184.702 213.897H188.148L192.221 219.224H188.775ZM184.928 219.224L180.855 213.897H184.294L188.374 219.224H184.928Z" fill="#78B2BD"/>
<path d="M171.873 202.037H175.128L171.351 197.098H168.096L171.873 202.037ZM175.72 202.037H178.975L175.198 197.098H171.943L175.72 202.037ZM179.567 202.037H182.829L179.052 197.098H175.79L179.567 202.037ZM183.421 202.037H186.676L182.9 197.098H179.644L183.421 202.037ZM176.206 207.695H179.461L175.685 202.763H172.429L176.206 207.695ZM180.053 207.695H183.308L179.532 202.763H176.276L180.053 207.695ZM183.9 207.695H187.162L183.386 202.763H180.123L183.9 207.695ZM187.754 207.695H191.01L187.233 202.763H183.978L187.754 207.695ZM180.539 213.36H183.795L180.018 208.428H176.763L180.539 213.36ZM184.386 213.36H187.642L183.865 208.428H180.61L184.386 213.36ZM188.233 213.36H191.496L187.719 208.428H184.457L188.233 213.36ZM192.088 213.36H195.343L191.566 208.428H188.311L192.088 213.36ZM184.873 219.025H188.128L184.351 214.093H181.096L184.873 219.025ZM188.72 219.025H191.982L188.205 214.093H184.943L188.72 219.025ZM192.574 219.025H195.829L192.052 214.093H188.797L192.574 219.025ZM192.644 214.093H195.9L199.676 219.025H196.421L192.644 214.093Z" fill="#5C7997"/>
<path d="M212.402 604.987H177.334V229.017H212.402V604.987Z" fill="#C2934F"/>
<path d="M177.332 604.987H90.1235V229.017H177.332V604.987Z" fill="#D9B880"/>
<path d="M215.756 231.764H177.334V220.328H215.756V231.764Z" fill="#C2DAE0"/>
<path d="M177.334 231.764H85.2493V220.328H177.334V231.764Z" fill="#F4F8FB"/>
<path d="M209.808 397.185H205.644V413.116H209.808V397.185ZM202.149 397.185H197.985V413.116H202.149V397.185ZM194.49 397.185H190.326V413.116H194.49V397.185ZM186.831 397.185H182.667V413.116H186.831V397.185ZM209.808 374.384H205.644V390.322H209.808V374.384ZM202.149 374.384H197.985V390.322H202.149V374.384ZM194.49 374.384H190.326V390.322H194.49V374.384ZM186.831 374.384H182.667V390.322H186.831V374.384ZM209.808 351.583H205.644V367.521H209.808V351.583ZM202.149 351.583H197.985V367.521H202.149V351.583ZM194.49 351.583H190.326V367.521H194.49V351.583ZM186.831 351.583H182.667V367.521H186.831V351.583ZM209.808 328.789H205.644V344.72H209.808V328.789ZM202.149 328.789H197.985V344.72H202.149V328.789ZM194.49 328.789H190.326V344.72H194.49V328.789ZM186.831 328.789H182.667V344.72H186.831V328.789ZM209.808 305.988H205.644V321.919H209.808V305.988ZM202.149 305.988H197.985V321.919H202.149V305.988ZM194.49 305.988H190.326V321.919H194.49V305.988ZM186.831 305.988H182.667V321.919H186.831V305.988ZM209.808 283.187H205.644V299.118H209.808V283.187ZM202.149 283.187H197.985V299.118H202.149V283.187ZM194.49 283.187H190.326V299.118H194.49V283.187ZM186.831 283.187H182.667V299.118H186.831V283.187ZM209.808 260.386H205.644V276.317H209.808V260.386ZM202.149 260.386H197.985V276.317H202.149V260.386ZM194.49 260.386H190.326V276.317H194.49V260.386ZM186.831 260.386H182.667V276.317H186.831V260.386ZM209.808 237.585H205.644V253.523H209.808V237.585ZM202.149 237.585H197.985V253.523H202.149V237.585ZM194.49 237.585H190.326V253.523H194.49V237.585ZM186.831 253.523H182.667V237.585H186.831V253.523Z" fill="#0087E4"/>
<path d="M95.0002 596.074H103.857V580.143H95.0002V596.074ZM95.0002 504.87H103.857V488.939H95.0002V504.87ZM95.0002 482.076H103.857V466.138H95.0002V482.076ZM95.0002 459.275H103.857V443.344H95.0002V459.275ZM95.0002 436.474H103.857V420.543H95.0002V436.474ZM95.0002 527.671H103.857V511.74H95.0002V527.671ZM95.0002 253.524H103.857V237.586H95.0002V253.524ZM95.0002 550.472H103.857V534.541H95.0002V550.472ZM95.0002 573.273H103.857V557.342H95.0002V573.273ZM95.0002 299.119H103.857V283.188H95.0002V299.119ZM95.0002 321.92H103.857V305.989H95.0002V321.92ZM95.0002 276.318H103.857V260.387H95.0002V276.318ZM95.0002 344.721H103.857V328.79H95.0002V344.721ZM95.0002 390.323H103.857V374.385H95.0002V390.323ZM95.0002 367.522H103.857V351.584H95.0002V367.522ZM95.0002 413.117H103.857V397.186H95.0002V413.117ZM168.526 580.143H159.676V596.074H168.526V580.143ZM152.256 580.143H143.406V596.074H152.256V580.143ZM135.98 580.143H127.13V596.074H135.98V580.143ZM119.711 580.143H110.861V596.074H119.711V580.143ZM168.526 557.342H159.676V573.273H168.526V557.342ZM152.256 557.342H143.406V573.273H152.256V557.342ZM135.98 557.342H127.13V573.273H135.98V557.342ZM119.711 557.342H110.861V573.273H119.711V557.342ZM168.526 534.541H159.676V550.472H168.526V534.541ZM152.256 534.541H143.406V550.472H152.256V534.541ZM135.98 534.541H127.13V550.472H135.98V534.541ZM119.711 534.541H110.861V550.472H119.711V534.541ZM168.526 511.74H159.676V527.671H168.526V511.74ZM152.256 511.74H143.406V527.671H152.256V511.74ZM135.98 511.74H127.13V527.671H135.98V511.74ZM119.711 511.74H110.861V527.671H119.711V511.74ZM168.526 488.939H159.676V504.87H168.526V488.939ZM152.256 488.939H143.406V504.87H152.256V488.939ZM135.98 488.939H127.13V504.87H135.98V488.939ZM119.711 488.939H110.861V504.87H119.711V488.939ZM168.526 466.138H159.676V482.076H168.526V466.138ZM152.256 466.138H143.406V482.076H152.256V466.138ZM135.98 466.138H127.13V482.076H135.98V466.138ZM119.711 466.138H110.861V482.076H119.711V466.138ZM168.526 443.344H159.676V459.275H168.526V443.344ZM152.256 443.344H143.406V459.275H152.256V443.344ZM135.98 443.344H127.13V459.275H135.98V443.344ZM119.711 443.344H110.861V459.275H119.711V443.344ZM168.526 420.543H159.676V436.474H168.526V420.543ZM152.256 420.543H143.406V436.474H152.256V420.543ZM135.98 420.543H127.13V436.474H135.98V420.543ZM119.711 436.474H110.861V420.543H119.711V436.474ZM168.526 397.186H159.676V413.117H168.526V397.186ZM152.256 397.186H143.406V413.117H152.256V397.186ZM135.98 397.186H127.13V413.117H135.98V397.186ZM119.711 397.186H110.861V413.117H119.711V397.186ZM168.526 374.385H159.676V390.323H168.526V374.385ZM152.256 374.385H143.406V390.323H152.256V374.385ZM135.98 374.385H127.13V390.323H135.98V374.385ZM119.711 374.385H110.861V390.323H119.711V374.385ZM168.526 351.584H159.676V367.522H168.526V351.584ZM152.256 351.584H143.406V367.522H152.256V351.584ZM135.98 351.584H127.13V367.522H135.98V351.584ZM119.711 351.584H110.861V367.522H119.711V351.584ZM168.526 328.79H159.676V344.721H168.526V328.79ZM152.256 328.79H143.406V344.721H152.256V328.79ZM135.98 328.79H127.13V344.721H135.98V328.79ZM119.711 328.79H110.861V344.721H119.711V328.79ZM168.526 305.989H159.676V321.92H168.526V305.989ZM152.256 305.989H143.406V321.92H152.256V305.989ZM135.98 305.989H127.13V321.92H135.98V305.989ZM119.711 305.989H110.861V321.92H119.711V305.989ZM168.526 283.188H159.676V299.119H168.526V283.188ZM152.256 283.188H143.406V299.119H152.256V283.188ZM135.98 283.188H127.13V299.119H135.98V283.188ZM119.711 283.188H110.861V299.119H119.711V283.188ZM168.526 260.387H159.676V276.318H168.526V260.387ZM152.256 260.387H143.406V276.318H152.256V260.387ZM135.98 260.387H127.13V276.318H135.98V260.387ZM119.711 260.387H110.861V276.318H119.711V260.387ZM168.526 237.586H159.676V253.524H168.526V237.586ZM152.256 237.586H143.406V253.524H152.256V237.586ZM135.98 237.586H127.13V253.524H135.98V237.586ZM119.711 253.524H110.861V237.586H119.711V253.524Z" fill="url(#paint0_linear)"/>
<path d="M209.808 580.143H205.644V596.074H209.808V580.143ZM202.149 580.143H197.985V596.074H202.149V580.143ZM194.49 580.143H190.326V596.074H194.49V580.143ZM186.831 580.143H182.667V596.074H186.831V580.143ZM209.808 557.342H205.644V573.273H209.808V557.342ZM202.149 557.342H197.985V573.273H202.149V557.342ZM194.49 557.342H190.326V573.273H194.49V557.342ZM186.831 557.342H182.667V573.273H186.831V557.342ZM209.808 534.541H205.644V550.472H209.808V534.541ZM202.149 534.541H197.985V550.472H202.149V534.541ZM194.49 534.541H190.326V550.472H194.49V534.541ZM186.831 534.541H182.667V550.472H186.831V534.541ZM209.808 511.74H205.644V527.671H209.808V511.74ZM202.149 511.74H197.985V527.671H202.149V511.74ZM194.49 511.74H190.326V527.671H194.49V511.74ZM186.831 511.74H182.667V527.671H186.831V511.74ZM209.808 488.939H205.644V504.87H209.808V488.939ZM202.149 488.939H197.985V504.87H202.149V488.939ZM194.49 488.939H190.326V504.87H194.49V488.939ZM186.831 488.939H182.667V504.87H186.831V488.939ZM209.808 466.138H205.644V482.076H209.808V466.138ZM202.149 466.138H197.985V482.076H202.149V466.138ZM194.49 466.138H190.326V482.076H194.49V466.138ZM186.831 466.138H182.667V482.076H186.831V466.138ZM209.808 443.344H205.644V459.275H209.808V443.344ZM202.149 443.344H197.985V459.275H202.149V443.344ZM194.49 443.344H190.326V459.275H194.49V443.344ZM186.831 443.344H182.667V459.275H186.831V443.344ZM209.808 420.543H205.644V436.474H209.808V420.543ZM202.149 420.543H197.985V436.474H202.149V420.543ZM194.49 420.543H190.326V436.474H194.49V420.543ZM186.831 436.474H182.667V420.543H186.831V436.474Z" fill="#0087E4"/>
<path d="M557.36 133.621C545.241 107.424 518.74 89.2381 487.977 89.2381C457.214 89.2381 430.714 107.424 418.595 133.621H557.36Z" fill="#EDCC94"/>
<path d="M519.496 133.621H557.361C546.447 110.024 523.843 92.9726 496.991 89.8159C506.862 96.0446 515.022 112.229 519.496 133.621Z" fill="#D6A55F"/>
<path d="M564.025 604.987H520.728V140.815H564.025V604.987Z" fill="#D6A55F"/>
<path d="M520.729 604.987H413.066V140.815H520.729V604.987Z" fill="#EDCC94"/>
<path d="M568.161 144.198H520.728V130.085H568.161V144.198Z" fill="#DCEFF4"/>
<path d="M520.728 144.198H407.041V130.085H520.728V144.198Z" fill="#F4F8FB"/>
<path d="M560.819 348.434H555.682V368.107H560.819V348.434ZM551.37 348.434H546.227V368.107H551.37V348.434ZM541.914 348.434H536.771V368.107H541.914V348.434ZM532.459 348.434H527.315V368.107H532.459V348.434ZM560.819 320.285H555.682V339.958H560.819V320.285ZM551.37 320.285H546.227V339.958H551.37V320.285ZM541.914 320.285H536.771V339.958H541.914V320.285ZM532.459 320.285H527.315V339.958H532.459V320.285ZM560.819 292.136H555.682V311.809H560.819V292.136ZM551.37 292.136H546.227V311.809H551.37V292.136ZM541.914 292.136H536.771V311.809H541.914V292.136ZM532.459 292.136H527.315V311.809H532.459V292.136ZM560.819 263.987H555.682V283.66H560.819V263.987ZM551.37 263.987H546.227V283.66H551.37V263.987ZM541.914 263.987H536.771V283.66H541.914V263.987ZM532.459 263.987H527.315V283.66H532.459V263.987ZM560.819 235.838H555.682V255.511H560.819V235.838ZM551.37 235.838H546.227V255.511H551.37V235.838ZM541.914 235.838H536.771V255.511H541.914V235.838ZM532.459 235.838H527.315V255.511H532.459V235.838ZM560.819 207.69H555.682V227.362H560.819V207.69ZM551.37 207.69H546.227V227.362H551.37V207.69ZM541.914 207.69H536.771V227.362H541.914V207.69ZM532.459 207.69H527.315V227.362H532.459V207.69ZM560.819 179.541H555.682V199.213H560.819V179.541ZM551.37 179.541H546.227V199.213H551.37V179.541ZM541.914 179.541H536.771V199.213H541.914V179.541ZM532.459 179.541H527.315V199.213H532.459V179.541ZM560.819 151.392H555.682V171.064H560.819V151.392ZM551.37 151.392H546.227V171.064H551.37V151.392ZM541.914 151.392H536.771V171.064H541.914V151.392ZM532.459 171.064H527.315V151.392H532.459V171.064Z" fill="#0495F8"/>
<path d="M419.083 593.982H430.011V574.309H419.083V593.982ZM419.083 481.386H430.011V461.713H419.083V481.386ZM419.083 453.237H430.011V433.564H419.083V453.237ZM419.083 425.088H430.011V405.416H419.083V425.088ZM419.083 396.939H430.011V377.267H419.083V396.939ZM419.083 509.535H430.011V489.862H419.083V509.535ZM419.083 171.064H430.011V151.392H419.083V171.064ZM419.083 537.684H430.011V518.011H419.083V537.684ZM419.083 565.833H430.011V546.16H419.083V565.833ZM419.083 227.362H430.011V207.69H419.083V227.362ZM419.083 255.511H430.011V235.839H419.083V255.511ZM419.083 199.213H430.011V179.541H419.083V199.213ZM419.083 283.66H430.011V263.988H419.083V283.66ZM419.083 339.958H430.011V320.285H419.083V339.958ZM419.083 311.809H430.011V292.136H419.083V311.809ZM419.083 368.107H430.011V348.434H419.083V368.107ZM509.857 574.309H498.928V593.982H509.857V574.309ZM489.769 574.309H478.84V593.982H489.769V574.309ZM469.68 574.309H458.752V593.982H469.68V574.309ZM449.585 574.309H438.657V593.982H449.585V574.309ZM509.857 546.16H498.928V565.833H509.857V546.16ZM489.769 546.16H478.84V565.833H489.769V546.16ZM469.68 546.16H458.752V565.833H469.68V546.16ZM449.585 546.16H438.657V565.833H449.585V546.16ZM509.857 518.011H498.928V537.684H509.857V518.011ZM489.769 518.011H478.84V537.684H489.769V518.011ZM469.68 518.011H458.752V537.684H469.68V518.011ZM449.585 518.011H438.657V537.684H449.585V518.011ZM509.857 489.862H498.928V509.535H509.857V489.862ZM489.769 489.862H478.84V509.535H489.769V489.862ZM469.68 489.862H458.752V509.535H469.68V489.862ZM449.585 489.862H438.657V509.535H449.585V489.862ZM509.857 461.713H498.928V481.386H509.857V461.713ZM489.769 461.713H478.84V481.386H489.769V461.713ZM469.68 461.713H458.752V481.386H469.68V461.713ZM449.585 461.713H438.657V481.386H449.585V461.713ZM509.857 433.564H498.928V453.237H509.857V433.564ZM489.769 433.564H478.84V453.237H489.769V433.564ZM469.68 433.564H458.752V453.237H469.68V433.564ZM449.585 433.564H438.657V453.237H449.585V433.564ZM509.857 405.416H498.928V425.088H509.857V405.416ZM489.769 405.416H478.84V425.088H489.769V405.416ZM469.68 405.416H458.752V425.088H469.68V405.416ZM449.585 405.416H438.657V425.088H449.585V405.416ZM509.857 377.267H498.928V396.939H509.857V377.267ZM489.769 377.267H478.84V396.939H489.769V377.267ZM469.68 377.267H458.752V396.939H469.68V377.267ZM449.585 396.939H438.657V377.267H449.585V396.939ZM509.857 348.434H498.928V368.107H509.857V348.434ZM489.769 348.434H478.84V368.107H489.769V348.434ZM469.68 348.434H458.752V368.107H469.68V348.434ZM449.585 348.434H438.657V368.107H449.585V348.434ZM509.857 320.285H498.928V339.958H509.857V320.285ZM489.769 320.285H478.84V339.958H489.769V320.285ZM469.68 320.285H458.752V339.958H469.68V320.285ZM449.585 320.285H438.657V339.958H449.585V320.285ZM509.857 292.136H498.928V311.809H509.857V292.136ZM489.769 292.136H478.84V311.809H489.769V292.136ZM469.68 292.136H458.752V311.809H469.68V292.136ZM449.585 292.136H438.657V311.809H449.585V292.136ZM509.857 263.988H498.928V283.66H509.857V263.988ZM489.769 263.988H478.84V283.66H489.769V263.988ZM469.68 263.988H458.752V283.66H469.68V263.988ZM449.585 263.988H438.657V283.66H449.585V263.988ZM509.857 235.839H498.928V255.511H509.857V235.839ZM489.769 235.839H478.84V255.511H489.769V235.839ZM469.68 235.839H458.752V255.511H469.68V235.839ZM449.585 235.839H438.657V255.511H449.585V235.839ZM509.857 207.69H498.928V227.362H509.857V207.69ZM489.769 207.69H478.84V227.362H489.769V207.69ZM469.68 207.69H458.752V227.362H469.68V207.69ZM449.585 207.69H438.657V227.362H449.585V207.69ZM509.857 179.541H498.928V199.213H509.857V179.541ZM489.769 179.541H478.84V199.213H489.769V179.541ZM469.68 179.541H458.752V199.213H469.68V179.541ZM449.585 179.541H438.657V199.213H449.585V179.541ZM509.857 151.392H498.928V171.064H509.857V151.392ZM489.769 151.392H478.84V171.064H489.769V151.392ZM469.68 151.392H458.752V171.064H469.68V151.392ZM449.585 171.064H438.657V151.392H449.585V171.064Z" fill="url(#paint1_linear)"/>
<path d="M560.819 574.309H555.682V593.982H560.819V574.309ZM551.37 574.309H546.227V593.982H551.37V574.309ZM541.914 574.309H536.771V593.982H541.914V574.309ZM532.459 574.309H527.315V593.982H532.459V574.309ZM560.819 546.16H555.682V565.833H560.819V546.16ZM551.37 546.16H546.227V565.833H551.37V546.16ZM541.914 546.16H536.771V565.833H541.914V546.16ZM532.459 546.16H527.315V565.833H532.459V546.16ZM560.819 518.011H555.682V537.684H560.819V518.011ZM551.37 518.011H546.227V537.684H551.37V518.011ZM541.914 518.011H536.771V537.684H541.914V518.011ZM532.459 518.011H527.315V537.684H532.459V518.011ZM560.819 489.862H555.682V509.535H560.819V489.862ZM551.37 489.862H546.227V509.535H551.37V489.862ZM541.914 489.862H536.771V509.535H541.914V489.862ZM532.459 489.862H527.315V509.535H532.459V489.862ZM560.819 461.713H555.682V481.386H560.819V461.713ZM551.37 461.713H546.227V481.386H551.37V461.713ZM541.914 461.713H536.771V481.386H541.914V461.713ZM532.459 461.713H527.315V481.386H532.459V461.713ZM560.819 433.564H555.682V453.237H560.819V433.564ZM551.37 433.564H546.227V453.237H551.37V433.564ZM541.914 433.564H536.771V453.237H541.914V433.564ZM532.459 433.564H527.315V453.237H532.459V433.564ZM560.819 405.416H555.682V425.088H560.819V405.416ZM551.37 405.416H546.227V425.088H551.37V405.416ZM541.914 405.416H536.771V425.088H541.914V405.416ZM532.459 405.416H527.315V425.088H532.459V405.416ZM560.819 377.267H555.682V396.939H560.819V377.267ZM551.37 377.267H546.227V396.939H551.37V377.267ZM541.914 377.267H536.771V396.939H541.914V377.267ZM532.459 396.939H527.315V377.267H532.459V396.939Z" fill="#0495F8"/>
<path d="M528.612 128.456C529.176 129.196 529.93 129.802 530.282 129.802H549.229C549.581 129.802 549.412 129.196 548.841 128.456L527.435 100.47C526.865 99.7227 526.118 99.1239 525.759 99.1239H506.812C506.46 99.1239 506.629 99.7227 507.199 100.47L528.612 128.456Z" fill="#596976"/>
<path d="M527.548 107.148L522.44 100.468H526.759L531.867 107.148H527.548ZM522.721 107.148L517.613 100.468H521.932L527.041 107.148H522.721ZM517.895 107.148L512.787 100.468H517.106L522.214 107.148H517.895ZM513.068 107.148L507.96 100.468H512.279L517.387 107.148H513.068ZM532.98 114.251L527.872 107.571H532.191L537.3 114.251H532.98ZM528.154 114.251L523.045 107.571H527.365L532.473 114.251H528.154ZM523.327 114.251L518.219 107.571H522.538L527.647 114.251H523.327ZM518.501 114.251L513.392 107.571H517.712L522.82 114.251H518.501ZM538.42 121.353L533.305 114.673H537.624L542.732 121.353H538.42ZM533.593 121.353L528.478 114.673H532.797L537.913 121.353H533.593ZM528.767 121.353L523.652 114.673H527.971L533.086 121.353H528.767ZM523.94 121.353L518.825 114.673H523.144L528.26 121.353H523.94ZM543.852 128.455L538.744 121.776H543.063L548.172 128.455H543.852ZM539.026 128.455L533.918 121.776H538.237L543.345 128.455H539.026ZM534.199 128.455L529.091 121.776H533.41L538.519 128.455H534.199ZM529.373 128.455L524.264 121.776H528.584L533.692 128.455H529.373Z" fill="#78B2BD"/>
<path d="M512.999 106.903H517.086L512.351 100.709H508.264L512.999 106.903ZM517.826 106.903H521.913L517.178 100.709H513.091L517.826 106.903ZM522.653 106.903H526.739L522.004 100.709H517.917L522.653 106.903ZM527.479 106.903H531.566L526.831 100.709H522.744L527.479 106.903ZM518.432 114.005H522.519L517.784 107.812H513.697L518.432 114.005ZM523.258 114.005H527.345L522.61 107.812H518.523L523.258 114.005ZM528.085 114.005H532.172L527.437 107.812H523.35L528.085 114.005ZM532.911 114.005H536.998L532.263 107.812H528.177L532.911 114.005ZM523.871 121.108H527.951L523.216 114.921H519.137L523.871 121.108ZM528.698 121.108H532.778L528.043 114.921H523.963L528.698 121.108ZM533.525 121.108H537.604L532.869 114.921H528.79L533.525 121.108ZM538.351 121.108H542.431L537.696 114.921H533.616L538.351 121.108ZM529.304 128.21H533.391L528.656 122.024H524.569L529.304 128.21ZM534.13 128.21H538.217L533.482 122.024H529.395L534.13 128.21ZM538.957 128.21H543.044L538.302 122.024H534.222L538.957 128.21ZM539.049 122.024H543.128L547.87 128.21H543.784L539.049 122.024Z" fill="#5C7997"/>
<path d="M492.705 128.456C492.36 129.196 491.267 129.802 490.274 129.802H437.358C436.365 129.802 435.843 129.196 436.189 128.456L449.386 100.42C449.731 99.6804 450.823 99.0745 451.817 99.0745H504.725C505.726 99.0745 506.247 99.6804 505.895 100.42L492.705 128.456Z" fill="#596976"/>
<path d="M448.12 107.113L451.27 100.419H463.332L460.183 107.113H448.12ZM461.599 107.113L464.749 100.419H476.812L473.662 107.113H461.599ZM475.078 107.113L478.228 100.419H490.291L487.141 107.113H475.078ZM488.557 107.113L491.707 100.419H503.77L500.62 107.113H488.557ZM444.773 114.222L447.923 107.536H459.986L456.836 114.222H444.773ZM458.252 114.222L461.402 107.536H473.465L470.315 114.222H458.252ZM471.731 114.222L474.881 107.536H486.944L483.794 114.222H471.731ZM485.21 114.222L488.36 107.536H500.423L497.273 114.222H485.21ZM441.426 121.339L444.576 114.652H456.632L453.489 121.339H441.426ZM454.905 121.339L458.055 114.652H470.118L466.968 121.339H454.905ZM468.385 121.339L471.534 114.652H483.597L480.447 121.339H468.385ZM481.864 121.339L485.013 114.652H497.076L493.927 121.339H481.864ZM438.08 128.455L441.222 121.762H453.285L450.142 128.455H438.08ZM451.559 128.455L454.708 121.762H466.764L463.621 128.455H451.559ZM465.038 128.455L468.187 121.762H480.25L477.1 128.455H465.038ZM478.517 128.455L481.666 121.762H493.729L490.58 128.455H478.517Z" fill="#78B2BD"/>
<path d="M503.326 100.667H491.918L489.001 106.868H500.409L503.326 100.667ZM489.847 100.667H478.439L475.522 106.868H486.929L489.847 100.667ZM476.367 100.667H464.96L462.043 106.868H473.45L476.367 100.667ZM462.888 100.667H451.481L448.564 106.868H459.971L462.888 100.667ZM499.979 107.784H488.571L485.654 113.984H497.062L499.979 107.784ZM486.5 107.784H475.092L472.175 113.984H483.583L486.5 107.784ZM473.021 107.784H461.613L458.696 113.984H470.104L473.021 107.784ZM459.542 107.784H448.134L445.217 113.984H456.624L459.542 107.784ZM496.632 114.893H485.224L482.307 121.093H493.715L496.632 114.893ZM483.153 114.893H471.745L468.828 121.093H480.236L483.153 114.893ZM469.674 114.893H458.266L455.349 121.093H466.757L469.674 114.893ZM456.195 114.893H444.787L441.87 121.093H453.278L456.195 114.893ZM493.285 122.009H481.877L478.961 128.21H490.368L493.285 122.009ZM479.806 122.009H468.399L465.481 128.21H476.889L479.806 122.009ZM466.327 122.009H454.919L452.002 128.21H463.41L466.327 122.009ZM449.924 128.21H438.523L441.44 122.009H452.848L449.924 128.21Z" fill="#5C7997"/>
<path d="M362.954 160.96L281.192 160.53L294.516 136.665H327.802L362.954 160.96Z" fill="#D6A55F"/>
<path d="M329.667 160.96H259.355L294.514 136.665L329.667 160.96Z" fill="#F4F8FB"/>
<path d="M294.156 144.987L274.194 157.642H313.765L294.156 144.987Z" fill="#A5E7F9"/>
<path d="M323.236 156.612C323.962 157.119 325.195 157.528 325.984 157.528H368.112C368.908 157.528 368.958 157.119 368.232 156.612L340.872 137.531C340.146 137.031 338.92 136.615 338.124 136.615H295.996C295.207 136.615 295.15 137.031 295.876 137.531L323.236 156.612Z" fill="#596976"/>
<path d="M336.297 142.09L329.773 137.531H339.376L345.901 142.09H336.297ZM325.566 142.09L319.034 137.531H328.638L335.17 142.09H325.566ZM314.835 142.09L308.303 137.531H317.907L324.439 142.09H314.835ZM304.097 142.09L297.572 137.531H307.176L313.708 142.09H304.097ZM343.245 146.931L336.713 142.379H346.317L352.848 146.931H343.245ZM332.506 146.931L325.982 142.379H335.586L342.11 146.931H332.506ZM321.775 146.931L315.251 142.379H324.855L331.379 146.931H321.775ZM311.044 146.931L304.513 142.379H314.116L320.648 146.931H311.044ZM350.185 151.771L343.66 147.22H353.264L359.789 151.771H350.185ZM339.454 151.771L332.922 147.22H342.526L349.058 151.771H339.454ZM328.723 151.771L322.191 147.22H331.795L338.327 151.771H328.723ZM317.985 151.771L311.46 147.22H321.064L327.588 151.771H317.985ZM357.132 156.612L350.601 152.06H360.205L366.736 156.612H357.132ZM346.394 156.612L339.87 152.06H349.473L355.998 156.612H346.394ZM335.663 156.612L329.138 152.06H338.742L345.267 156.612H335.663ZM324.932 156.612L318.4 152.06H328.004L334.536 156.612H324.932Z" fill="#78B2BD"/>
<path d="M304.125 141.92H313.208L307.155 137.7H298.073L304.125 141.92ZM314.856 141.92H323.939L317.886 137.7H308.804L314.856 141.92ZM325.588 141.92H334.67L328.617 137.7H319.535L325.588 141.92ZM336.319 141.92H345.401L339.355 137.7H330.273L336.319 141.92ZM311.066 146.761H320.148L314.095 142.54H305.013L311.066 146.761ZM321.797 146.761H330.879L324.834 142.54H315.751L321.797 146.761ZM332.535 146.761H341.617L335.565 142.54H326.482L332.535 146.761ZM343.266 146.761H352.348L346.296 142.54H337.214L343.266 146.761ZM318.013 151.602H327.095L321.043 147.381H311.96L318.013 151.602ZM328.744 151.602H337.827L331.774 147.381H322.692L328.744 151.602ZM339.475 151.602H348.558L342.505 147.381H333.423L339.475 151.602ZM350.206 151.602H359.289L353.236 147.381H344.161L350.206 151.602ZM324.953 156.449H334.036L327.983 152.229H318.901L324.953 156.449ZM335.685 156.449H344.767L338.714 152.229H329.632L335.685 156.449ZM346.416 156.449H355.498L349.453 152.229H340.37L346.416 156.449ZM351.101 152.229H360.184L366.236 156.449H357.154L351.101 152.229Z" fill="#5C7997"/>
<path d="M389.939 604.987H362.191V164.623H389.939V604.987Z" fill="#D6A55F"/>
<path d="M362.194 604.987H226.832V164.623H362.194V604.987Z" fill="#EDCC94"/>
<path d="M392.588 166.794H362.191V157.747H392.588V166.794Z" fill="#DCEFF4"/>
<path d="M362.193 166.794H222.851V157.747H362.193V166.794Z" fill="#F4F8FB"/>
<path d="M387.889 297.689H384.592V310.294H387.889V297.689ZM381.83 297.689H378.532V310.294H381.83V297.689ZM375.77 297.689H372.473V310.294H375.77V297.689ZM369.711 297.689H366.413V310.294H369.711V297.689ZM387.889 279.644H384.592V292.256H387.889V279.644ZM381.83 279.644H378.532V292.256H381.83V279.644ZM375.77 279.644H372.473V292.256H375.77V279.644ZM369.711 279.644H366.413V292.256H369.711V279.644ZM387.889 261.606H384.592V274.211H387.889V261.606ZM381.83 261.606H378.532V274.211H381.83V261.606ZM375.77 261.606H372.473V274.211H375.77V261.606ZM369.711 261.606H366.413V274.211H369.711V261.606ZM387.889 243.568H384.592V256.174H387.889V243.568ZM381.83 243.568H378.532V256.174H381.83V243.568ZM375.77 243.568H372.473V256.174H375.77V243.568ZM369.711 243.568H366.413V256.174H369.711V243.568ZM387.889 225.53H384.592V238.136H387.889V225.53ZM381.83 225.53H378.532V238.136H381.83V225.53ZM375.77 225.53H372.473V238.136H375.77V225.53ZM369.711 225.53H366.413V238.136H369.711V225.53ZM387.889 207.485H384.592V220.091H387.889V207.485ZM381.83 207.485H378.532V220.091H381.83V207.485ZM375.77 207.485H372.473V220.091H375.77V207.485ZM369.711 207.485H366.413V220.091H369.711V207.485ZM387.889 189.448H384.592V202.053H387.889V189.448ZM381.83 189.448H378.532V202.053H381.83V189.448ZM375.77 189.448H372.473V202.053H375.77V189.448ZM369.711 189.448H366.413V202.053H369.711V189.448ZM387.889 171.41H384.592V184.015H387.889V171.41ZM381.83 171.41H378.532V184.015H381.83V171.41ZM375.77 171.41H372.473V184.015H375.77V171.41ZM369.711 184.015H366.413V171.41H369.711V184.015Z" fill="#0495F8"/>
<path d="M387.889 441.863H384.592V454.468H387.889V441.863ZM381.83 441.863H378.532V454.468H381.83V441.863ZM375.77 441.863H372.473V454.468H375.77V441.863ZM369.711 441.863H366.413V454.468H369.711V441.863ZM387.889 423.818H384.592V436.423H387.889V423.818ZM381.83 423.818H378.532V436.423H381.83V423.818ZM375.77 423.818H372.473V436.423H375.77V423.818ZM369.711 423.818H366.413V436.423H369.711V423.818ZM387.889 405.78H384.592V418.385H387.889V405.78ZM381.83 405.78H378.532V418.385H381.83V405.78ZM375.77 405.78H372.473V418.385H375.77V405.78ZM369.711 405.78H366.413V418.385H369.711V405.78ZM387.889 387.742H384.592V400.347H387.889V387.742ZM381.83 387.742H378.532V400.347H381.83V387.742ZM375.77 387.742H372.473V400.347H375.77V387.742ZM369.711 387.742H366.413V400.347H369.711V387.742ZM387.889 369.697H384.592V382.302H387.889V369.697ZM381.83 369.697H378.532V382.302H381.83V369.697ZM375.77 369.697H372.473V382.302H375.77V369.697ZM369.711 369.697H366.413V382.302H369.711V369.697ZM387.889 351.659H384.592V364.265H387.889V351.659ZM381.83 351.659H378.532V364.265H381.83V351.659ZM375.77 351.659H372.473V364.265H375.77V351.659ZM369.711 351.659H366.413V364.265H369.711V351.659ZM387.889 333.621H384.592V346.227H387.889V333.621ZM381.83 333.621H378.532V346.227H381.83V333.621ZM375.77 333.621H372.473V346.227H375.77V333.621ZM369.711 333.621H366.413V346.227H369.711V333.621ZM387.889 315.577H384.592V328.182H387.889V315.577ZM381.83 315.577H378.532V328.182H381.83V315.577ZM375.77 315.577H372.473V328.182H375.77V315.577ZM369.711 328.182H366.413V315.577H369.711V328.182Z" fill="#0495F8"/>
<path d="M264.139 586.032H256.17V598.644H264.139V586.032ZM264.139 567.994H256.17V580.599H264.139V567.994ZM264.139 549.956H256.17V562.561H264.139V549.956ZM264.139 531.911H256.17V544.523H264.139V531.911ZM264.139 513.873H256.17V526.478H264.139V513.873ZM264.139 495.835H256.17V508.441H264.139V495.835ZM264.139 477.79H256.17V490.403H264.139V477.79ZM264.139 472.358H256.17V459.753H264.139V472.358ZM298.193 586.032H290.224V598.644H298.193V586.032ZM298.193 567.994H290.224V580.599H298.193V567.994ZM298.193 549.956H290.224V562.561H298.193V549.956ZM298.193 531.911H290.224V544.523H298.193V531.911ZM298.193 513.873H290.224V526.478H298.193V513.873ZM298.193 495.835H290.224V508.441H298.193V495.835ZM298.193 477.79H290.224V490.403H298.193V477.79ZM298.193 472.358H290.224V459.753H298.193V472.358ZM332.789 586.032H324.82V598.644H332.789V586.032ZM332.789 567.994H324.82V580.599H332.789V567.994ZM332.789 549.956H324.82V562.561H332.789V549.956ZM332.789 531.911H324.82V544.523H332.789V531.911ZM332.789 513.873H324.82V526.478H332.789V513.873ZM332.789 495.835H324.82V508.441H332.789V495.835ZM332.789 477.79H324.82V490.403H332.789V477.79ZM332.789 472.358H324.82V459.753H332.789V472.358ZM355.223 586.032H336.572V598.644H355.223V586.032ZM320.937 586.032H302.286V598.644H320.937V586.032ZM286.651 586.032H268V598.644H286.651V586.032ZM252.365 586.032H233.714V598.644H252.365V586.032ZM355.223 567.994H336.572V580.599H355.223V567.994ZM320.937 567.994H302.286V580.599H320.937V567.994ZM286.651 567.994H268V580.599H286.651V567.994ZM252.365 567.994H233.714V580.599H252.365V567.994ZM355.223 549.956H336.572V562.561H355.223V549.956ZM320.937 549.956H302.286V562.561H320.937V549.956ZM286.651 549.956H268V562.561H286.651V549.956ZM252.365 549.956H233.714V562.561H252.365V549.956ZM355.223 531.911H336.572V544.523H355.223V531.911ZM320.937 531.911H302.286V544.523H320.937V531.911ZM286.651 531.911H268V544.523H286.651V531.911ZM252.365 531.911H233.714V544.523H252.365V531.911ZM355.223 513.873H336.572V526.478H355.223V513.873ZM320.937 513.873H302.286V526.478H320.937V513.873ZM286.651 513.873H268V526.478H286.651V513.873ZM252.365 513.873H233.714V526.478H252.365V513.873ZM355.223 495.835H336.572V508.441H355.223V495.835ZM320.937 495.835H302.286V508.441H320.937V495.835ZM286.651 495.835H268V508.441H286.651V495.835ZM252.365 495.835H233.714V508.441H252.365V495.835ZM355.223 477.79H336.572V490.403H355.223V477.79ZM320.937 477.79H302.286V490.403H320.937V477.79ZM286.651 477.79H268V490.403H286.651V477.79ZM252.365 477.79H233.714V490.403H252.365V477.79ZM355.223 459.753H336.572V472.358H355.223V459.753ZM320.937 459.753H302.286V472.358H320.937V459.753ZM286.651 459.753H268V472.358H286.651V459.753ZM252.365 472.358H233.714V459.753H252.365V472.358ZM264.139 441.863H256.17V454.468H264.139V441.863ZM264.139 423.818H256.17V436.423H264.139V423.818ZM264.139 405.78H256.17V418.385H264.139V405.78ZM264.139 387.742H256.17V400.347H264.139V387.742ZM264.139 369.697H256.17V382.302H264.139V369.697ZM264.139 351.659H256.17V364.265H264.139V351.659ZM264.139 333.621H256.17V346.227H264.139V333.621ZM264.139 328.182H256.17V315.576H264.139V328.182ZM298.193 441.863H290.224V454.468H298.193V441.863ZM298.193 423.818H290.224V436.423H298.193V423.818ZM298.193 405.78H290.224V418.385H298.193V405.78ZM298.193 387.742H290.224V400.347H298.193V387.742ZM298.193 369.697H290.224V382.302H298.193V369.697ZM298.193 351.659H290.224V364.265H298.193V351.659ZM298.193 333.621H290.224V346.227H298.193V333.621ZM298.193 328.182H290.224V315.576H298.193V328.182ZM332.789 441.863H324.82V454.468H332.789V441.863ZM332.789 423.818H324.82V436.423H332.789V423.818ZM332.789 405.78H324.82V418.385H332.789V405.78ZM332.789 387.742H324.82V400.347H332.789V387.742ZM332.789 369.697H324.82V382.302H332.789V369.697ZM332.789 351.659H324.82V364.265H332.789V351.659ZM332.789 333.621H324.82V346.227H332.789V333.621ZM332.789 328.182H324.82V315.576H332.789V328.182ZM355.223 441.863H336.572V454.468H355.223V441.863ZM320.937 441.863H302.286V454.468H320.937V441.863ZM286.651 441.863H268V454.468H286.651V441.863ZM252.365 441.863H233.714V454.468H252.365V441.863ZM355.223 423.818H336.572V436.423H355.223V423.818ZM320.937 423.818H302.286V436.423H320.937V423.818ZM286.651 423.818H268V436.423H286.651V423.818ZM252.365 423.818H233.714V436.423H252.365V423.818ZM355.223 405.78H336.572V418.385H355.223V405.78ZM320.937 405.78H302.286V418.385H320.937V405.78ZM286.651 405.78H268V418.385H286.651V405.78ZM252.365 405.78H233.714V418.385H252.365V405.78ZM355.223 387.742H336.572V400.347H355.223V387.742ZM320.937 387.742H302.286V400.347H320.937V387.742ZM286.651 387.742H268V400.347H286.651V387.742ZM252.365 387.742H233.714V400.347H252.365V387.742ZM355.223 369.697H336.572V382.302H355.223V369.697ZM320.937 369.697H302.286V382.302H320.937V369.697ZM286.651 369.697H268V382.302H286.651V369.697ZM252.365 369.697H233.714V382.302H252.365V369.697ZM355.223 351.659H336.572V364.265H355.223V351.659ZM320.937 351.659H302.286V364.265H320.937V351.659ZM286.651 351.659H268V364.265H286.651V351.659ZM252.365 351.659H233.714V364.265H252.365V351.659ZM355.223 333.621H336.572V346.227H355.223V333.621ZM320.937 333.621H302.286V346.227H320.937V333.621ZM286.651 333.621H268V346.227H286.651V333.621ZM252.365 333.621H233.714V346.227H252.365V333.621ZM355.223 315.576H336.572V328.182H355.223V315.576ZM320.937 315.576H302.286V328.182H320.937V315.576ZM286.651 315.576H268V328.182H286.651V315.576ZM252.365 328.182H233.714V315.576H252.365V328.182ZM264.139 297.687H256.17V310.292H264.139V297.687ZM264.139 279.642H256.17V292.254H264.139V279.642ZM264.139 261.604H256.17V274.209H264.139V261.604ZM264.139 243.566H256.17V256.171H264.139V243.566ZM264.139 225.528H256.17V238.133H264.139V225.528ZM264.139 207.483H256.17V220.089H264.139V207.483ZM264.139 189.445H256.17V202.051H264.139V189.445ZM264.139 184.013H256.17V171.407H264.139V184.013ZM298.193 297.687H290.224V310.292H298.193V297.687ZM298.193 279.642H290.224V292.254H298.193V279.642ZM298.193 261.604H290.224V274.209H298.193V261.604ZM298.193 243.566H290.224V256.171H298.193V243.566ZM298.193 225.528H290.224V238.133H298.193V225.528ZM298.193 207.483H290.224V220.089H298.193V207.483ZM298.193 189.445H290.224V202.051H298.193V189.445ZM298.193 184.013H290.224V171.407H298.193V184.013ZM332.789 297.687H324.82V310.292H332.789V297.687ZM332.789 279.642H324.82V292.254H332.789V279.642ZM332.789 261.604H324.82V274.209H332.789V261.604ZM332.789 243.566H324.82V256.171H332.789V243.566ZM332.789 225.528H324.82V238.133H332.789V225.528ZM332.789 207.483H324.82V220.089H332.789V207.483ZM332.789 189.445H324.82V202.051H332.789V189.445ZM332.789 184.013H324.82V171.407H332.789V184.013ZM355.223 297.687H336.572V310.292H355.223V297.687ZM320.937 297.687H302.286V310.292H320.937V297.687ZM286.651 297.687H268V310.292H286.651V297.687ZM252.365 297.687H233.714V310.292H252.365V297.687ZM355.223 279.642H336.572V292.254H355.223V279.642ZM320.937 279.642H302.286V292.254H320.937V279.642ZM286.651 279.642H268V292.254H286.651V279.642ZM252.365 279.642H233.714V292.254H252.365V279.642ZM355.223 261.604H336.572V274.209H355.223V261.604ZM320.937 261.604H302.286V274.209H320.937V261.604ZM286.651 261.604H268V274.209H286.651V261.604ZM252.365 261.604H233.714V274.209H252.365V261.604ZM355.223 243.566H336.572V256.171H355.223V243.566ZM320.937 243.566H302.286V256.171H320.937V243.566ZM286.651 243.566H268V256.171H286.651V243.566ZM252.365 243.566H233.714V256.171H252.365V243.566ZM355.223 225.528H336.572V238.133H355.223V225.528ZM320.937 225.528H302.286V238.133H320.937V225.528ZM286.651 225.528H268V238.133H286.651V225.528ZM252.365 225.528H233.714V238.133H252.365V225.528ZM355.223 207.483H336.572V220.089H355.223V207.483ZM320.937 207.483H302.286V220.089H320.937V207.483ZM286.651 207.483H268V220.089H286.651V207.483ZM252.365 207.483H233.714V220.089H252.365V207.483ZM355.223 189.445H336.572V202.051H355.223V189.445ZM320.937 189.445H302.286V202.051H320.937V189.445ZM286.651 189.445H268V202.051H286.651V189.445ZM252.365 189.445H233.714V202.051H252.365V189.445ZM355.223 171.407H336.572V184.013H355.223V171.407ZM320.937 171.407H302.286V184.013H320.937V171.407ZM286.651 171.407H268V184.013H286.651V171.407ZM252.365 184.013H233.714V171.407H252.365V184.013Z" fill="url(#paint2_linear)"/>
<path d="M387.889 586.032H384.592V598.644H387.889V586.032ZM381.83 586.032H378.532V598.644H381.83V586.032ZM375.77 586.032H372.473V598.644H375.77V586.032ZM369.711 586.032H366.413V598.644H369.711V586.032ZM387.889 567.994H384.592V580.599H387.889V567.994ZM381.83 567.994H378.532V580.599H381.83V567.994ZM375.77 567.994H372.473V580.599H375.77V567.994ZM369.711 567.994H366.413V580.599H369.711V567.994ZM387.889 549.956H384.592V562.561H387.889V549.956ZM381.83 549.956H378.532V562.561H381.83V549.956ZM375.77 549.956H372.473V562.561H375.77V549.956ZM369.711 549.956H366.413V562.561H369.711V549.956ZM387.889 531.911H384.592V544.523H387.889V531.911ZM381.83 531.911H378.532V544.523H381.83V531.911ZM375.77 531.911H372.473V544.523H375.77V531.911ZM369.711 531.911H366.413V544.523H369.711V531.911ZM387.889 513.873H384.592V526.478H387.889V513.873ZM381.83 513.873H378.532V526.478H381.83V513.873ZM375.77 513.873H372.473V526.478H375.77V513.873ZM369.711 513.873H366.413V526.478H369.711V513.873ZM387.889 495.835H384.592V508.441H387.889V495.835ZM381.83 495.835H378.532V508.441H381.83V495.835ZM375.77 495.835H372.473V508.441H375.77V495.835ZM369.711 495.835H366.413V508.441H369.711V495.835ZM387.889 477.79H384.592V490.403H387.889V477.79ZM381.83 477.79H378.532V490.403H381.83V477.79ZM375.77 477.79H372.473V490.403H375.77V477.79ZM369.711 477.79H366.413V490.403H369.711V477.79ZM387.889 459.753H384.592V472.358H387.889V459.753ZM381.83 459.753H378.532V472.358H381.83V459.753ZM375.77 459.753H372.473V472.358H375.77V459.753ZM369.711 472.358H366.413V459.753H369.711V472.358Z" fill="#0495F8"/>
<path d="M634.811 604.987V226.931H611.39V604.987H634.811Z" fill="#C2934F"/>
<path d="M611.39 604.987V226.931H553.155V604.987H611.39Z" fill="#D9B880"/>
<path d="M637.052 230.082H611.39V216.962H637.052V230.082Z" fill="#C2DAE0"/>
<path d="M611.391 230.082H549.893V216.962H611.391V230.082Z" fill="#F4F8FB"/>
<path d="M634.944 333.912H611.305V352.196H634.944V333.912Z" fill="#0087E4"/>
<path d="M634.944 309.145H611.305V327.423H634.944V309.145Z" fill="#0087E4"/>
<path d="M634.944 358.685H611.305V376.962H634.944V358.685Z" fill="#0087E4"/>
<path d="M634.944 259.603H611.305V277.88H634.944V259.603Z" fill="#0087E4"/>
<path d="M634.944 234.829H611.305V253.114H634.944V234.829Z" fill="#0087E4"/>
<path d="M634.944 284.372H611.305V302.656H634.944V284.372Z" fill="#0087E4"/>
<path d="M634.944 383.452H611.305V401.736H634.944V383.452Z" fill="#0087E4"/>
<path d="M634.944 482.534H611.305V500.818H634.944V482.534Z" fill="#0087E4"/>
<path d="M634.944 408.225H611.305V426.502H634.944V408.225Z" fill="#0087E4"/>
<path d="M634.944 581.614H611.305V599.898H634.944V581.614Z" fill="#0087E4"/>
<path d="M634.944 532.074H611.305V550.358H634.944V532.074Z" fill="#0087E4"/>
<path d="M634.944 556.847H611.305V575.125H634.944V556.847Z" fill="#0087E4"/>
<path d="M634.944 507.307H611.305V525.585H634.944V507.307Z" fill="#0087E4"/>
<path d="M634.944 432.991H611.305V451.276H634.944V432.991Z" fill="#0087E4"/>
<path d="M634.944 457.767H611.305V476.045H634.944V457.767Z" fill="#0087E4"/>
<path d="M611.306 383.452H553V401.736H611.306V383.452Z" fill="url(#paint3_linear)"/>
<path d="M611.306 309.145H553V327.423H611.306V309.145Z" fill="url(#paint4_linear)"/>
<path d="M611.306 581.614H553V599.898H611.306V581.614Z" fill="url(#paint5_linear)"/>
<path d="M611.306 333.912H553V352.196H611.306V333.912Z" fill="url(#paint6_linear)"/>
<path d="M611.306 234.829H553V253.114H611.306V234.829Z" fill="url(#paint7_linear)"/>
<path d="M611.306 284.372H553V302.656H611.306V284.372Z" fill="url(#paint8_linear)"/>
<path d="M611.306 259.603H553V277.88H611.306V259.603Z" fill="url(#paint9_linear)"/>
<path d="M611.306 358.685H553V376.962H611.306V358.685Z" fill="url(#paint10_linear)"/>
<path d="M611.306 532.074H553V550.358H611.306V532.074Z" fill="url(#paint11_linear)"/>
<path d="M611.306 556.847H553V575.125H611.306V556.847Z" fill="url(#paint12_linear)"/>
<path d="M611.306 507.307H553V525.585H611.306V507.307Z" fill="url(#paint13_linear)"/>
<path d="M611.306 482.534H553V500.818H611.306V482.534Z" fill="url(#paint14_linear)"/>
<path d="M611.306 432.991H553V451.276H611.306V432.991Z" fill="url(#paint15_linear)"/>
<path d="M611.306 408.225H553V426.502H611.306V408.225Z" fill="url(#paint16_linear)"/>
<path d="M611.306 457.767H553V476.045H611.306V457.767Z" fill="url(#paint17_linear)"/>
<path d="M632.704 216.883H602.983V196.337L618.802 189.27L632.704 216.883Z" fill="#C2934F"/>
<path d="M606.915 215.805C606.598 216.481 605.597 217.031 604.695 217.031H556.402C555.493 217.031 555.021 216.481 555.338 215.805L567.38 190.22C567.697 189.537 568.69 188.987 569.599 188.987H617.886C618.795 188.987 619.274 189.537 618.957 190.22L606.915 215.805Z" fill="#596976"/>
<path d="M566.225 196.323L569.093 190.221H580.106L577.231 196.323H566.225ZM578.528 196.323L581.396 190.221H592.409L589.534 196.323H578.528ZM590.83 196.323L593.698 190.221H604.711L601.836 196.323H590.83ZM603.133 196.323L606 190.221H617.013L614.139 196.323H603.133ZM563.168 202.819L566.042 196.71H577.048L574.181 202.819H563.168ZM575.47 202.819L578.345 196.71H589.351L586.476 202.819H575.47ZM587.772 202.819L590.647 196.71H601.653L598.778 202.819H587.772ZM600.075 202.819L602.95 196.71H613.955L611.081 202.819H600.075ZM560.117 209.308L562.984 203.207H573.997L571.122 209.308H560.117ZM572.419 209.308L575.287 203.207H586.3L583.425 209.308H572.419ZM584.721 209.308L587.589 203.207H598.602L595.727 209.308H584.721ZM597.017 209.308L599.891 203.207H610.897L608.03 209.308H597.017ZM557.059 215.805L559.933 209.696H570.939L568.065 215.805H557.059ZM569.361 215.805L572.236 209.696H583.242L580.367 215.805H569.361ZM581.663 215.805L584.538 209.696H595.544L592.669 215.805H581.663ZM593.966 215.805L596.84 209.696H607.846L604.972 215.805H593.966Z" fill="#78B2BD"/>
<path d="M616.603 190.44H606.196L603.532 196.098H613.939L616.603 190.44ZM604.301 190.44H593.894L591.23 196.098H601.644L604.301 190.44ZM591.998 190.44H581.591L578.928 196.098H589.342L591.998 190.44ZM579.696 190.44H569.289L566.625 196.098H577.039L579.696 190.44ZM613.552 196.937H603.138L600.475 202.595H610.889L613.552 196.937ZM601.25 196.937H590.836L588.172 202.595H598.586L601.25 196.937ZM588.947 196.937H578.533L575.877 202.595H586.284L588.947 196.937ZM576.645 196.937H566.231L563.574 202.595H573.981L576.645 196.937ZM610.494 203.426H600.087L597.424 209.084H607.831L610.494 203.426ZM598.192 203.426H587.785L585.121 209.084H595.528L598.192 203.426ZM585.889 203.426H575.482L572.819 209.084H583.226L585.889 203.426ZM573.587 203.426H563.18L560.517 209.084H570.924L573.587 203.426ZM607.443 209.923H597.029L594.366 215.581H604.78L607.443 209.923ZM595.141 209.923H584.727L582.063 215.581H592.477L595.141 209.923ZM582.838 209.923H572.424L569.761 215.581H580.175L582.838 209.923ZM567.873 215.581H557.458L560.122 209.923H570.536L567.873 215.581Z" fill="#5C7997"/>
<path d="M110.979 604.522L109.972 588.479H107.224L106.054 604.522H110.979Z" fill="#79442B"/>
<path d="M128.947 578.247C128.947 576.401 127.764 574.844 126.115 574.259L126.432 572.547C126.432 570.278 124.945 568.375 122.909 567.699L122.951 567.227C122.951 565.416 121.486 563.944 119.668 563.944H119.252L119.668 562.492C119.668 560.949 118.414 559.695 116.863 559.695H104.547C103.004 559.695 101.75 560.949 101.75 562.492L102.158 563.944H99.2344C97.4165 563.944 95.9509 565.416 95.9509 567.227L96.0213 567.91C94.2739 568.721 93.0479 570.489 93.0479 572.547C93.0479 573.935 93.6116 575.196 94.5135 576.119H94.1119C92.7802 576.119 91.6951 577.204 91.6951 578.536C91.6951 579.868 92.7802 580.953 94.1119 580.953H94.8024C94.436 581.439 94.2106 582.038 94.2106 582.693C94.2106 584.173 95.3309 585.385 96.7612 585.554L96.7189 585.977C96.7189 588.006 98.3676 589.647 100.397 589.647H100.411C100.467 590.831 101.426 591.775 102.616 591.775H119.379C120.605 591.775 121.599 590.782 121.599 589.549L121.295 588.485H122.662C123.783 588.485 124.692 587.583 124.692 586.456C124.692 585.765 124.325 585.18 123.79 584.814H124.79C125.699 584.814 126.432 584.081 126.432 583.172L126.101 582.242C127.757 581.657 128.947 580.093 128.947 578.247Z" fill="#5F8012"/>
<path d="M120.597 578.247C120.597 576.401 119.413 574.844 117.764 574.259L118.081 572.547C118.081 570.278 116.595 568.375 114.551 567.699L114.601 567.227C114.601 565.416 113.128 563.944 111.317 563.944H110.901L111.317 562.492C111.317 560.949 110.063 559.695 108.513 559.695H102.524C100.973 559.695 99.7193 560.949 99.7193 562.492L100.135 563.944H97.2109C95.3931 563.944 93.9204 565.416 93.9204 567.227L93.9979 567.91C92.2434 568.721 91.0245 570.489 91.0245 572.547C91.0245 573.935 91.5811 575.196 92.483 576.119H92.0885C90.7497 576.119 89.6716 577.204 89.6716 578.536C89.6716 579.868 90.7497 580.953 92.0885 580.953H92.779C92.4126 581.439 92.1801 582.038 92.1801 582.693C92.1801 584.173 93.3004 585.385 94.7378 585.554L94.6955 585.977C94.6955 588.006 96.3372 589.647 98.3664 589.647H98.3876C98.4439 590.831 99.3952 591.775 100.593 591.775H111.028C112.254 591.775 113.248 590.782 113.248 589.549L112.945 588.485H114.312C115.432 588.485 116.341 587.583 116.341 586.456C116.341 585.765 115.967 585.18 115.439 584.814H116.44C117.348 584.814 118.081 584.081 118.081 583.172L117.75 582.242C119.406 581.657 120.597 580.093 120.597 578.247Z" fill="#709114"/>
<path d="M58.1005 604.522L56.8885 582.081H53.5628L52.1536 604.522H58.1005Z" fill="#79442B"/>
<path d="M83.8549 567.404C83.8549 564.79 82.185 562.592 79.8528 561.76C80.1276 560.999 80.3037 560.189 80.3037 559.337C80.3037 556.124 78.2039 553.432 75.308 552.481L75.3786 551.811C75.3786 549.24 73.2929 547.161 70.7281 547.161H70.1363C70.5027 546.562 70.7281 545.865 70.7281 545.111C70.7281 542.919 68.9525 541.137 66.7612 541.137H49.3222C47.1309 541.137 45.3553 542.919 45.3553 545.111C45.3553 545.865 45.5738 546.562 45.9402 547.161H41.7971C39.2323 547.161 37.1467 549.24 37.1467 551.811L37.2524 552.777C34.7722 553.925 33.0459 556.42 33.0459 559.337C33.0459 561.309 33.8351 563.092 35.1104 564.396H34.5467C32.6584 564.396 31.1294 565.925 31.1294 567.813C31.1294 569.708 32.6584 571.237 34.5467 571.237H35.5261C35.0047 571.921 34.6877 572.773 34.6877 573.696C34.6877 575.796 36.2659 577.508 38.3022 577.755L38.2388 578.347C38.2388 581.222 40.5711 583.547 43.4388 583.547H43.467C43.5445 585.217 44.8973 586.555 46.5884 586.555H70.3124C72.0528 586.555 73.462 585.146 73.462 583.413L73.0251 581.905H74.9628C76.5552 581.905 77.8376 580.623 77.8376 579.037C77.8376 578.051 77.3162 577.226 76.5622 576.705H77.9785C79.2609 576.705 80.3037 575.669 80.3037 574.38L79.8387 573.062C82.1709 572.231 83.8549 570.025 83.8549 567.404Z" fill="#5F8012"/>
<path d="M72.0371 567.404C72.0371 564.79 70.3601 562.592 68.035 561.76C68.3027 560.999 68.4789 560.189 68.4789 559.337C68.4789 556.124 66.3791 553.432 63.4902 552.481L63.5537 551.811C63.5537 549.24 61.4751 547.161 58.9033 547.161H58.3184C58.6778 546.562 58.9033 545.865 58.9033 545.111C58.9033 542.919 57.1277 541.137 54.9364 541.137H46.4529C44.2616 541.137 42.486 542.919 42.486 545.111C42.486 545.865 42.7114 546.562 43.0708 547.161H38.9277C36.363 547.161 34.2774 549.24 34.2774 551.811L34.3831 552.777C31.9029 553.925 30.1766 556.42 30.1766 559.337C30.1766 561.309 30.9657 563.092 32.241 564.396H31.6774C29.7891 564.396 28.26 565.925 28.26 567.813C28.26 569.708 29.7891 571.237 31.6774 571.237H32.6568C32.1354 571.921 31.8183 572.773 31.8183 573.696C31.8183 575.796 33.3966 577.508 35.4329 577.755L35.3766 578.347C35.3766 581.222 37.7018 583.547 40.5695 583.547H40.5976C40.6751 585.217 42.028 586.555 43.7191 586.555H58.4946C60.2279 586.555 61.6372 585.146 61.6372 583.413L61.2002 581.905H63.145C64.7303 581.905 66.0198 580.623 66.0198 579.037C66.0198 578.051 65.4913 577.226 64.7374 576.705H66.1536C67.436 576.705 68.4789 575.669 68.4789 574.38L68.0138 573.062C70.3531 572.231 72.0371 570.025 72.0371 567.404Z" fill="#709114"/>
<path d="M84.7974 604.522L83.7968 577.395H81.0488L79.8792 604.522H84.7974Z" fill="#79442B"/>
<path d="M102.765 567.157C102.765 565.311 101.582 563.76 99.94 563.169L100.257 561.456C100.257 559.188 98.7703 557.292 96.727 556.616L96.7763 556.144C96.7763 554.326 95.3037 552.86 93.4928 552.86H93.0772L93.4928 551.409C93.4928 549.859 92.2387 548.604 90.6885 548.604H78.3721C76.8219 548.604 75.5677 549.859 75.5677 551.409L75.9835 552.86H73.0593C71.2415 552.86 69.7688 554.326 69.7688 556.144L69.8463 556.827C68.0918 557.637 66.8729 559.399 66.8729 561.456C66.8729 562.852 67.4296 564.113 68.3315 565.036H67.9368C66.5981 565.036 65.52 566.114 65.52 567.453C65.52 568.784 66.5981 569.862 67.9368 569.862H68.6273C68.261 570.349 68.0355 570.947 68.0355 571.603C68.0355 573.089 69.1488 574.294 70.5862 574.47L70.5438 574.893C70.5438 576.915 72.1856 578.564 74.2149 578.564H74.236C74.2923 579.741 75.2436 580.685 76.4414 580.685H93.2039C94.4299 580.685 95.4235 579.692 95.4235 578.466L95.1134 577.402H96.4874C97.6077 577.402 98.5167 576.493 98.5167 575.372C98.5167 574.682 98.1432 574.097 97.6148 573.731H98.6153C99.5172 573.731 100.257 572.998 100.257 572.089L99.9259 571.152C101.575 570.567 102.765 569.01 102.765 567.157Z" fill="#5F8012"/>
<path d="M94.4148 567.157C94.4148 565.311 93.2311 563.76 91.5894 563.169L91.9065 561.456C91.9065 559.188 90.4198 557.292 88.3764 556.616L88.4257 556.144C88.4257 554.326 86.9532 552.86 85.1423 552.86H84.7265L85.1423 551.409C85.1423 549.859 83.8881 548.604 82.3379 548.604H76.3488C74.7987 548.604 73.5445 549.859 73.5445 551.409L73.9603 552.86H71.0291C69.2183 552.86 67.7456 554.326 67.7456 556.144L67.8161 556.827C66.0686 557.637 64.8497 559.399 64.8497 561.456C64.8497 562.852 65.4063 564.113 66.3082 565.036H65.9066C64.5749 565.036 63.4968 566.114 63.4968 567.453C63.4968 568.784 64.5749 569.862 65.9066 569.862H66.5971C66.2307 570.349 66.0053 570.947 66.0053 571.603C66.0053 573.089 67.1256 574.294 68.563 574.47L68.5207 574.893C68.5207 576.915 70.1624 578.564 72.1917 578.564H72.2128C72.2621 579.741 73.2204 580.685 74.4111 580.685H84.8464C86.0794 580.685 87.0729 579.692 87.0729 578.466L86.7629 577.402H88.1369C89.2572 577.402 90.1662 576.493 90.1662 575.372C90.1662 574.682 89.7927 574.097 89.2642 573.731H90.2578C91.1667 573.731 91.9065 572.998 91.9065 572.089L91.5754 571.152C93.2241 570.567 94.4148 569.01 94.4148 567.157Z" fill="#8BB43D"/>
<path d="M143.913 604.522L142.913 585.963H140.165L138.995 604.522H143.913Z" fill="#79442B"/>
<path d="M165.214 573.83C165.214 571.667 163.833 569.842 161.91 569.158C162.128 568.524 162.276 567.855 162.276 567.15C162.276 564.494 160.536 562.267 158.147 561.478L158.203 560.928C158.203 558.807 156.477 557.081 154.356 557.081H153.87L154.356 555.383C154.356 553.572 152.884 552.107 151.073 552.107H136.657C134.846 552.107 133.373 553.572 133.373 555.383L133.859 557.081H130.435C128.307 557.081 126.588 558.807 126.588 560.928L126.672 561.725C124.622 562.676 123.192 564.74 123.192 567.15C123.192 568.785 123.847 570.257 124.904 571.335H124.439C122.874 571.335 121.606 572.604 121.606 574.168C121.606 575.725 122.874 576.993 124.439 576.993H125.242C124.812 577.564 124.551 578.262 124.551 579.03C124.551 580.77 125.855 582.179 127.539 582.383L127.49 582.877C127.49 585.251 129.413 587.175 131.788 587.175H131.816C131.872 588.556 132.993 589.662 134.395 589.662H154.018C155.455 589.662 156.618 588.499 156.618 587.062L156.259 585.822H157.865C159.176 585.822 160.24 584.758 160.24 583.44C160.24 582.63 159.803 581.947 159.183 581.517H160.352C161.416 581.517 162.276 580.657 162.276 579.593L161.888 578.501C163.826 577.818 165.214 575.993 165.214 573.83Z" fill="#5F8012"/>
<path d="M155.44 573.83C155.44 571.667 154.051 569.842 152.128 569.158C152.353 568.524 152.494 567.855 152.494 567.15C152.494 564.494 150.761 562.267 148.372 561.478L148.422 560.928C148.422 558.807 146.702 557.081 144.582 557.081H144.095L144.582 555.383C144.582 553.572 143.109 552.107 141.298 552.107H134.28C132.47 552.107 131.004 553.572 131.004 555.383L131.49 557.081H128.059C125.938 557.081 124.212 558.807 124.212 560.928L124.296 561.725C122.246 562.676 120.822 564.74 120.822 567.15C120.822 568.785 121.478 570.257 122.535 571.335H122.062C120.505 571.335 119.237 572.604 119.237 574.168C119.237 575.725 120.505 576.993 122.062 576.993H122.873C122.443 577.564 122.175 578.262 122.175 579.03C122.175 580.77 123.486 582.179 125.17 582.383L125.12 582.877C125.12 585.251 127.044 587.175 129.419 587.175H129.44C129.503 588.556 130.623 589.662 132.018 589.662H144.236C145.674 589.662 146.843 588.499 146.843 587.062L146.477 585.822H148.084C149.394 585.822 150.458 584.758 150.458 583.44C150.458 582.63 150.028 581.947 149.401 581.517H150.578C151.635 581.517 152.494 580.657 152.494 579.593L152.114 578.501C154.044 577.818 155.44 575.993 155.44 573.83Z" fill="#8BB43D"/>
<path d="M209.496 604.522L208.221 564.374H204.733L203.261 604.522H209.496Z" fill="#79442B"/>
<path d="M232.263 551.409C232.263 549.07 230.763 547.097 228.677 546.357C228.924 545.674 229.079 544.948 229.079 544.187C229.079 541.312 227.197 538.902 224.611 538.05L224.668 537.451C224.668 535.154 222.808 533.287 220.511 533.287H219.982C220.306 532.751 220.511 532.124 220.511 531.448C220.511 529.489 218.918 527.897 216.959 527.897H201.345C199.387 527.897 197.794 529.489 197.794 531.448C197.794 532.124 197.999 532.751 198.323 533.287H194.616C192.312 533.287 190.452 535.154 190.452 537.451L190.544 538.311C188.324 539.346 186.774 541.58 186.774 544.187C186.774 545.948 187.486 547.548 188.627 548.718H188.12C186.436 548.718 185.062 550.085 185.062 551.776C185.062 553.467 186.436 554.841 188.12 554.841H189.001C188.529 555.454 188.247 556.215 188.247 557.046C188.247 558.92 189.663 560.456 191.481 560.675L191.432 561.21C191.432 563.775 193.51 565.861 196.082 565.861H196.11C196.174 567.354 197.386 568.552 198.9 568.552H220.137C221.694 568.552 222.956 567.291 222.956 565.741L222.568 564.388H224.301C225.725 564.388 226.873 563.239 226.873 561.816C226.873 560.942 226.408 560.203 225.732 559.738H227C228.149 559.738 229.079 558.808 229.079 557.659L228.663 556.468C230.756 555.728 232.263 553.756 232.263 551.409Z" fill="#5F8012"/>
<path d="M221.68 551.409C221.68 549.07 220.179 547.097 218.1 546.357C218.34 545.674 218.495 544.948 218.495 544.187C218.495 541.312 216.613 538.902 214.028 538.05L214.091 537.451C214.091 535.154 212.224 533.287 209.927 533.287H209.398C209.73 532.751 209.927 532.124 209.927 531.448C209.927 529.489 208.334 527.897 206.376 527.897H198.78C196.821 527.897 195.229 529.489 195.229 531.448C195.229 532.124 195.426 532.751 195.757 533.287H192.044C189.747 533.287 187.887 535.154 187.887 537.451L187.978 538.311C185.759 539.346 184.209 541.58 184.209 544.187C184.209 545.948 184.92 547.548 186.062 548.718H185.555C183.864 548.718 182.497 550.085 182.497 551.776C182.497 553.467 183.864 554.841 185.555 554.841H186.428C185.963 555.454 185.681 556.215 185.681 557.046C185.681 558.92 187.098 560.456 188.916 560.675L188.866 561.21C188.866 563.775 190.945 565.861 193.517 565.861H193.545C193.608 567.354 194.82 568.552 196.335 568.552H209.56C211.111 568.552 212.372 567.291 212.372 565.741L211.984 564.388H213.725C215.141 564.388 216.296 563.239 216.296 561.816C216.296 560.942 215.824 560.203 215.148 559.738H216.416C217.565 559.738 218.495 558.808 218.495 557.659L218.079 556.468C220.172 555.728 221.68 553.756 221.68 551.409Z" fill="#B9DD59"/>
<path d="M170.661 604.522L169.66 585.963H166.905L165.743 604.522H170.661Z" fill="#79442B"/>
<path d="M191.959 573.83C191.959 571.667 190.571 569.842 188.648 569.158C188.873 568.524 189.021 567.855 189.021 567.15C189.021 564.494 187.281 562.267 184.892 561.478L184.948 560.928C184.948 558.807 183.222 557.081 181.101 557.081H180.615L181.101 555.383C181.101 553.572 179.629 552.107 177.818 552.107H163.395C161.584 552.107 160.118 553.572 160.118 555.383L160.604 557.081H157.173C155.052 557.081 153.326 558.807 153.326 560.928L153.41 561.725C151.367 562.676 149.937 564.74 149.937 567.15C149.937 568.785 150.592 570.257 151.649 571.335H151.177C149.62 571.335 148.351 572.604 148.351 574.168C148.351 575.725 149.62 576.993 151.177 576.993H151.987C151.557 577.564 151.29 578.262 151.29 579.03C151.29 580.77 152.6 582.179 154.284 582.383L154.235 582.877C154.235 585.251 156.158 587.175 158.533 587.175H158.554C158.617 588.556 159.738 589.662 161.133 589.662H180.756C182.193 589.662 183.363 588.499 183.363 587.062L183.004 585.822H184.603C185.921 585.822 186.985 584.758 186.985 583.44C186.985 582.63 186.548 581.947 185.928 581.517H187.097C188.154 581.517 189.021 580.657 189.021 579.593L188.634 578.501C190.564 577.818 191.959 575.993 191.959 573.83Z" fill="#5F8012"/>
<path d="M182.187 573.83C182.187 571.667 180.799 569.842 178.875 569.158C179.101 568.524 179.242 567.855 179.242 567.15C179.242 564.494 177.509 562.267 175.113 561.478L175.169 560.928C175.169 558.807 173.45 557.081 171.322 557.081H170.836L171.322 555.383C171.322 553.572 169.857 552.107 168.046 552.107H161.028C159.217 552.107 157.744 553.572 157.744 555.383L158.231 557.081H154.806C152.678 557.081 150.959 558.807 150.959 560.928L151.044 561.725C148.993 562.676 147.563 564.74 147.563 567.15C147.563 568.785 148.218 570.257 149.275 571.335H148.81C147.246 571.335 145.978 572.604 145.978 574.168C145.978 575.725 147.246 576.993 148.81 576.993H149.613C149.184 577.564 148.923 578.262 148.923 579.03C148.923 580.77 150.233 582.179 151.91 582.383L151.861 582.877C151.861 585.251 153.792 587.175 156.166 587.175H156.187C156.251 588.556 157.371 589.662 158.766 589.662H170.984C172.421 589.662 173.584 588.499 173.584 587.062L173.225 585.822H174.831C176.142 585.822 177.206 584.758 177.206 583.44C177.206 582.63 176.776 581.947 176.149 581.517H177.318C178.382 581.517 179.242 580.657 179.242 579.593L178.861 578.501C180.792 577.818 182.187 575.993 182.187 573.83Z" fill="#B9DD59"/>
<path d="M217.192 604.522L216.184 588.479H213.436L212.266 604.522H217.192Z" fill="#79442B"/>
<path d="M235.159 578.247C235.159 576.401 233.975 574.844 232.327 574.259L232.644 572.547C232.644 570.278 231.157 568.375 229.121 567.699L229.163 567.227C229.163 565.416 227.697 563.944 225.88 563.944H225.464L225.88 562.492C225.88 560.949 224.625 559.695 223.075 559.695H210.759C209.216 559.695 207.961 560.949 207.961 562.492L208.37 563.944H205.446C203.635 563.944 202.163 565.416 202.163 567.227L202.233 567.91C200.486 568.721 199.26 570.489 199.26 572.547C199.26 573.935 199.823 575.196 200.725 576.119H200.324C198.992 576.119 197.907 577.204 197.907 578.536C197.907 579.868 198.992 580.953 200.324 580.953H201.014C200.648 581.439 200.422 582.038 200.422 582.693C200.422 584.173 201.543 585.385 202.973 585.554L202.931 585.977C202.931 588.006 204.579 589.647 206.609 589.647H206.623C206.679 590.831 207.637 591.775 208.828 591.775H225.591C226.817 591.775 227.81 590.782 227.81 589.549L227.507 588.485H228.874C229.994 588.485 230.903 587.583 230.903 586.456C230.903 585.765 230.537 585.18 230.001 584.814H231.002C231.911 584.814 232.644 584.081 232.644 583.172L232.313 582.242C233.968 581.657 235.159 580.093 235.159 578.247Z" fill="#5F8012"/>
<path d="M226.808 578.247C226.808 576.401 225.625 574.844 223.976 574.259L224.293 572.547C224.293 570.278 222.806 568.375 220.77 567.699L220.812 567.227C220.812 565.416 219.347 563.944 217.529 563.944H217.113L217.529 562.492C217.529 560.949 216.275 559.695 214.724 559.695H208.735C207.185 559.695 205.931 560.949 205.931 562.492L206.347 563.944H203.423C201.605 563.944 200.132 565.416 200.132 567.227L200.21 567.91C198.455 568.721 197.236 570.489 197.236 572.547C197.236 573.935 197.793 575.196 198.695 576.119H198.3C196.961 576.119 195.883 577.204 195.883 578.536C195.883 579.868 196.961 580.953 198.3 580.953H198.991C198.624 581.439 198.399 582.038 198.399 582.693C198.399 584.173 199.512 585.385 200.949 585.554L200.907 585.977C200.907 588.006 202.549 589.647 204.578 589.647H204.599C204.656 590.831 205.607 591.775 206.805 591.775H217.24C218.466 591.775 219.459 590.782 219.459 589.549L219.156 588.485H220.523C221.644 588.485 222.553 587.583 222.553 586.456C222.553 585.765 222.186 585.18 221.651 584.814H222.651C223.56 584.814 224.293 584.081 224.293 583.172L223.962 582.242C225.618 581.657 226.808 580.093 226.808 578.247Z" fill="#8BB43D"/>
<path d="M259.369 604.522L258.08 580.707H254.55L253.056 604.522H259.369Z" fill="#79442B"/>
<path d="M286.701 565.128C286.701 562.359 284.925 560.02 282.452 559.139C282.741 558.329 282.924 557.469 282.924 556.56C282.924 553.157 280.698 550.297 277.626 549.289L277.703 548.577C277.703 545.85 275.491 543.645 272.764 543.645H272.137C272.524 543.004 272.764 542.264 272.764 541.461C272.764 539.136 270.876 537.254 268.55 537.254H250.048C247.722 537.254 245.841 539.136 245.841 541.461C245.841 542.264 246.074 543.004 246.461 543.645H242.064C239.338 543.645 237.125 545.85 237.125 548.577L237.238 549.599C234.603 550.825 232.771 553.474 232.771 556.56C232.771 558.653 233.609 560.549 234.969 561.937H234.37C232.362 561.937 230.741 563.564 230.741 565.565C230.741 567.573 232.362 569.194 234.37 569.194H235.406C234.849 569.927 234.511 570.822 234.511 571.808C234.511 574.035 236.195 575.853 238.351 576.113L238.288 576.747C238.288 579.791 240.761 582.264 243.805 582.264H243.833C243.918 584.033 245.355 585.456 247.145 585.456H272.327C274.173 585.456 275.667 583.963 275.667 582.116L275.202 580.517H277.266C278.95 580.517 280.31 579.157 280.31 577.473C280.31 576.43 279.754 575.55 278.957 575H280.458C281.818 575 282.924 573.901 282.924 572.534L282.431 571.132C284.911 570.251 286.701 567.912 286.701 565.128Z" fill="#5F8012"/>
<path d="M274.158 565.128C274.158 562.359 272.376 560.02 269.91 559.139C270.199 558.329 270.382 557.469 270.382 556.56C270.382 553.157 268.148 550.297 265.083 549.289L265.154 548.577C265.154 545.85 262.941 543.645 260.214 543.645H259.594C259.982 543.004 260.214 542.264 260.214 541.461C260.214 539.136 258.333 537.254 256.008 537.254H247.003C244.678 537.254 242.796 539.136 242.796 541.461C242.796 542.264 243.029 543.004 243.417 543.645H239.02C236.293 543.645 234.081 545.85 234.081 548.577L234.193 549.599C231.565 550.825 229.726 553.474 229.726 556.56C229.726 558.653 230.572 560.549 231.924 561.937H231.326C229.317 561.937 227.697 563.564 227.697 565.565C227.697 567.573 229.317 569.194 231.326 569.194H232.361C231.812 569.927 231.473 570.822 231.473 571.808C231.473 574.035 233.15 575.853 235.307 576.113L235.243 576.747C235.243 579.791 237.716 582.264 240.76 582.264H240.788C240.873 584.033 242.31 585.456 244.1 585.456H259.784C261.623 585.456 263.124 583.963 263.124 582.116L262.659 580.517H264.717C266.401 580.517 267.768 579.157 267.768 577.473C267.768 576.43 267.211 575.55 266.408 575H267.916C269.275 575 270.382 573.901 270.382 572.534L269.888 571.132C272.369 570.251 274.158 567.912 274.158 565.128Z" fill="#8BB43D"/>
<path d="M494.137 604.522L493.136 588.479H490.381L489.219 604.522H494.137Z" fill="#79442B"/>
<path d="M512.105 578.247C512.105 576.401 510.921 574.844 509.279 574.259L509.589 572.547C509.589 570.278 508.11 568.375 506.066 567.699L506.116 567.227C506.116 565.416 504.643 563.944 502.825 563.944H502.416L502.825 562.492C502.825 560.949 501.571 559.695 500.028 559.695H487.711C486.161 559.695 484.907 560.949 484.907 562.492L485.323 563.944H482.392C480.581 563.944 479.108 565.416 479.108 567.227L479.179 567.91C477.431 568.721 476.212 570.489 476.212 572.547C476.212 573.935 476.769 575.196 477.671 576.119H477.276C475.937 576.119 474.859 577.204 474.859 578.536C474.859 579.868 475.937 580.953 477.276 580.953H477.96C477.593 581.439 477.368 582.038 477.368 582.693C477.368 584.173 478.488 585.385 479.925 585.554L479.883 585.977C479.883 588.006 481.525 589.647 483.554 589.647H483.575C483.625 590.831 484.583 591.775 485.774 591.775H502.536C503.762 591.775 504.763 590.782 504.763 589.549L504.453 588.485H505.827C506.947 588.485 507.856 587.583 507.856 586.456C507.856 585.765 507.483 585.18 506.947 584.814H507.948C508.856 584.814 509.589 584.081 509.589 583.172L509.265 582.242C510.914 581.657 512.105 580.093 512.105 578.247Z" fill="#5F8012"/>
<path d="M503.754 578.247C503.754 576.401 502.57 574.844 500.928 574.259L501.238 572.547C501.238 570.278 499.759 568.375 497.715 567.699L497.765 567.227C497.765 565.416 496.292 563.944 494.474 563.944H494.065L494.474 562.492C494.474 560.949 493.22 559.695 491.677 559.695H485.681C484.137 559.695 482.883 560.949 482.883 562.492L483.299 563.944H480.368C478.557 563.944 477.084 565.416 477.084 567.227L477.155 567.91C475.408 568.721 474.182 570.489 474.182 572.547C474.182 573.935 474.745 575.196 475.647 576.119H475.246C473.914 576.119 472.829 577.204 472.829 578.536C472.829 579.868 473.914 580.953 475.246 580.953H475.936C475.57 581.439 475.344 582.038 475.344 582.693C475.344 584.173 476.465 585.385 477.902 585.554L477.853 585.977C477.853 588.006 479.501 589.647 481.531 589.647H481.545C481.601 590.831 482.559 591.775 483.75 591.775H494.185C495.411 591.775 496.412 590.782 496.412 589.549L496.102 588.485H497.476C498.596 588.485 499.505 587.583 499.505 586.456C499.505 585.765 499.132 585.18 498.596 584.814H499.597C500.505 584.814 501.238 584.081 501.238 583.172L500.914 582.242C502.563 581.657 503.754 580.093 503.754 578.247Z" fill="#709114"/>
<path d="M441.262 604.522L440.043 582.081H436.717L435.308 604.522H441.262Z" fill="#79442B"/>
<path d="M467.016 567.404C467.016 564.79 465.339 562.592 463.014 561.76C463.282 560.999 463.458 560.189 463.458 559.337C463.458 556.124 461.358 553.432 458.469 552.481L458.533 551.811C458.533 549.24 456.454 547.161 453.882 547.161H453.297C453.664 546.562 453.882 545.865 453.882 545.111C453.882 542.919 452.107 541.137 449.915 541.137H432.476C430.285 541.137 428.509 542.919 428.509 545.111C428.509 545.865 428.735 546.562 429.101 547.161H424.958C422.386 547.161 420.301 549.24 420.301 551.811L420.406 552.777C417.926 553.925 416.2 556.42 416.2 559.337C416.2 561.309 416.996 563.092 418.271 564.396H417.708C415.819 564.396 414.283 565.925 414.283 567.813C414.283 569.708 415.819 571.237 417.708 571.237H418.68C418.159 571.921 417.842 572.773 417.842 573.696C417.842 575.796 419.427 577.508 421.456 577.755L421.4 578.347C421.4 581.222 423.725 583.547 426.6 583.547H426.621C426.699 585.217 428.051 586.555 429.742 586.555H453.473C455.207 586.555 456.616 585.146 456.616 583.413L456.179 581.905H458.124C459.709 581.905 460.999 580.623 460.999 579.037C460.999 578.051 460.47 577.226 459.716 576.705H461.133C462.415 576.705 463.458 575.669 463.458 574.38L462.993 573.062C465.332 572.231 467.016 570.025 467.016 567.404Z" fill="#5F8012"/>
<path d="M455.193 567.404C455.193 564.79 453.516 562.592 451.191 561.76C451.466 560.999 451.635 560.189 451.635 559.337C451.635 556.124 449.535 553.432 446.646 552.481L446.717 551.811C446.717 549.24 444.631 547.161 442.059 547.161H441.475C441.841 546.562 442.059 545.865 442.059 545.111C442.059 542.919 440.284 541.137 438.093 541.137H429.616C427.425 541.137 425.649 542.919 425.649 545.111C425.649 545.865 425.868 546.562 426.234 547.161H422.091C419.519 547.161 417.441 549.24 417.441 551.811L417.539 552.777C415.066 553.925 413.333 556.42 413.333 559.337C413.333 561.309 414.129 563.092 415.404 564.396H414.841C412.952 564.396 411.416 565.925 411.416 567.813C411.416 569.708 412.952 571.237 414.841 571.237H415.813C415.299 571.921 414.975 572.773 414.975 573.696C414.975 575.796 416.56 577.508 418.589 577.755L418.533 578.347C418.533 581.222 420.858 583.547 423.733 583.547H423.761C423.831 585.217 425.191 586.555 426.875 586.555H441.651C443.391 586.555 444.8 585.146 444.8 583.413L444.364 581.905H446.301C447.887 581.905 449.176 580.623 449.176 579.037C449.176 578.051 448.655 577.226 447.901 576.705H449.31C450.599 576.705 451.635 575.669 451.635 574.38L451.177 573.062C453.509 572.231 455.193 570.025 455.193 567.404Z" fill="#8BB43D"/>
<path d="M467.961 604.522L466.954 577.395H464.206L463.036 604.522H467.961Z" fill="#79442B"/>
<path d="M485.929 567.157C485.929 565.311 484.745 563.76 483.096 563.169L483.413 561.456C483.413 559.188 481.933 557.292 479.89 556.616L479.932 556.144C479.932 554.326 478.467 552.86 476.649 552.86H476.233L476.649 551.409C476.649 549.859 475.395 548.604 473.845 548.604H461.528C459.985 548.604 458.731 549.859 458.731 551.409L459.147 552.86H456.215C454.405 552.86 452.932 554.326 452.932 556.144L453.002 556.827C451.255 557.637 450.029 559.399 450.029 561.456C450.029 562.852 450.593 564.113 451.495 565.036H451.093C449.761 565.036 448.676 566.114 448.676 567.453C448.676 568.784 449.761 569.862 451.093 569.862H451.784C451.417 570.349 451.192 570.947 451.192 571.603C451.192 573.089 452.312 574.294 453.749 574.47L453.707 574.893C453.707 576.915 455.349 578.564 457.378 578.564H457.392C457.448 579.741 458.407 580.685 459.598 580.685H476.36C477.586 580.685 478.58 579.692 478.58 578.466L478.277 577.402H479.644C480.764 577.402 481.673 576.493 481.673 575.372C481.673 574.682 481.306 574.097 480.771 573.731H481.771C482.68 573.731 483.413 572.998 483.413 572.089L483.089 571.152C484.738 570.567 485.929 569.01 485.929 567.157Z" fill="#5F8012"/>
<path d="M477.579 567.157C477.579 565.311 476.395 563.76 474.746 563.169L475.063 561.456C475.063 559.188 473.577 557.292 471.54 556.616L471.583 556.144C471.583 554.326 470.117 552.86 468.299 552.86H467.883L468.299 551.409C468.299 549.859 467.045 548.604 465.495 548.604H459.506C457.955 548.604 456.701 549.859 456.701 551.409L457.117 552.86H454.193C452.375 552.86 450.902 554.326 450.902 556.144L450.98 556.827C449.225 557.637 448.006 559.399 448.006 561.456C448.006 562.852 448.563 564.113 449.472 565.036H449.07C447.739 565.036 446.654 566.114 446.654 567.453C446.654 568.784 447.739 569.862 449.07 569.862H449.761C449.394 570.349 449.169 570.947 449.169 571.603C449.169 573.089 450.282 574.294 451.72 574.47L451.677 574.893C451.677 576.915 453.319 578.564 455.348 578.564H455.37C455.426 579.741 456.377 580.685 457.575 580.685H468.01C469.236 580.685 470.23 579.692 470.23 578.466L469.927 577.402H471.294C472.414 577.402 473.323 576.493 473.323 575.372C473.323 574.682 472.956 574.097 472.421 573.731H473.421C474.33 573.731 475.063 572.998 475.063 572.089L474.732 571.152C476.388 570.567 477.579 569.01 477.579 567.157Z" fill="#B9DD59"/>
<path d="M527.078 604.522L526.07 585.963H523.322L522.159 604.522H527.078Z" fill="#79442B"/>
<path d="M548.376 573.83C548.376 571.667 546.988 569.842 545.064 569.158C545.29 568.524 545.431 567.855 545.431 567.15C545.431 564.494 543.698 562.267 541.302 561.478L541.358 560.928C541.358 558.807 539.639 557.081 537.511 557.081H537.025L537.511 555.383C537.511 553.572 536.045 552.107 534.235 552.107H519.811C518.001 552.107 516.535 553.572 516.535 555.383L517.021 557.081H513.59C511.469 557.081 509.743 558.807 509.743 560.928L509.827 561.725C507.777 562.676 506.346 564.74 506.346 567.15C506.346 568.785 507.002 570.257 508.059 571.335H507.594C506.029 571.335 504.768 572.604 504.768 574.168C504.768 575.725 506.029 576.993 507.594 576.993H508.404C507.974 577.564 507.706 578.262 507.706 579.03C507.706 580.77 509.017 582.179 510.701 582.383L510.652 582.877C510.652 585.251 512.575 587.175 514.95 587.175H514.971C515.034 588.556 516.155 589.662 517.55 589.662H537.173C538.61 589.662 539.773 588.499 539.773 587.062L539.413 585.822H541.02C542.33 585.822 543.395 584.758 543.395 583.44C543.395 582.63 542.965 581.947 542.338 581.517H543.507C544.571 581.517 545.431 580.657 545.431 579.593L545.05 578.501C546.981 577.818 548.376 575.993 548.376 573.83Z" fill="#5F8012"/>
<path d="M538.597 573.83C538.597 571.667 537.216 569.842 535.292 569.158C535.51 568.524 535.658 567.855 535.658 567.15C535.658 564.494 533.918 562.267 531.529 561.478L531.586 560.928C531.586 558.807 529.859 557.081 527.739 557.081H527.252L527.739 555.383C527.739 553.572 526.266 552.107 524.455 552.107H517.444C515.633 552.107 514.161 553.572 514.161 555.383L514.647 557.081H511.223C509.095 557.081 507.375 558.807 507.375 560.928L507.46 561.725C505.41 562.676 503.979 564.74 503.979 567.15C503.979 568.785 504.635 570.257 505.692 571.335H505.227C503.662 571.335 502.394 572.604 502.394 574.168C502.394 575.725 503.662 576.993 505.227 576.993H506.03C505.6 577.564 505.339 578.262 505.339 579.03C505.339 580.77 506.643 582.179 508.327 582.383L508.277 582.877C508.277 585.251 510.201 587.175 512.576 587.175H512.604C512.66 588.556 513.78 589.662 515.183 589.662H527.4C528.838 589.662 530 588.499 530 587.062L529.641 585.822H531.248C532.558 585.822 533.622 584.758 533.622 583.44C533.622 582.63 533.185 581.947 532.565 581.517H533.735C534.799 581.517 535.658 580.657 535.658 579.593L535.271 578.501C537.208 577.818 538.597 575.993 538.597 573.83Z" fill="#8BB43D"/>
<path d="M592.653 604.522L591.378 564.374H587.897L586.417 604.522H592.653Z" fill="#79442B"/>
<path d="M615.42 551.409C615.42 549.07 613.926 547.097 611.84 546.357C612.08 545.674 612.242 544.948 612.242 544.187C612.242 541.312 610.361 538.902 607.768 538.05L607.831 537.451C607.831 535.154 605.964 533.287 603.667 533.287H603.139C603.47 532.751 603.667 532.124 603.667 531.448C603.667 529.489 602.075 527.897 600.116 527.897H584.509C582.55 527.897 580.958 529.489 580.958 531.448C580.958 532.124 581.155 532.751 581.486 533.287H577.773C575.476 533.287 573.609 535.154 573.609 537.451L573.7 538.311C571.481 539.346 569.938 541.58 569.938 544.187C569.938 545.948 570.642 547.548 571.791 548.718H571.284C569.593 548.718 568.219 550.085 568.219 551.776C568.219 553.467 569.593 554.841 571.284 554.841H572.157C571.692 555.454 571.403 556.215 571.403 557.046C571.403 558.92 572.819 560.456 574.644 560.675L574.588 561.21C574.588 563.775 576.674 565.861 579.245 565.861H579.267C579.337 567.354 580.549 568.552 582.057 568.552H603.301C604.858 568.552 606.119 567.291 606.119 565.741L605.725 564.388H607.465C608.881 564.388 610.037 563.239 610.037 561.816C610.037 560.942 609.565 560.203 608.888 559.738H610.157C611.305 559.738 612.242 558.808 612.242 557.659L611.819 556.468C613.912 555.728 615.42 553.756 615.42 551.409Z" fill="#5F8012"/>
<path d="M604.844 551.409C604.844 549.07 603.343 547.097 601.257 546.357C601.504 545.674 601.659 544.948 601.659 544.187C601.659 541.312 599.778 538.902 597.192 538.05L597.248 537.451C597.248 535.154 595.388 533.287 593.084 533.287H592.563C592.887 532.751 593.084 532.124 593.084 531.448C593.084 529.489 591.499 527.897 589.533 527.897H581.944C579.978 527.897 578.393 529.489 578.393 531.448C578.393 532.124 578.59 532.751 578.914 533.287H575.208C572.911 533.287 571.044 535.154 571.044 537.451L571.135 538.311C568.916 539.346 567.373 541.58 567.373 544.187C567.373 545.948 568.077 547.548 569.226 548.718H568.719C567.028 548.718 565.654 550.085 565.654 551.776C565.654 553.467 567.028 554.841 568.719 554.841H569.592C569.127 555.454 568.838 556.215 568.838 557.046C568.838 558.92 570.255 560.456 572.08 560.675L572.023 561.21C572.023 563.775 574.109 565.861 576.674 565.861H576.702C576.772 567.354 577.984 568.552 579.492 568.552H592.718C594.275 568.552 595.536 567.291 595.536 565.741L595.141 564.388H596.882C598.305 564.388 599.454 563.239 599.454 561.816C599.454 560.942 598.981 560.203 598.312 559.738H599.573C600.729 559.738 601.659 558.808 601.659 557.659L601.243 556.468C603.336 555.728 604.844 553.756 604.844 551.409Z" fill="#709114"/>
<path d="M553.825 604.522L552.817 585.963H550.069L548.899 604.522H553.825Z" fill="#79442B"/>
<path d="M575.116 573.83C575.116 571.667 573.735 569.842 571.812 569.158C572.037 568.524 572.178 567.855 572.178 567.15C572.178 564.494 570.438 562.267 568.049 561.478L568.105 560.928C568.105 558.807 566.386 557.081 564.258 557.081H563.772L564.258 555.383C564.258 553.572 562.793 552.107 560.975 552.107H546.558C544.748 552.107 543.275 553.572 543.275 555.383L543.761 557.081H540.337C538.209 557.081 536.49 558.807 536.49 560.928L536.574 561.725C534.524 562.676 533.093 564.74 533.093 567.15C533.093 568.785 533.749 570.257 534.806 571.335H534.341C532.776 571.335 531.508 572.604 531.508 574.168C531.508 575.725 532.776 576.993 534.341 576.993H535.144C534.714 577.564 534.453 578.262 534.453 579.03C534.453 580.77 535.764 582.179 537.441 582.383L537.392 582.877C537.392 585.251 539.315 587.175 541.69 587.175H541.718C541.781 588.556 542.895 589.662 544.297 589.662H563.92C565.357 589.662 566.52 588.499 566.52 587.062L566.161 585.822H567.767C569.078 585.822 570.142 584.758 570.142 583.44C570.142 582.63 569.705 581.947 569.085 581.517H570.254C571.318 581.517 572.178 580.657 572.178 579.593L571.79 578.501C573.728 577.818 575.116 575.993 575.116 573.83Z" fill="#5F8012"/>
<path d="M565.345 573.83C565.345 571.667 563.957 569.842 562.033 569.158C562.258 568.524 562.406 567.855 562.406 567.15C562.406 564.494 560.666 562.267 558.277 561.478L558.334 560.928C558.334 558.807 556.608 557.081 554.487 557.081H554.001L554.487 555.383C554.487 553.572 553.014 552.107 551.203 552.107H544.185C542.374 552.107 540.909 553.572 540.909 555.383L541.395 557.081H537.964C535.843 557.081 534.117 558.807 534.117 560.928L534.201 561.725C532.158 562.676 530.727 564.74 530.727 567.15C530.727 568.785 531.383 570.257 532.44 571.335H531.968C530.41 571.335 529.142 572.604 529.142 574.168C529.142 575.725 530.41 576.993 531.968 576.993H532.778C532.348 577.564 532.08 578.262 532.08 579.03C532.08 580.77 533.391 582.179 535.075 582.383L535.025 582.877C535.025 585.251 536.949 587.175 539.324 587.175H539.345C539.408 588.556 540.528 589.662 541.924 589.662H554.141C555.579 589.662 556.748 588.499 556.748 587.062L556.389 585.822H557.989C559.306 585.822 560.37 584.758 560.37 583.44C560.37 582.63 559.933 581.947 559.313 581.517H560.483C561.54 581.517 562.406 580.657 562.406 579.593L562.019 578.501C563.949 577.818 565.345 575.993 565.345 573.83Z" fill="#B9DD59"/>
<path d="M600.349 604.522L599.349 588.479H596.594L595.431 604.522H600.349Z" fill="#79442B"/>
<path d="M618.316 578.247C618.316 576.401 617.133 574.844 615.491 574.259L615.801 572.547C615.801 570.278 614.321 568.375 612.278 567.699L612.327 567.227C612.327 565.416 610.855 563.944 609.037 563.944H608.628L609.037 562.492C609.037 560.949 607.783 559.695 606.239 559.695H593.923C592.373 559.695 591.119 560.949 591.119 562.492L591.534 563.944H588.603C586.792 563.944 585.32 565.416 585.32 567.227L585.39 567.91C583.643 568.721 582.424 570.489 582.424 572.547C582.424 573.935 582.981 575.196 583.882 576.119H583.488C582.149 576.119 581.071 577.204 581.071 578.536C581.071 579.868 582.149 580.953 583.488 580.953H584.171C583.805 581.439 583.579 582.038 583.579 582.693C583.579 584.173 584.7 585.385 586.137 585.554L586.095 585.977C586.095 588.006 587.737 589.647 589.766 589.647H589.787C589.836 590.831 590.795 591.775 591.985 591.775H608.748C609.981 591.775 610.974 590.782 610.974 589.549L610.664 588.485H612.038C613.159 588.485 614.068 587.583 614.068 586.456C614.068 585.765 613.694 585.18 613.166 584.814H614.159C615.068 584.814 615.801 584.081 615.801 583.172L615.477 582.242C617.126 581.657 618.316 580.093 618.316 578.247Z" fill="#5F8012"/>
<path d="M609.966 578.247C609.966 576.401 608.782 574.844 607.14 574.259L607.45 572.547C607.45 570.278 605.971 568.375 603.927 567.699L603.977 567.227C603.977 565.416 602.504 563.944 600.686 563.944H600.277L600.686 562.492C600.686 560.949 599.432 559.695 597.889 559.695H591.893C590.35 559.695 589.095 560.949 589.095 562.492L589.511 563.944H586.58C584.769 563.944 583.296 565.416 583.296 567.227L583.367 567.91C581.619 568.721 580.393 570.489 580.393 572.547C580.393 573.935 580.957 575.196 581.859 576.119H581.457C580.126 576.119 579.041 577.204 579.041 578.536C579.041 579.868 580.126 580.953 581.457 580.953H582.148C581.782 581.439 581.556 582.038 581.556 582.693C581.556 584.173 582.676 585.385 584.114 585.554L584.071 585.977C584.071 588.006 585.713 589.647 587.742 589.647H587.757C587.813 590.831 588.771 591.775 589.962 591.775H600.397C601.623 591.775 602.624 590.782 602.624 589.549L602.314 588.485H603.688C604.808 588.485 605.717 587.583 605.717 586.456C605.717 585.765 605.343 585.18 604.808 584.814H605.809C606.718 584.814 607.45 584.081 607.45 583.172L607.126 582.242C608.775 581.657 609.966 580.093 609.966 578.247Z" fill="#B9DD59"/>
<path d="M385.156 604.522L384.149 588.479H381.401L380.238 604.522H385.156Z" fill="#79442B"/>
<path d="M403.122 578.247C403.122 576.401 401.938 574.844 400.296 574.259L400.606 572.547C400.606 570.278 399.127 568.375 397.083 567.699L397.133 567.227C397.133 565.416 395.66 563.944 393.842 563.944H393.426L393.842 562.492C393.842 560.949 392.588 559.695 391.045 559.695H378.728C377.178 559.695 375.924 560.949 375.924 562.492L376.34 563.944H373.409C371.598 563.944 370.125 565.416 370.125 567.227L370.196 567.91C368.448 568.721 367.229 570.489 367.229 572.547C367.229 573.935 367.786 575.196 368.688 576.119H368.286C366.954 576.119 365.876 577.204 365.876 578.536C365.876 579.868 366.954 580.953 368.286 580.953H368.977C368.61 581.439 368.385 582.038 368.385 582.693C368.385 584.173 369.505 585.385 370.943 585.554L370.9 585.977C370.9 588.006 372.542 589.647 374.571 589.647H374.592C374.642 590.831 375.6 591.775 376.791 591.775H393.553C394.779 591.775 395.78 590.782 395.78 589.549L395.47 588.485H396.837C397.957 588.485 398.866 587.583 398.866 586.456C398.866 585.765 398.499 585.18 397.964 584.814H398.965C399.874 584.814 400.606 584.081 400.606 583.172L400.282 582.242C401.931 581.657 403.122 580.093 403.122 578.247Z" fill="#5F8012"/>
<path d="M394.773 578.247C394.773 576.401 393.589 574.844 391.948 574.259L392.258 572.547C392.258 570.278 390.778 568.375 388.735 567.699L388.784 567.227C388.784 565.416 387.311 563.944 385.493 563.944H385.078L385.493 562.492C385.493 560.949 384.239 559.695 382.696 559.695H376.7C375.157 559.695 373.896 560.949 373.896 562.492L374.311 563.944H371.387C369.569 563.944 368.104 565.416 368.104 567.227L368.174 567.91C366.42 568.721 365.201 570.489 365.201 572.547C365.201 573.935 365.764 575.196 366.666 576.119H366.265C364.933 576.119 363.848 577.204 363.848 578.536C363.848 579.868 364.933 580.953 366.265 580.953H366.955C366.589 581.439 366.363 582.038 366.363 582.693C366.363 584.173 367.477 585.385 368.914 585.554L368.872 585.977C368.872 588.006 370.521 589.647 372.543 589.647H372.564C372.62 590.831 373.578 591.775 374.769 591.775H385.204C386.43 591.775 387.431 590.782 387.431 589.549L387.121 588.485H388.488C389.608 588.485 390.517 587.583 390.517 586.456C390.517 585.765 390.151 585.18 389.615 584.814H390.616C391.525 584.814 392.258 584.081 392.258 583.172L391.933 582.242C393.582 581.657 394.773 580.093 394.773 578.247Z" fill="#8BB43D"/>
<path d="M642.526 604.522L641.237 580.707H637.707L636.213 604.522H642.526Z" fill="#79442B"/>
<path d="M669.858 565.128C669.858 562.359 668.082 560.02 665.616 559.139C665.898 558.329 666.088 557.469 666.088 556.56C666.088 553.157 663.854 550.297 660.789 549.289L660.86 548.577C660.86 545.85 658.648 543.645 655.921 543.645H655.301C655.688 543.004 655.921 542.264 655.921 541.461C655.921 539.136 654.039 537.254 651.714 537.254H633.211C630.879 537.254 628.998 539.136 628.998 541.461C628.998 542.264 629.23 543.004 629.618 543.645H625.221C622.494 543.645 620.289 545.85 620.289 548.577L620.395 549.599C617.766 550.825 615.927 553.474 615.927 556.56C615.927 558.653 616.773 560.549 618.126 561.937H617.527C615.526 561.937 613.898 563.564 613.898 565.565C613.898 567.573 615.526 569.194 617.527 569.194H618.563C618.013 569.927 617.675 570.822 617.675 571.808C617.675 574.035 619.352 575.853 621.515 576.113L621.444 576.747C621.444 579.791 623.918 582.264 626.961 582.264H626.997C627.074 584.033 628.512 585.456 630.301 585.456H655.491C657.33 585.456 658.824 583.963 658.824 582.116L658.366 580.517H660.423C662.107 580.517 663.474 579.157 663.474 577.473C663.474 576.43 662.917 575.55 662.114 575H663.615C664.982 575 666.088 573.901 666.088 572.534L665.595 571.132C668.075 570.251 669.858 567.912 669.858 565.128Z" fill="#5F8012"/>
<path d="M657.315 565.128C657.315 562.359 655.539 560.02 653.066 559.139C653.355 558.329 653.538 557.469 653.538 556.56C653.538 553.157 651.312 550.297 648.24 549.289L648.31 548.577C648.31 545.85 646.105 543.645 643.378 543.645H642.751C643.138 543.004 643.378 542.264 643.378 541.461C643.378 539.136 641.49 537.254 639.164 537.254H630.167C627.841 537.254 625.953 539.136 625.953 541.461C625.953 542.264 626.193 543.004 626.58 543.645H622.177C619.457 543.645 617.244 545.85 617.244 548.577L617.35 549.599C614.722 550.825 612.89 553.474 612.89 556.56C612.89 558.653 613.728 560.549 615.081 561.937H614.482C612.481 561.937 610.854 563.564 610.854 565.565C610.854 567.573 612.481 569.194 614.482 569.194H615.518C614.968 569.927 614.63 570.822 614.63 571.808C614.63 574.035 616.307 575.853 618.47 576.113L618.407 576.747C618.407 579.791 620.873 582.264 623.924 582.264H623.952C624.03 584.033 625.467 585.456 627.264 585.456H642.941C644.787 585.456 646.281 583.963 646.281 582.116L645.816 580.517H647.88C649.564 580.517 650.924 579.157 650.924 577.473C650.924 576.43 650.368 575.55 649.571 575H651.072C652.432 575 653.538 573.901 653.538 572.534L653.045 571.132C655.525 570.251 657.315 567.912 657.315 565.128Z" fill="#8BB43D"/>
<path d="M338.56 604.522L337.271 580.707H333.748L332.247 604.522H338.56Z" fill="#79442B"/>
<path d="M365.898 565.128C365.898 562.359 364.116 560.02 361.65 559.139C361.938 558.329 362.122 557.469 362.122 556.56C362.122 553.157 359.888 550.297 356.823 549.289L356.894 548.577C356.894 545.85 354.681 543.645 351.954 543.645H351.334C351.722 543.004 351.954 542.264 351.954 541.461C351.954 539.136 350.073 537.254 347.748 537.254H329.245C326.92 537.254 325.031 539.136 325.031 541.461C325.031 542.264 325.264 543.004 325.651 543.645H321.255C318.528 543.645 316.322 545.85 316.322 548.577L316.428 549.599C313.8 550.825 311.968 553.474 311.968 556.56C311.968 558.653 312.806 560.549 314.159 561.937H313.56C311.559 561.937 309.932 563.564 309.932 565.565C309.932 567.573 311.559 569.194 313.56 569.194H314.596C314.047 569.927 313.708 570.822 313.708 571.808C313.708 574.035 315.385 575.853 317.548 576.113L317.485 576.747C317.485 579.791 319.951 582.264 323.002 582.264H323.03C323.108 584.033 324.545 585.456 326.335 585.456H351.524C353.363 585.456 354.864 583.963 354.864 582.116L354.399 580.517H356.457C358.141 580.517 359.508 579.157 359.508 577.473C359.508 576.43 358.951 575.55 358.148 575H359.656C361.015 575 362.122 573.901 362.122 572.534L361.628 571.132C364.109 570.251 365.898 567.912 365.898 565.128Z" fill="#5F8012"/>
<path d="M353.349 565.128C353.349 562.359 351.573 560.02 349.1 559.139C349.389 558.329 349.572 557.469 349.572 556.56C349.572 553.157 347.346 550.297 344.274 549.289L344.351 548.577C344.351 545.85 342.139 543.645 339.412 543.645H338.785C339.172 543.004 339.412 542.264 339.412 541.461C339.412 539.136 337.524 537.254 335.198 537.254H326.201C323.875 537.254 321.987 539.136 321.987 541.461C321.987 542.264 322.227 543.004 322.614 543.645H318.217C315.491 543.645 313.278 545.85 313.278 548.577L313.384 549.599C310.756 550.825 308.924 553.474 308.924 556.56C308.924 558.653 309.762 560.549 311.122 561.937H310.516C308.515 561.937 306.887 563.564 306.887 565.565C306.887 567.573 308.515 569.194 310.516 569.194H311.552C311.002 569.927 310.664 570.822 310.664 571.808C310.664 574.035 312.341 575.853 314.504 576.113L314.441 576.747C314.441 579.791 316.907 582.264 319.958 582.264H319.986C320.064 584.033 321.501 585.456 323.298 585.456H338.975C340.821 585.456 342.315 583.963 342.315 582.116L341.85 580.517H343.914C345.598 580.517 346.958 579.157 346.958 577.473C346.958 576.43 346.402 575.55 345.605 575H347.106C348.473 575 349.572 573.901 349.572 572.534L349.079 571.132C351.559 570.251 353.349 567.912 353.349 565.128Z" fill="#B9DD59"/>
<path d="M685.274 605.338C685.274 606.79 684.097 607.959 682.653 607.959H20.5647C19.1203 607.959 17.9436 606.79 17.9436 605.338C17.9436 603.894 19.1203 602.717 20.5647 602.717H682.653C684.097 602.717 685.274 603.894 685.274 605.338Z" fill="#709114"/>
<path d="M237.4 62.7592C237.4 97.4186 209.3 125.511 174.641 125.511C139.981 125.511 111.889 97.4186 111.889 62.7592C111.889 28.0997 139.981 5.34058e-05 174.641 5.34058e-05C209.3 5.34058e-05 237.4 28.0997 237.4 62.7592Z" fill="#FFF9E6"/>
<path d="M215.366 62.7592C215.366 85.2502 197.131 103.485 174.64 103.485C152.149 103.485 133.914 85.2502 133.914 62.7592C133.914 40.2683 152.149 22.0331 174.64 22.0331C197.131 22.0331 215.366 40.2683 215.366 62.7592Z" fill="#FFEB9F"/>
<defs>
<linearGradient id="paint0_linear" x1="131.766" y1="156.57" x2="131.766" y2="620.975" gradientUnits="userSpaceOnUse">
<stop stop-color="#50C8E5"/>
<stop offset="1" stop-color="#2184C9"/>
</linearGradient>
<linearGradient id="paint1_linear" x1="464.473" y1="51.3663" x2="464.473" y2="624.725" gradientUnits="userSpaceOnUse">
<stop stop-color="#5FDBF9"/>
<stop offset="1" stop-color="#2A93DD"/>
</linearGradient>
<linearGradient id="paint2_linear" x1="294.472" y1="166.743" x2="294.472" y2="603.517" gradientUnits="userSpaceOnUse">
<stop stop-color="#5FDBF9"/>
<stop offset="1" stop-color="#2A93DD"/>
</linearGradient>
<linearGradient id="paint3_linear" x1="582.156" y1="236.95" x2="582.156" y2="795.075" gradientUnits="userSpaceOnUse">
<stop stop-color="#50C8E5"/>
<stop offset="1" stop-color="#2184C9"/>
</linearGradient>
<linearGradient id="paint4_linear" x1="582.156" y1="236.952" x2="582.156" y2="795.074" gradientUnits="userSpaceOnUse">
<stop stop-color="#50C8E5"/>
<stop offset="1" stop-color="#2184C9"/>
</linearGradient>
<linearGradient id="paint5_linear" x1="582.156" y1="236.949" x2="582.156" y2="795.074" gradientUnits="userSpaceOnUse">
<stop stop-color="#50C8E5"/>
<stop offset="1" stop-color="#2184C9"/>
</linearGradient>
<linearGradient id="paint6_linear" x1="582.156" y1="236.951" x2="582.156" y2="795.074" gradientUnits="userSpaceOnUse">
<stop stop-color="#50C8E5"/>
<stop offset="1" stop-color="#2184C9"/>
</linearGradient>
<linearGradient id="paint7_linear" x1="582.156" y1="236.95" x2="582.156" y2="795.073" gradientUnits="userSpaceOnUse">
<stop stop-color="#50C8E5"/>
<stop offset="1" stop-color="#2184C9"/>
</linearGradient>
<linearGradient id="paint8_linear" x1="582.156" y1="236.952" x2="582.156" y2="795.075" gradientUnits="userSpaceOnUse">
<stop stop-color="#50C8E5"/>
<stop offset="1" stop-color="#2184C9"/>
</linearGradient>
<linearGradient id="paint9_linear" x1="582.156" y1="236.95" x2="582.156" y2="795.075" gradientUnits="userSpaceOnUse">
<stop stop-color="#50C8E5"/>
<stop offset="1" stop-color="#2184C9"/>
</linearGradient>
<linearGradient id="paint10_linear" x1="582.156" y1="236.95" x2="582.156" y2="795.075" gradientUnits="userSpaceOnUse">
<stop stop-color="#50C8E5"/>
<stop offset="1" stop-color="#2184C9"/>
</linearGradient>
<linearGradient id="paint11_linear" x1="582.156" y1="236.951" x2="582.156" y2="795.074" gradientUnits="userSpaceOnUse">
<stop stop-color="#50C8E5"/>
<stop offset="1" stop-color="#2184C9"/>
</linearGradient>
<linearGradient id="paint12_linear" x1="582.156" y1="236.949" x2="582.156" y2="795.074" gradientUnits="userSpaceOnUse">
<stop stop-color="#50C8E5"/>
<stop offset="1" stop-color="#2184C9"/>
</linearGradient>
<linearGradient id="paint13_linear" x1="582.156" y1="236.951" x2="582.156" y2="795.074" gradientUnits="userSpaceOnUse">
<stop stop-color="#50C8E5"/>
<stop offset="1" stop-color="#2184C9"/>
</linearGradient>
<linearGradient id="paint14_linear" x1="582.156" y1="236.95" x2="582.156" y2="795.076" gradientUnits="userSpaceOnUse">
<stop stop-color="#50C8E5"/>
<stop offset="1" stop-color="#2184C9"/>
</linearGradient>
<linearGradient id="paint15_linear" x1="582.156" y1="236.95" x2="582.156" y2="795.073" gradientUnits="userSpaceOnUse">
<stop stop-color="#50C8E5"/>
<stop offset="1" stop-color="#2184C9"/>
</linearGradient>
<linearGradient id="paint16_linear" x1="582.156" y1="236.95" x2="582.156" y2="795.073" gradientUnits="userSpaceOnUse">
<stop stop-color="#50C8E5"/>
<stop offset="1" stop-color="#2184C9"/>
</linearGradient>
<linearGradient id="paint17_linear" x1="582.156" y1="236.951" x2="582.156" y2="795.076" gradientUnits="userSpaceOnUse">
<stop stop-color="#50C8E5"/>
<stop offset="1" stop-color="#2184C9"/>
</linearGradient>
</defs>
</svg>
