<svg width="35" height="35" viewBox="0 0 35 35" fill="none" xmlns="http://www.w3.org/2000/svg">
<path d="M35 17.5C35 7.83502 27.165 0 17.5 0C7.83502 0 0 7.83502 0 17.5C0 27.165 7.83502 35 17.5 35C27.165 35 35 27.165 35 17.5Z" fill="white"/>
<path d="M29.3773 4.6253C22.2812 -1.90511 11.2044 -1.47263 4.62755 5.61999C-1.90603 12.7126 -1.47334 23.784 5.62273 30.3577C12.7188 36.9313 23.7956 36.4556 30.3724 29.363C36.906 22.2704 36.4733 11.1989 29.3773 4.6253ZM25.5264 24.9085L15.0553 28.152L7.0506 20.7567L9.47365 10.0745L19.9014 6.83093L27.9494 14.2695L25.5264 24.9085Z" fill="#FF8500"/>
</svg>
