<svg width="150" height="115" viewBox="0 0 150 115" fill="none" xmlns="http://www.w3.org/2000/svg">
<path d="M56.1024 27.0285C56.1024 38.5179 46.8591 47.832 35.4572 47.832C24.0553 47.832 14.812 38.5179 14.812 27.0285C14.812 15.5392 24.0553 6.22506 35.4572 6.22506C46.8591 6.22506 56.1024 15.5392 56.1024 27.0285Z" fill="#FFF9E6"/>
<path d="M48.8549 27.028C48.8549 34.4848 42.8561 40.5283 35.4567 40.5283C28.0572 40.5283 22.0591 34.4848 22.0591 27.028C22.0591 19.573 28.0572 13.5277 35.4567 13.5277C42.8561 13.5277 48.8549 19.573 48.8549 27.028Z" fill="#FFEB9F"/>
<path d="M45.8057 111.847L44.6726 90.7352H41.5682L40.251 111.847H45.8057Z" fill="#79442B"/>
<path d="M43.0229 111.847L43.1198 96.232C43.1198 95.9623 42.9329 95.7442 42.7018 95.7442C42.4709 95.7442 42.2839 95.9623 42.2839 96.232L41.5115 111.847H43.0229Z" fill="#A35233"/>
<path d="M69.8503 76.9259C69.8503 74.468 68.286 72.3964 66.1133 71.613C66.3665 70.8979 66.5296 70.137 66.5296 69.3328C66.5296 66.3124 64.5684 63.7798 61.8693 62.8843C61.8988 62.6757 61.9316 62.4704 61.9316 62.2551C61.9316 59.8375 59.9877 57.8799 57.5897 57.8799H57.0409C57.3819 57.314 57.5897 56.6579 57.5897 55.9486C57.5897 53.8871 55.9312 52.216 53.8855 52.216H37.6078C35.562 52.216 33.9036 53.8871 33.9036 55.9486C33.9036 56.6579 34.1112 57.314 34.4523 57.8799H30.5834C28.1848 57.8799 26.2408 59.8375 26.2408 62.2551C26.2408 62.5652 26.2754 62.8687 26.3365 63.1614C24.0231 64.2454 22.4092 66.5922 22.4092 69.3328C22.4092 71.1879 23.1493 72.8657 24.3414 74.095H23.8138C22.0508 74.095 20.6211 75.5345 20.6211 77.3122C20.6211 79.0893 22.0508 80.5294 23.8138 80.5294H24.7255C24.2401 81.1766 23.9419 81.9735 23.9419 82.846C23.9419 84.8217 25.4194 86.4322 27.3188 86.6604C27.2972 86.8472 27.2626 87.0295 27.2626 87.2218C27.2626 89.9226 29.4352 92.1119 32.1155 92.1119H32.1416C32.2118 93.6837 33.4762 94.9443 35.0533 94.9443H57.2061C58.829 94.9443 60.1434 93.6193 60.1434 91.984C60.1434 91.4597 59.9726 90.9948 59.7367 90.5686H61.5487C63.0301 90.5686 64.2306 89.3584 64.2306 87.8651C64.2306 86.9408 63.7408 86.1653 63.038 85.6775H64.3585C65.5578 85.6775 66.5296 84.6982 66.5296 83.4892C66.5296 83.017 66.3492 82.6021 66.0961 82.2448C68.2781 81.4665 69.8503 79.3911 69.8503 76.9259Z" fill="#5F8012"/>
<path d="M58.8142 76.9259C58.8142 74.468 57.2505 72.3964 55.0773 71.613C55.3304 70.8979 55.4936 70.137 55.4936 69.3328C55.4936 66.3124 53.5323 63.7798 50.8333 62.8843C50.8628 62.6757 50.8955 62.4704 50.8955 62.2551C50.8955 59.8375 48.9517 57.8799 46.5536 57.8799H46.0054C46.3461 57.314 46.5536 56.6579 46.5536 55.9486C46.5536 53.8871 44.8952 52.216 42.8494 52.216H34.9312C32.8855 52.216 31.2275 53.8871 31.2275 55.9486C31.2275 56.6579 31.4345 57.314 31.7758 57.8799H27.9069C25.5088 57.8799 23.5643 59.8375 23.5643 62.2551C23.5643 62.5652 23.5987 62.8687 23.66 63.1614C21.3466 64.2454 19.7327 66.5922 19.7327 69.3328C19.7327 71.1879 20.4728 72.8657 21.6649 74.095H21.1379C19.3743 74.095 17.9446 75.5345 17.9446 77.3122C17.9446 79.0893 19.3743 80.5294 21.1379 80.5294H22.049C21.5636 81.1766 21.2654 81.9735 21.2654 82.846C21.2654 84.8217 22.7429 86.4322 24.6423 86.6604C24.6205 86.8472 24.5861 87.0295 24.5861 87.2218C24.5861 89.9226 26.7587 92.1119 29.4395 92.1119H29.4651C29.5357 93.6837 30.7996 94.9443 32.3768 94.9443H46.1701C47.793 94.9443 49.108 93.6193 49.108 91.984C49.108 91.4597 48.9366 90.9948 48.7006 90.5686H50.5127C51.9941 90.5686 53.1946 89.3584 53.1946 87.8651C53.1946 86.9408 52.7047 86.1653 52.0019 85.6775H53.3225C54.5218 85.6775 55.4936 84.6982 55.4936 83.4892C55.4936 83.017 55.3132 82.6021 55.06 82.2448C57.2415 81.4665 58.8142 79.3911 58.8142 76.9259Z" fill="#8BB43D"/>
<path d="M41.5349 90.4078C41.5349 88.8213 40.4708 87.5337 39.0373 87.1003C39.9015 86.83 40.5114 86.2058 40.7051 85.3058H45.6481C47.5709 85.3058 49.1292 83.7349 49.1292 81.7986C49.1292 79.8617 47.5709 78.2898 45.6481 78.2898H39.4769C39.5392 78.0274 39.6366 77.7761 39.6366 77.4946C39.6366 75.5566 38.0777 73.9857 36.1555 73.9857H21.5931L21.6649 74.0951H21.1379C19.3743 74.0951 17.9446 75.5363 17.9446 77.3123C17.9446 79.0894 19.3743 80.5295 21.1379 80.5295H22.049C21.5636 81.1767 21.2654 81.9736 21.2654 82.8461C21.2654 84.8218 22.7429 86.4323 24.6423 86.6606C24.6205 86.8473 24.5861 87.0297 24.5861 87.2219C24.5861 89.9227 26.7587 92.1131 29.4395 92.1131H29.4651C29.5357 93.6838 30.7996 94.9429 32.3768 94.9429H46.1707C47.7924 94.9429 49.108 93.6194 49.108 91.9841L49.0668 91.8417H41.2149C41.4125 91.4027 41.5349 90.9214 41.5349 90.4078Z" fill="#709114"/>
<path d="M50.833 62.8842C50.863 62.6773 50.8958 62.4703 50.8958 62.2549C50.8958 59.8374 48.952 57.8798 46.5534 57.8798H46.0051C46.3468 57.3139 46.5534 56.6578 46.5534 55.9485C46.5534 53.8869 44.8954 52.2159 42.8501 52.2159H39.1009C39.0031 52.5074 38.8989 52.7973 38.8989 53.1203C38.8989 54.4702 39.8039 55.5654 41.0226 55.9344C40.288 56.1626 39.7693 56.6937 39.6046 57.4586H35.4012C33.7668 57.4586 32.4417 58.7955 32.4417 60.4419C32.4417 62.0884 33.7668 63.4237 35.4012 63.4237H40.6486C40.5957 63.6479 40.5134 63.8617 40.5134 64.1017C40.5134 65.7492 41.8385 67.0845 43.473 67.0845H55.0975C54.4003 65.1032 52.8241 63.5443 50.833 62.8842Z" fill="#B9DD59"/>
<path d="M79.8107 111.847L78.6916 61.1931H75.6257L74.3257 111.847H79.8107Z" fill="#79442B"/>
<path d="M77.0632 111.847L77.1589 65.8863C77.1589 65.6564 76.9742 65.4697 76.7459 65.4697C76.5184 65.4697 76.3336 65.6564 76.3336 65.8863L75.5706 111.847H77.0632Z" fill="#A35233"/>
<path d="M104.978 54.9591C104.978 52.3997 103.349 50.2419 101.086 49.4264C101.35 48.6801 101.52 47.8888 101.52 47.0521C101.52 43.9067 99.4769 41.2693 96.666 40.335C96.6972 40.1197 96.7317 39.9043 96.7317 39.6799C96.7317 37.1637 94.7071 35.1236 92.2094 35.1236H91.6378C91.9935 34.5347 92.2094 33.8518 92.2094 33.112C92.2094 30.9659 90.482 29.2258 88.3515 29.2258H71.3994C69.2691 29.2258 67.5422 30.9659 67.5422 33.112C67.5422 33.8518 67.7582 34.5347 68.1132 35.1236H64.0839C61.5863 35.1236 59.5617 37.1637 59.5617 39.6799C59.5617 40.0047 59.5973 40.3192 59.6612 40.6249C57.2515 41.7533 55.5714 44.1982 55.5714 47.0521C55.5714 48.9828 56.3417 50.7303 57.5838 52.0105H57.0345C55.198 52.0105 53.7087 53.5106 53.7087 55.3612C53.7087 57.2117 55.198 58.712 57.0345 58.712H57.9834C57.478 59.3854 57.1676 60.2153 57.1676 61.1255C57.1676 63.1824 58.7063 64.8592 60.6842 65.0975C60.6619 65.2916 60.6258 65.4811 60.6258 65.6818C60.6258 68.4942 62.8886 70.7755 65.6801 70.7755H65.7068C65.7803 72.4118 67.097 73.7241 68.7392 73.7241H91.8104C93.4999 73.7241 94.8695 72.3435 94.8695 70.6403C94.8695 70.0963 94.6914 69.6112 94.4455 69.1661H96.3326C97.8747 69.1661 99.1257 67.906 99.1257 66.3526C99.1257 65.3891 98.6154 64.581 97.8831 64.0741H99.2588C100.508 64.0741 101.52 63.0535 101.52 61.7945C101.52 61.3022 101.332 60.8715 101.068 60.498C103.34 59.6882 104.978 57.5264 104.978 54.9591Z" fill="#5F8012"/>
<path d="M93.4852 54.9591C93.4852 52.3997 91.8562 50.2419 89.5934 49.4264C89.8573 48.6801 90.0269 47.8888 90.0269 47.0521C90.0269 43.9067 87.9845 41.2693 85.173 40.335C85.2042 40.1197 85.2387 39.9043 85.2387 39.6799C85.2387 37.1637 83.2141 35.1236 80.7164 35.1236H80.1454C80.5005 34.5347 80.7164 33.8518 80.7164 33.112C80.7164 30.9659 78.9896 29.2258 76.8591 29.2258H68.6127C66.4822 29.2258 64.7554 30.9659 64.7554 33.112C64.7554 33.8518 64.9713 34.5347 65.3264 35.1236H61.2972C58.7996 35.1236 56.775 37.1637 56.775 39.6799C56.775 40.0047 56.8111 40.3192 56.8745 40.6249C54.4654 41.7533 52.7847 44.1982 52.7847 47.0521C52.7847 48.9828 53.5549 50.7303 54.7971 52.0105H54.2477C52.4113 52.0105 50.9226 53.5106 50.9226 55.3612C50.9226 57.2117 52.4113 58.712 54.2477 58.712H55.1967C54.6913 59.3854 54.3808 60.2153 54.3808 61.1255C54.3808 63.1824 55.9196 64.8592 57.8975 65.0975C57.8751 65.2916 57.8391 65.4811 57.8391 65.6818C57.8391 68.4942 60.1017 70.7755 62.8933 70.7755H62.9201C62.9934 72.4118 64.3101 73.7241 65.9525 73.7241H80.3174C82.0069 73.7241 83.3766 72.3435 83.3766 70.6403C83.3766 70.0963 83.1985 69.6112 82.9525 69.1661H84.8396C86.3823 69.1661 87.6329 67.906 87.6329 66.3526C87.6329 65.3891 87.1224 64.581 86.3907 64.0741H87.7658C89.0147 64.0741 90.0269 63.0535 90.0269 61.7945C90.0269 61.3022 89.8389 60.8715 89.575 60.498C91.8474 59.6882 93.4852 57.5264 93.4852 54.9591Z" fill="#B9DD59"/>
<path d="M75.4907 68.9992C75.4907 67.3471 74.3827 66.0063 72.8889 65.5538C73.7894 65.274 74.4244 64.6233 74.6265 63.6863H79.7741C81.7765 63.6863 83.3994 62.0494 83.3994 60.0328C83.3994 58.0157 81.7765 56.3804 79.7741 56.3804H73.3469C73.4126 56.1044 73.5133 55.8449 73.5133 55.5504C73.5133 53.5321 71.8901 51.8969 69.8882 51.8969H54.7225L54.797 52.0102H54.2483C52.4118 52.0102 50.9226 53.5103 50.9226 55.3609C50.9226 57.2114 52.4118 58.7116 54.2483 58.7116H55.1972C54.6919 59.3851 54.3808 60.215 54.3808 61.1235C54.3808 63.1821 55.9201 64.8589 57.8975 65.0972C57.8757 65.2913 57.8396 65.482 57.8396 65.6815C57.8396 68.4939 60.1023 70.7752 62.8938 70.7752H62.9211C62.994 72.4104 64.3107 73.7227 65.9531 73.7227H80.318C82.0069 73.7227 83.3772 72.3432 83.3772 70.64L83.3349 70.4925H75.1573C75.3633 70.0344 75.4907 69.5347 75.4907 68.9992Z" fill="#8BB43D"/>
<path d="M85.1728 40.3347C85.204 40.1194 85.2385 39.904 85.2385 39.6796C85.2385 37.1634 83.2138 35.1233 80.7162 35.1233H80.1452C80.5008 34.5344 80.7162 33.8515 80.7162 33.1117C80.7162 30.9656 78.9893 29.2255 76.8589 29.2255H72.9543C72.8525 29.5289 72.7441 29.8301 72.7441 30.1676C72.7441 31.5713 73.6868 32.7131 74.9562 33.0978C74.191 33.3344 73.6512 33.8884 73.4792 34.6853H69.1016C67.3998 34.6853 66.0195 36.0767 66.0195 37.7921C66.0195 39.5075 67.3998 40.8972 69.1016 40.8972H74.5667C74.511 41.1316 74.4252 41.3536 74.4252 41.6038C74.4252 43.3192 75.8054 44.7104 77.5078 44.7104H89.6144C88.8875 42.6473 87.2464 41.024 85.1728 40.3347Z" fill="#DCF490"/>
<path d="M103.469 111.847L102.414 94.8694H99.5274L98.3025 111.847H103.469Z" fill="#79442B"/>
<path d="M100.881 111.847L100.971 99.29C100.971 99.073 100.797 98.898 100.582 98.898C100.368 98.898 100.194 99.073 100.194 99.29L99.4753 111.847H100.881Z" fill="#A35233"/>
<path d="M122.333 84.045C122.333 82.0923 121.09 80.4458 119.364 79.8245C119.564 79.2558 119.694 78.653 119.694 78.0143C119.694 75.6136 118.137 73.6026 115.993 72.8903C116.016 72.7267 116.043 72.5617 116.043 72.3908C116.043 70.4712 114.498 68.915 112.592 68.915H112.157C112.428 68.4675 112.592 67.9448 112.592 67.3818C112.592 65.7437 111.276 64.4175 109.65 64.4175H96.7199C95.0948 64.4175 93.7775 65.7437 93.7775 67.3818C93.7775 67.9448 93.9424 68.4675 94.2133 68.915H91.1397C89.2348 68.915 87.6904 70.4712 87.6904 72.3908C87.6904 72.6375 87.7176 72.8786 87.7666 73.1113C85.9285 73.9727 84.6467 75.8362 84.6467 78.0143C84.6467 79.487 85.2344 80.8194 86.1817 81.7967H85.7626C84.3618 81.7967 83.2266 82.9408 83.2266 84.3523C83.2266 85.7632 84.3618 86.9078 85.7626 86.9078H86.4867C86.101 87.4214 85.8638 88.0545 85.8638 88.7482C85.8638 90.3174 87.0382 91.5965 88.5464 91.7788C88.5295 91.9262 88.5018 92.0715 88.5018 92.2234C88.5018 94.3701 90.2281 96.1086 92.3574 96.1086H92.3773C92.4336 97.3574 93.4382 98.3579 94.6908 98.3579H112.289C113.576 98.3579 114.622 97.3042 114.622 96.0065C114.622 95.5903 114.485 95.2214 114.299 94.8827H115.738C116.914 94.8827 117.868 93.9204 117.868 92.7349C117.868 92.0013 117.479 91.384 116.92 90.9975H117.97C118.922 90.9975 119.694 90.2197 119.694 89.2592C119.694 88.8829 119.55 88.5543 119.349 88.2699C121.083 87.6524 122.333 86.0032 122.333 84.045Z" fill="#5F8012"/>
<path d="M113.565 84.045C113.565 82.0923 112.323 80.4458 110.598 79.8245C110.798 79.2558 110.928 78.653 110.928 78.0143C110.928 75.6136 109.37 73.6026 107.226 72.8903C107.249 72.7267 107.276 72.5617 107.276 72.3908C107.276 70.4712 105.731 68.915 103.826 68.915H103.391C103.662 68.4675 103.826 67.9448 103.826 67.3818C103.826 65.7437 102.509 64.4175 100.884 64.4175H94.5942C92.9692 64.4175 91.6518 65.7437 91.6518 67.3818C91.6518 67.9448 91.8166 68.4675 92.0876 68.915H89.014C87.109 68.915 85.5647 70.4712 85.5647 72.3908C85.5647 72.6375 85.5919 72.8786 85.6409 73.1113C83.8027 73.9727 82.5211 75.8362 82.5211 78.0143C82.5211 79.487 83.1088 80.8194 84.0559 81.7967H83.6369C82.2362 81.7967 81.1008 82.9408 81.1008 84.3523C81.1008 85.7632 82.2362 86.9078 83.6369 86.9078H84.3609C83.9759 87.4214 83.7386 88.0545 83.7386 88.7482C83.7386 90.3174 84.9124 91.5965 86.4206 91.7788C86.4039 91.9262 86.376 92.0715 86.376 92.2234C86.376 94.3701 88.1023 96.1086 90.2317 96.1086H90.2522C90.3079 97.3574 91.3124 98.3579 92.5652 98.3579H103.522C104.811 98.3579 105.855 97.3042 105.855 96.0065C105.855 95.5903 105.72 95.2214 105.532 94.8827H106.972C108.148 94.8827 109.102 93.9204 109.102 92.7349C109.102 92.0013 108.712 91.384 108.154 90.9975H109.203C110.156 90.9975 110.928 90.2197 110.928 89.2592C110.928 88.8829 110.784 88.5543 110.583 88.2699C112.317 87.6524 113.565 86.0032 113.565 84.045Z" fill="#709114"/>
<path d="M99.8399 94.7548C99.8399 93.4942 98.9946 92.4719 97.8553 92.1259C98.5422 91.9133 99.0268 91.417 99.1804 90.7021H103.107C104.634 90.7021 105.873 89.4543 105.873 87.9154C105.873 86.3767 104.634 85.1289 103.107 85.1289H98.2049C98.255 84.9192 98.3317 84.7212 98.3317 84.4958C98.3317 82.957 97.0935 81.7093 95.567 81.7093H83.9986L84.0559 81.7967H83.6375C82.2362 81.7967 81.1008 82.9408 81.1008 84.3523C81.1008 85.7632 82.2362 86.9078 83.6375 86.9078H84.3609C83.9753 87.4214 83.7382 88.0545 83.7382 88.7482C83.7382 90.3174 84.9124 91.5965 86.4206 91.7788C86.404 91.9262 86.376 92.0715 86.376 92.2234C86.376 94.3701 88.1023 96.1086 90.2317 96.1086H90.2522C90.3079 97.3574 91.3124 98.3579 92.5646 98.3579H103.522C104.811 98.3579 105.855 97.3042 105.855 96.0065L105.823 95.8944H99.5856C99.7426 95.5444 99.8399 95.1625 99.8399 94.7548Z" fill="#5F8012"/>
<path d="M107.226 72.8902C107.25 72.7266 107.276 72.5616 107.276 72.3906C107.276 70.4711 105.732 68.9149 103.827 68.9149H103.391C103.662 68.4657 103.827 67.9447 103.827 67.3817C103.827 65.7436 102.509 64.4174 100.885 64.4174H97.9064C97.8285 64.6484 97.7461 64.8784 97.7461 65.1352C97.7461 66.2058 98.4652 67.076 99.4336 67.3705C98.8497 67.5511 98.4378 67.9733 98.3065 68.5818H94.968C93.6697 68.5818 92.6167 69.6427 92.6167 70.9506C92.6167 72.2583 93.6697 73.3193 94.968 73.3193H99.1364C99.094 73.4976 99.0284 73.6669 99.0284 73.8577C99.0284 75.1671 100.081 76.228 101.38 76.228H110.614C110.059 74.6545 108.808 73.4157 107.226 72.8902Z" fill="#8BB43D"/>
<path d="M45.3654 108.498H45.7359C45.5389 108.761 45.4176 109.085 45.4176 109.44C45.4176 110.244 46.0187 110.898 46.7906 110.991L46.7677 111.22C46.7677 111.442 46.8268 111.646 46.8935 111.847H61.7298C61.7709 111.731 61.8033 111.61 61.8033 111.481C61.8033 111.105 61.604 110.789 61.3179 110.591H61.855C62.3425 110.591 62.7382 110.193 62.7382 109.701C62.7382 109.509 62.6648 109.34 62.5618 109.196C63.4488 108.878 64.0889 108.034 64.0889 107.032C64.0889 106.031 63.4528 105.189 62.5691 104.872C62.6719 104.58 62.7382 104.27 62.7382 103.944C62.7382 102.715 61.9406 101.686 60.8426 101.321L60.8677 101.065C60.8677 100.082 60.0774 99.2856 59.1019 99.2856H58.8787C59.0179 99.0556 59.1019 98.7887 59.1019 98.5005C59.1019 97.6621 58.4273 96.983 57.5959 96.983H50.9756C50.1436 96.983 49.469 97.6621 49.469 98.5005C49.469 98.7887 49.5531 99.0556 49.6923 99.2856H48.1184C47.1428 99.2856 46.3525 100.082 46.3525 101.065L46.3916 101.433C45.4504 101.875 44.7943 102.829 44.7943 103.944C44.7943 104.698 45.0948 105.38 45.5802 105.881H45.3654C44.6485 105.881 44.0669 106.466 44.0669 107.189C44.0669 107.912 44.6485 108.498 45.3654 108.498Z" fill="#5F8012"/>
<path d="M44.2768 108.498H44.6481C44.4505 108.761 44.3291 109.085 44.3291 109.44C44.3291 110.244 44.9302 110.898 45.7027 110.991L45.6799 111.22C45.6799 111.442 45.7389 111.646 45.8057 111.847H57.2415C57.2827 111.731 57.315 111.61 57.315 111.481C57.315 111.105 57.1157 110.789 56.8296 110.591H57.3667C57.8548 110.591 58.2499 110.193 58.2499 109.701C58.2499 109.509 58.1765 109.34 58.0735 109.196C58.9611 108.878 59.6007 108.034 59.6007 107.032C59.6007 106.031 58.9645 105.189 58.0808 104.872C58.1837 104.58 58.2499 104.27 58.2499 103.944C58.2499 102.715 57.4525 101.686 56.3545 101.321L56.38 101.065C56.38 100.082 55.5892 99.2856 54.6142 99.2856H54.391C54.5296 99.0556 54.6142 98.7887 54.6142 98.5005C54.6142 97.6621 53.9397 96.983 53.1076 96.983H49.8871C49.0551 96.983 48.3807 97.6621 48.3807 98.5005C48.3807 98.7887 48.4653 99.0556 48.6038 99.2856H47.0299C46.055 99.2856 45.2642 100.082 45.2642 101.065L45.303 101.433C44.362 101.875 43.7058 102.829 43.7058 103.944C43.7058 104.698 44.007 105.38 44.4917 105.881H44.2768C43.5601 105.881 42.9785 106.466 42.9785 107.189C42.9785 107.912 43.5601 108.498 44.2768 108.498Z" fill="#8BB43D"/>
<path d="M44.2774 108.498H44.6481C44.4505 108.761 44.3291 109.085 44.3291 109.44C44.3291 110.244 44.9302 110.898 45.7027 110.991L45.6799 111.22C45.6799 111.442 45.7383 111.646 45.8051 111.847H52.3453C52.1649 111.534 51.9106 111.276 51.5573 111.17C51.9085 111.06 52.1567 110.806 52.2356 110.44H54.2458C55.0277 110.44 55.6615 109.801 55.6615 109.013C55.6615 108.225 55.0277 107.586 54.2458 107.586H51.7359L51.8011 107.263C51.8011 106.475 51.1665 105.836 50.3852 105.836H44.4628L44.4917 105.881H44.2774C43.5601 105.881 42.9785 106.466 42.9785 107.189C42.9785 107.912 43.5601 108.498 44.2774 108.498Z" fill="#709114"/>
<path d="M56.3545 101.321L56.38 101.064C56.38 100.082 55.5891 99.2854 54.6136 99.2854H54.391C54.5296 99.0554 54.6136 98.7886 54.6136 98.5003C54.6136 97.6619 53.9396 96.9829 53.1076 96.9829H51.5827C51.5427 97.1006 51.5004 97.2183 51.5004 97.3501C51.5004 97.8986 51.8688 98.3438 52.3648 98.4941C52.0653 98.5877 51.855 98.8031 51.7876 99.1143H50.078C49.4135 99.1143 48.8743 99.6573 48.8743 100.328C48.8743 100.998 49.4135 101.541 50.078 101.541H52.2122L52.1572 101.816C52.1572 102.485 52.6964 103.03 53.3609 103.03H58.0884C57.8052 102.224 57.1641 101.59 56.3545 101.321Z" fill="#B9DD59"/>
<path d="M103.1 109.035H103.411C103.245 109.256 103.144 109.529 103.144 109.826C103.144 110.501 103.648 111.05 104.296 111.128L104.277 111.321C104.277 111.507 104.326 111.679 104.383 111.847H116.835L116.898 111.54C116.898 111.224 116.73 110.958 116.49 110.793H116.94C117.351 110.793 117.681 110.459 117.681 110.045C117.681 109.885 117.62 109.743 117.535 109.62C118.278 109.355 118.815 108.647 118.815 107.806C118.815 106.966 118.281 106.258 117.54 105.991C117.626 105.747 117.681 105.487 117.681 105.213C117.681 104.182 117.013 103.318 116.091 103.011L116.113 102.797C116.113 101.972 115.449 101.303 114.63 101.303H114.443C114.56 101.11 114.63 100.886 114.63 100.644C114.63 99.9399 114.064 99.3703 113.366 99.3703H107.809C107.11 99.3703 106.545 99.9399 106.545 100.644C106.545 100.886 106.615 101.11 106.731 101.303H105.411C104.592 101.303 103.928 101.972 103.928 102.797L103.961 103.106C103.171 103.476 102.62 104.277 102.62 105.213C102.62 105.846 102.873 106.419 103.28 106.838H103.1C102.498 106.838 102.01 107.331 102.01 107.937C102.01 108.544 102.498 109.035 103.1 109.035Z" fill="#5F8012"/>
<path d="M102.186 109.035H102.497C102.331 109.256 102.23 109.529 102.23 109.826C102.23 110.501 102.734 111.05 103.383 111.128L103.363 111.321C103.363 111.507 103.413 111.679 103.469 111.847H113.068L113.129 111.54C113.129 111.224 112.962 110.958 112.722 110.793H113.173C113.582 110.793 113.914 110.459 113.914 110.045C113.914 109.885 113.853 109.743 113.766 109.62C114.511 109.355 115.048 108.647 115.048 107.806C115.048 106.966 114.514 106.258 113.772 105.991C113.859 105.747 113.914 105.487 113.914 105.213C113.914 104.182 113.245 103.318 112.323 103.011L112.344 102.797C112.344 101.972 111.682 101.303 110.862 101.303H110.676C110.791 101.11 110.862 100.886 110.862 100.644C110.862 99.9399 110.297 99.3703 109.597 99.3703H106.895C106.196 99.3703 105.63 99.9399 105.63 100.644C105.63 100.886 105.701 101.11 105.817 101.303H104.497C103.678 101.303 103.015 101.972 103.015 102.797L103.047 103.106C102.257 103.476 101.706 104.277 101.706 105.213C101.706 105.846 101.959 106.419 102.366 106.838H102.186C101.584 106.838 101.096 107.331 101.096 107.937C101.096 108.544 101.584 109.035 102.186 109.035Z" fill="#8BB43D"/>
<path d="M102.186 109.035H102.497C102.331 109.256 102.23 109.529 102.23 109.826C102.23 110.501 102.734 111.05 103.383 111.128L103.363 111.321C103.363 111.507 103.413 111.679 103.469 111.847H108.958C108.807 111.585 108.593 111.368 108.297 111.279C108.592 111.187 108.8 110.973 108.866 110.666H110.553C111.21 110.666 111.742 110.13 111.742 109.468C111.742 108.807 111.21 108.271 110.553 108.271H108.447L108.501 107.998C108.501 107.338 107.969 106.801 107.313 106.801H102.341L102.366 106.838H102.186C101.584 106.838 101.096 107.331 101.096 107.937C101.096 108.544 101.584 109.035 102.186 109.035Z" fill="#709114"/>
<path d="M112.323 103.011L112.344 102.797C112.344 101.972 111.682 101.303 110.863 101.303H110.676C110.791 101.11 110.863 100.886 110.863 100.644C110.863 99.9399 110.297 99.3703 109.599 99.3703H108.319L108.249 99.6787C108.249 100.14 108.558 100.513 108.975 100.639C108.724 100.717 108.547 100.898 108.491 101.159H107.055C106.498 101.159 106.045 101.616 106.045 102.178C106.045 102.739 106.498 103.196 107.055 103.196H108.847L108.801 103.427C108.801 103.99 109.253 104.445 109.811 104.445H113.779C113.541 103.769 113.002 103.238 112.323 103.011Z" fill="#B9DD59"/>
<path d="M29.8375 109.437H30.1047C29.9628 109.626 29.8753 109.859 29.8753 110.114C29.8753 110.693 30.3077 111.164 30.8637 111.231L30.8471 111.395C30.8471 111.555 30.8892 111.702 30.9371 111.847H41.6146L41.6674 111.583C41.6674 111.313 41.5238 111.086 41.3185 110.943H41.7048C42.0558 110.943 42.3402 110.655 42.3402 110.302C42.3402 110.165 42.2873 110.042 42.2134 109.938C42.8516 109.711 43.312 109.104 43.312 108.381C43.312 107.663 42.8545 107.055 42.2184 106.827C42.2925 106.617 42.3402 106.395 42.3402 106.159C42.3402 105.275 41.7659 104.534 40.9762 104.271L40.9946 104.088C40.9946 103.38 40.4253 102.807 39.7235 102.807H39.5626C39.6628 102.642 39.7235 102.45 39.7235 102.242C39.7235 101.639 39.2382 101.149 38.6394 101.149H33.875C33.2762 101.149 32.7909 101.639 32.7909 102.242C32.7909 102.45 32.8516 102.642 32.9512 102.807H31.8193C31.1169 102.807 30.5482 103.38 30.5482 104.088L30.5759 104.353C29.8987 104.671 29.4268 105.357 29.4268 106.159C29.4268 106.702 29.6432 107.193 29.9923 107.553H29.8375C29.3216 107.553 28.9031 107.974 28.9031 108.495C28.9031 109.015 29.3216 109.437 29.8375 109.437Z" fill="#5F8012"/>
<path d="M29.0541 109.437H29.3206C29.1787 109.626 29.0913 109.859 29.0913 110.114C29.0913 110.693 29.5237 111.164 30.0797 111.231L30.0635 111.395C30.0635 111.555 30.1058 111.702 30.1537 111.847H38.3841L38.4369 111.583C38.4369 111.313 38.2933 111.086 38.088 110.943H38.4743C38.8253 110.943 39.1098 110.655 39.1098 110.302C39.1098 110.165 39.0568 110.042 38.9829 109.938C39.6212 109.711 40.0815 109.104 40.0815 108.381C40.0815 107.663 39.624 107.055 38.9879 106.827C39.062 106.617 39.1098 106.395 39.1098 106.159C39.1098 105.275 38.5354 104.534 37.7457 104.271L37.7641 104.088C37.7641 103.38 37.1948 102.807 36.493 102.807H36.3327C36.4324 102.642 36.493 102.45 36.493 102.242C36.493 101.639 36.0077 101.149 35.4089 101.149H33.0909C32.4927 101.149 32.0069 101.639 32.0069 102.242C32.0069 102.45 32.0682 102.642 32.1677 102.807H31.0353C30.3329 102.807 29.7641 103.38 29.7641 104.088L29.7925 104.353C29.1152 104.671 28.6428 105.357 28.6428 106.159C28.6428 106.702 28.8592 107.193 29.2082 107.553H29.0541C28.5381 107.553 28.1196 107.974 28.1196 108.495C28.1196 109.015 28.5381 109.437 29.0541 109.437Z" fill="#8BB43D"/>
<path d="M29.0541 109.437H29.3206C29.1787 109.626 29.0913 109.859 29.0913 110.114C29.0913 110.693 29.5237 111.164 30.0797 111.231L30.063 111.395C30.063 111.555 30.1052 111.702 30.1537 111.847H34.8601C34.7305 111.622 34.5474 111.437 34.2931 111.359C34.5457 111.28 34.7243 111.098 34.7812 110.834H36.2281C36.7907 110.834 37.2465 110.375 37.2465 109.807C37.2465 109.24 36.7907 108.781 36.2281 108.781H34.4216L34.4683 108.548C34.4683 107.981 34.012 107.52 33.4494 107.52H29.187L29.2082 107.553H29.0541C28.5381 107.553 28.1196 107.974 28.1196 108.495C28.1196 109.015 28.5381 109.437 29.0541 109.437Z" fill="#709114"/>
<path d="M37.7449 104.271L37.7639 104.087C37.7639 103.379 37.1946 102.807 36.4928 102.807H36.3319C36.4322 102.642 36.4928 102.449 36.4928 102.241C36.4928 101.638 36.0075 101.149 35.4087 101.149H34.3113L34.2523 101.415C34.2523 101.809 34.5171 102.129 34.8739 102.237C34.6585 102.305 34.5072 102.459 34.4587 102.684H33.2282C32.7502 102.684 32.3623 103.074 32.3623 103.556C32.3623 104.038 32.7502 104.429 33.2282 104.429H34.7643L34.7247 104.627C34.7247 105.11 35.1127 105.501 35.5912 105.501H38.9932C38.7895 104.922 38.3282 104.465 37.7449 104.271Z" fill="#B9DD59"/>
<path d="M118.897 108.294H119.305C119.087 108.584 118.954 108.942 118.954 109.335C118.954 110.222 119.617 110.945 120.471 111.049L120.445 111.3C120.445 111.545 120.509 111.772 120.583 111.993H136.972C137.017 111.865 137.053 111.732 137.053 111.59C137.053 111.173 136.832 110.825 136.516 110.606H137.11C137.648 110.606 138.084 110.166 138.084 109.623C138.084 109.411 138.005 109.225 137.891 109.065C138.871 108.714 139.577 107.783 139.577 106.674C139.577 105.571 138.874 104.64 137.898 104.289C138.012 103.967 138.084 103.625 138.084 103.265C138.084 101.907 137.204 100.77 135.991 100.366L136.02 100.085C136.02 98.9982 135.147 98.1183 134.07 98.1183H133.823C133.975 97.8653 134.07 97.5697 134.07 97.2507C134.07 96.3249 133.324 95.574 132.405 95.574H125.093C124.174 95.574 123.428 96.3249 123.428 97.2507C123.428 97.5697 123.521 97.8653 123.675 98.1183H121.937C120.86 98.1183 119.986 98.9982 119.986 100.085C119.986 100.224 120.002 100.36 120.029 100.491C118.989 100.979 118.265 102.033 118.265 103.265C118.265 104.097 118.597 104.851 119.133 105.402H118.897C118.104 105.402 117.462 106.05 117.462 106.848C117.462 107.646 118.104 108.294 118.897 108.294Z" fill="#5F8012"/>
<path d="M117.694 108.294H118.103C117.885 108.584 117.751 108.942 117.751 109.335C117.751 110.222 118.415 110.945 119.269 111.049L119.243 111.3C119.243 111.545 119.309 111.772 119.383 111.993H132.014C132.06 111.865 132.095 111.732 132.095 111.59C132.095 111.173 131.874 110.825 131.56 110.606H132.152C132.691 110.606 133.128 110.166 133.128 109.623C133.128 109.411 133.047 109.225 132.933 109.065C133.913 108.714 134.62 107.783 134.62 106.674C134.62 105.571 133.917 104.64 132.94 104.289C133.054 103.967 133.128 103.625 133.128 103.265C133.128 101.907 132.246 100.77 131.034 100.366L131.062 100.085C131.062 98.9982 130.189 98.1183 129.112 98.1183H128.865C129.018 97.8653 129.112 97.5697 129.112 97.2507C129.112 96.3249 128.367 95.574 127.448 95.574H123.89C122.971 95.574 122.226 96.3249 122.226 97.2507C122.226 97.5697 122.32 97.8653 122.473 98.1183H120.735C119.658 98.1183 118.784 98.9982 118.784 100.085C118.784 100.224 118.8 100.36 118.827 100.491C117.788 100.979 117.063 102.033 117.063 103.265C117.063 104.097 117.395 104.851 117.931 105.402H117.694C116.902 105.402 116.26 106.05 116.26 106.848C116.26 107.646 116.902 108.294 117.694 108.294Z" fill="#8BB43D"/>
<path d="M117.694 108.294H118.103C117.885 108.584 117.751 108.942 117.751 109.335C117.751 110.222 118.415 110.945 119.269 111.049L119.243 111.3C119.243 111.545 119.309 111.772 119.383 111.993H126.606C126.406 111.649 126.126 111.363 125.735 111.245C126.123 111.124 126.398 110.844 126.485 110.439H128.704C129.568 110.439 130.269 109.734 130.269 108.863C130.269 107.994 129.568 107.287 128.704 107.287H125.932L126.005 106.93C126.005 106.06 125.304 105.353 124.44 105.353H117.898L117.931 105.402H117.694C116.902 105.402 116.26 106.05 116.26 106.848C116.26 107.646 116.902 108.294 117.694 108.294Z" fill="#709114"/>
<path d="M131.034 100.366L131.062 100.085C131.062 98.9981 130.189 98.1182 129.112 98.1182H128.865C129.018 97.8652 129.112 97.5697 129.112 97.2507C129.112 96.3248 128.367 95.5739 127.448 95.5739H125.764C125.72 95.7045 125.673 95.8352 125.673 95.9804C125.673 96.5861 126.079 97.0785 126.627 97.2451C126.297 97.3471 126.064 97.5854 125.99 97.9297H124.101C123.368 97.9297 122.772 98.5304 122.772 99.2694C122.772 100.01 123.368 100.61 124.101 100.61H126.459L126.398 100.915C126.398 101.654 126.993 102.254 127.727 102.254H132.95C132.637 101.364 131.928 100.664 131.034 100.366Z" fill="#B9DD59"/>
<path d="M66.9653 109.437H67.2319C67.09 109.626 67.0026 109.859 67.0026 110.114C67.0026 110.693 67.435 111.164 67.991 111.231L67.9749 111.395C67.9749 111.555 68.0172 111.702 68.065 111.847H78.7424L78.7952 111.583C78.7952 111.313 78.6516 111.086 78.4458 110.943H78.8326C79.1832 110.943 79.4681 110.655 79.4681 110.302C79.4681 110.165 79.4153 110.042 79.3412 109.938C79.9796 109.711 80.4398 109.104 80.4398 108.381C80.4398 107.663 79.9823 107.055 79.3462 106.827C79.4202 106.617 79.4681 106.395 79.4681 106.159C79.4681 105.275 78.8938 104.534 78.1036 104.271L78.1219 104.088C78.1219 103.38 77.5532 102.807 76.8514 102.807H76.6905C76.7907 102.642 76.8514 102.45 76.8514 102.242C76.8514 101.639 76.366 101.149 75.7672 101.149H71.0029C70.4041 101.149 69.9188 101.639 69.9188 102.242C69.9188 102.45 69.9788 102.642 70.0791 102.807H68.9465C68.2448 102.807 67.6754 103.38 67.6754 104.088L67.7039 104.353C67.0266 104.671 66.554 105.357 66.554 106.159C66.554 106.702 66.7706 107.193 67.1195 107.553H66.9653C66.4494 107.553 66.031 107.974 66.031 108.495C66.031 109.015 66.4494 109.437 66.9653 109.437Z" fill="#5F8012"/>
<path d="M66.1816 109.437H66.4488C66.3069 109.626 66.2195 109.859 66.2195 110.114C66.2195 110.693 66.6519 111.164 67.2078 111.231L67.1912 111.395C67.1912 111.555 67.2335 111.702 67.2819 111.847H75.5122L75.5645 111.583C75.5645 111.313 75.4216 111.086 75.2156 110.943H75.6018C75.953 110.943 76.2374 110.655 76.2374 110.302C76.2374 110.165 76.1851 110.042 76.111 109.938C76.7494 109.711 77.2096 109.104 77.2096 108.381C77.2096 107.663 76.7517 107.055 76.1161 106.827C76.1901 106.617 76.2374 106.395 76.2374 106.159C76.2374 105.275 75.6637 104.534 74.8734 104.271L74.8918 104.088C74.8918 103.38 74.323 102.807 73.6212 102.807H73.4604C73.5605 102.642 73.6212 102.45 73.6212 102.242C73.6212 101.639 73.136 101.149 72.537 101.149H70.2192C69.6204 101.149 69.1352 101.639 69.1352 102.242C69.1352 102.45 69.1957 102.642 69.2954 102.807H68.1634C67.4611 102.807 66.8923 103.38 66.8923 104.088L66.9202 104.353C66.2435 104.671 65.7709 105.357 65.7709 106.159C65.7709 106.702 65.9874 107.193 66.3363 107.553H66.1816C65.6657 107.553 65.2473 107.974 65.2473 108.495C65.2473 109.015 65.6657 109.437 66.1816 109.437Z" fill="#8BB43D"/>
<path d="M66.1822 109.437H66.4488C66.3063 109.626 66.2195 109.859 66.2195 110.114C66.2195 110.693 66.6519 111.164 67.2078 111.231L67.1912 111.395C67.1912 111.555 67.2335 111.702 67.2819 111.847H71.9884C71.8587 111.622 71.6757 111.437 71.4212 111.359C71.674 111.28 71.8526 111.098 71.9093 110.834H73.3562C73.919 110.834 74.3747 110.375 74.3747 109.807C74.3747 109.24 73.919 108.781 73.3562 108.781H71.5499L71.5966 108.548C71.5966 107.981 71.1403 107.52 70.5777 107.52H66.3153L66.3363 107.553H66.1822C65.6657 107.553 65.2473 107.974 65.2473 108.495C65.2473 109.015 65.6657 109.437 66.1822 109.437Z" fill="#709114"/>
<path d="M74.8738 104.271L74.8922 104.087C74.8922 103.379 74.3235 102.807 73.6217 102.807H73.4608C73.561 102.642 73.6217 102.449 73.6217 102.241C73.6217 101.638 73.1364 101.149 72.5375 101.149H71.44L71.3811 101.415C71.3811 101.809 71.6461 102.129 72.0028 102.237C71.7874 102.305 71.6359 102.459 71.5876 102.684H70.3571C69.879 102.684 69.4912 103.074 69.4912 103.556C69.4912 104.038 69.879 104.429 70.3571 104.429H71.8931L71.8536 104.627C71.8536 105.11 72.2414 105.501 72.7196 105.501H76.1221C75.9178 104.922 75.4565 104.465 74.8738 104.271Z" fill="#B9DD59"/>
<path d="M18.3807 110.195H18.5632C18.4657 110.325 18.4062 110.485 18.4062 110.66C18.4062 111.056 18.7022 111.379 19.0835 111.425L19.0718 111.537L19.1342 111.847H26.4501L26.4863 111.666C26.4863 111.481 26.3884 111.324 26.247 111.227H26.5119C26.7523 111.227 26.9476 111.03 26.9476 110.789L26.8603 110.539C27.2982 110.383 27.6132 109.966 27.6132 109.473C27.6132 108.979 27.2999 108.564 26.8641 108.406C26.9149 108.263 26.9476 108.11 26.9476 107.95C26.9476 107.344 26.5543 106.835 26.0127 106.656L26.0256 106.53C26.0256 106.046 25.6353 105.653 25.1545 105.653H25.0444C25.1128 105.539 25.1545 105.407 25.1545 105.265C25.1545 104.851 24.8218 104.517 24.4117 104.517H21.1471C20.737 104.517 20.4042 104.851 20.4042 105.265C20.4042 105.407 20.4459 105.539 20.5143 105.653H19.738C19.2571 105.653 18.8671 106.046 18.8671 106.53L18.8864 106.712C18.4224 106.928 18.0984 107.4 18.0984 107.95C18.0984 108.321 18.247 108.657 18.4864 108.904H18.3807C18.0266 108.904 17.74 109.193 17.74 109.55C17.74 109.906 18.0266 110.195 18.3807 110.195Z" fill="#5F8012"/>
<path d="M17.8438 110.195H18.0269C17.9296 110.325 17.8695 110.485 17.8695 110.66C17.8695 111.056 18.1661 111.379 18.5468 111.425L18.5357 111.537L18.5973 111.847H24.2371L24.2733 111.666C24.2733 111.481 24.1753 111.324 24.034 111.227H24.299C24.5393 111.227 24.7346 111.03 24.7346 110.789L24.6473 110.539C25.0852 110.383 25.4002 109.966 25.4002 109.473C25.4002 108.979 25.087 108.564 24.6511 108.406C24.7019 108.263 24.7346 108.11 24.7346 107.95C24.7346 107.344 24.3413 106.835 23.7997 106.656L23.8126 106.53C23.8126 106.046 23.4223 105.653 22.9415 105.653H22.8314C22.8998 105.539 22.9415 105.407 22.9415 105.265C22.9415 104.851 22.6087 104.517 22.1985 104.517H20.6103C20.2001 104.517 19.8673 104.851 19.8673 105.265C19.8673 105.407 19.9091 105.539 19.9776 105.653H19.2017C18.7203 105.653 18.3308 106.046 18.3308 106.53L18.3503 106.712C17.8861 106.928 17.5622 107.4 17.5622 107.95C17.5622 108.321 17.7108 108.657 17.9495 108.904H17.8438C17.4905 108.904 17.2039 109.193 17.2039 109.55C17.2039 109.906 17.4905 110.195 17.8438 110.195Z" fill="#8BB43D"/>
<path d="M17.8444 110.195H18.0269C17.9296 110.325 17.8695 110.485 17.8695 110.66C17.8695 111.056 18.1661 111.379 18.5468 111.425L18.5357 111.537L18.5973 111.847H21.8224C21.7339 111.692 21.6081 111.566 21.4339 111.513C21.607 111.46 21.7294 111.334 21.7684 111.152H22.7601C23.1452 111.152 23.458 110.838 23.458 110.449C23.458 110.061 23.1452 109.745 22.7601 109.745H21.5224L21.5541 109.586C21.5541 109.197 21.2414 108.883 20.8563 108.883H17.9357L17.9495 108.904H17.8444C17.4905 108.904 17.2039 109.193 17.2039 109.55C17.2039 109.906 17.4905 110.195 17.8444 110.195Z" fill="#709114"/>
<path d="M23.7995 106.656L23.8123 106.529C23.8123 106.046 23.4221 105.652 22.9413 105.652H22.8311C22.8995 105.538 22.9413 105.407 22.9413 105.264C22.9413 104.851 22.6085 104.517 22.1983 104.517H21.4465L21.4059 104.697C21.4059 104.969 21.5872 105.187 21.8316 105.262C21.6847 105.308 21.5807 105.414 21.5472 105.568H20.7047C20.3768 105.568 20.1108 105.836 20.1108 106.166C20.1108 106.496 20.3768 106.765 20.7047 106.765H21.7571L21.7297 106.9C21.7297 107.23 21.9958 107.499 22.323 107.499H24.6549C24.5146 107.101 24.1986 106.788 23.7995 106.656Z" fill="#B9DD59"/>
<path d="M80.0479 109.027H80.3763C80.2015 109.26 80.0942 109.547 80.0942 109.862C80.0942 110.573 80.6262 111.154 81.3102 111.235L81.2901 111.437C81.2901 111.634 81.3424 111.817 81.4014 111.993H94.5391L94.6037 111.669C94.6037 111.336 94.4273 111.057 94.1742 110.881H94.65C95.0818 110.881 95.4319 110.529 95.4319 110.094C95.4319 109.923 95.3668 109.774 95.2754 109.645C96.0613 109.365 96.6278 108.618 96.6278 107.73C96.6278 106.843 96.0646 106.099 95.2816 105.816C95.3729 105.559 95.4319 105.285 95.4319 104.995C95.4319 103.908 94.7256 102.995 93.7534 102.672L93.7757 102.446C93.7757 101.575 93.0761 100.87 92.2118 100.87H92.0143C92.1373 100.666 92.2118 100.431 92.2118 100.175C92.2118 99.4333 91.6147 98.8316 90.8784 98.8316H85.016C84.2792 98.8316 83.682 99.4333 83.682 100.175C83.682 100.431 83.7567 100.666 83.8796 100.87H82.4861C81.6223 100.87 80.9222 101.575 80.9222 102.446L80.9567 102.772C80.1237 103.163 79.5422 104.008 79.5422 104.995C79.5422 105.664 79.8087 106.267 80.2383 106.71H80.0479C79.4129 106.71 78.8982 107.229 78.8982 107.869C78.8982 108.509 79.4129 109.027 80.0479 109.027Z" fill="#5F8012"/>
<path d="M79.0845 109.027H79.4122C79.2381 109.26 79.1307 109.547 79.1307 109.862C79.1307 110.573 79.6627 111.154 80.3467 111.235L80.326 111.437C80.326 111.634 80.3784 111.817 80.438 111.993H90.5644L90.6295 111.669C90.6295 111.336 90.453 111.057 90.1998 110.881H90.6751C91.1069 110.881 91.457 110.529 91.457 110.094C91.457 109.923 91.3918 109.774 91.3012 109.645C92.087 109.365 92.653 108.618 92.653 107.73C92.653 106.843 92.0898 106.099 91.3074 105.816C91.3985 105.559 91.457 105.285 91.457 104.995C91.457 103.908 90.7507 102.995 89.7785 102.672L89.8013 102.446C89.8013 101.575 89.1012 100.87 88.2376 100.87H88.04C88.1629 100.666 88.2376 100.431 88.2376 100.175C88.2376 99.4333 87.6403 98.8316 86.9035 98.8316H84.052C83.3151 98.8316 82.718 99.4333 82.718 100.175C82.718 100.431 82.7926 100.666 82.9155 100.87H81.522C80.6582 100.87 79.9581 101.575 79.9581 102.446L79.9928 102.772C79.1596 103.163 78.5786 104.008 78.5786 104.995C78.5786 105.664 78.8452 106.267 79.2743 106.71H79.0845C78.4495 106.71 77.9341 107.229 77.9341 107.869C77.9341 108.509 78.4495 109.027 79.0845 109.027Z" fill="#8BB43D"/>
<path d="M79.0845 109.027H79.4122C79.2375 109.26 79.1307 109.547 79.1307 109.862C79.1307 110.573 79.6621 111.154 80.3467 111.235L80.326 111.437C80.326 111.634 80.3784 111.817 80.4374 111.993H86.2285C86.0693 111.716 85.844 111.488 85.5307 111.393C85.8417 111.297 86.0615 111.072 86.1312 110.747H87.9115C88.6037 110.747 89.1652 110.181 89.1652 109.484C89.1652 108.786 88.6037 108.221 87.9115 108.221H85.6892L85.7465 107.933C85.7465 107.236 85.185 106.67 84.4928 106.67H79.2486L79.2743 106.71H79.0845C78.4495 106.71 77.9341 107.229 77.9341 107.869C77.9341 108.509 78.4495 109.027 79.0845 109.027Z" fill="#709114"/>
<path d="M89.7786 102.672L89.8014 102.447C89.8014 101.575 89.1013 100.87 88.2377 100.87H88.0401C88.163 100.667 88.2377 100.431 88.2377 100.175C88.2377 99.4335 87.6404 98.8307 86.9036 98.8307H85.5536L85.4806 99.1564C85.4806 99.6426 85.8067 100.036 86.2458 100.17C85.981 100.252 85.7945 100.444 85.7349 100.719H84.2212C83.6324 100.719 83.1555 101.201 83.1555 101.793C83.1555 102.387 83.6324 102.867 84.2212 102.867H86.1112L86.0622 103.111C86.0622 103.704 86.5397 104.185 87.128 104.185H91.3146C91.0637 103.472 90.4959 102.91 89.7786 102.672Z" fill="#B9DD59"/>
<path d="M121.91 15.8022H116.526C116.217 13.5356 114.288 11.7881 111.954 11.7881H106.381C106.413 11.6104 106.432 11.4281 106.432 11.2414C106.432 9.52877 105.054 8.14025 103.354 8.14025H100.096C98.3962 8.14025 97.0183 9.52877 97.0183 11.2414C97.0183 11.4281 97.0377 11.6104 97.0689 11.7881H95.4795C92.9557 11.7881 90.9066 13.83 90.8654 16.362C88.9421 16.5027 87.4233 18.115 87.4233 20.089C87.4233 22.1531 89.0851 23.8287 91.1348 23.8287H92.3847C93.0442 25.1281 94.3848 26.018 95.932 26.018H99.7624C100.359 27.207 101.579 28.0234 102.992 28.0234H106.07C107.483 28.0234 108.704 27.207 109.3 26.018H109.51C111.266 26.018 112.756 24.8707 113.285 23.2803H121.91C123.96 23.2803 125.621 21.6064 125.621 19.5421C125.621 17.4762 123.96 15.8022 121.91 15.8022Z" fill="#CAFFFF"/>
<path d="M143.073 47.9237H138.772C138.526 46.1136 136.984 44.7177 135.119 44.7177H130.669C130.693 44.5759 130.709 44.4306 130.709 44.2803C130.709 42.912 129.607 41.8039 128.25 41.8039H125.647C124.289 41.8039 123.189 42.912 123.189 44.2803C123.189 44.4306 123.203 44.5759 123.229 44.7177H121.96C119.944 44.7177 118.305 46.349 118.272 48.3718C116.737 48.4835 115.524 49.7715 115.524 51.3491C115.524 52.9989 116.851 54.3363 118.488 54.3363H119.488C120.013 55.3744 121.085 56.0854 122.321 56.0854H125.38C125.857 57.0354 126.832 57.687 127.96 57.687H130.419C131.548 57.687 132.524 57.0354 132.999 56.0854H133.168C134.571 56.0854 135.76 55.1691 136.184 53.8989H143.073C144.71 53.8989 146.038 52.5609 146.038 50.9111C146.038 49.2617 144.71 47.9237 143.073 47.9237Z" fill="#CAFFFF"/>
<path d="M18.6072 49.7462H15.7017C15.5352 48.5225 14.4945 47.5799 13.2351 47.5799H10.2283L10.2555 47.2855C10.2555 46.3608 9.51251 45.6115 8.59544 45.6115H6.8368C5.9203 45.6115 5.17675 46.3608 5.17675 47.2855L5.20397 47.5799H4.34644C2.98458 47.5799 1.87874 48.6807 1.85651 50.0473C0.819198 50.1235 0 50.9933 0 52.0589C0 53.1726 0.896559 54.076 2.0024 54.076H2.67685C3.03245 54.7775 3.75534 55.257 4.59078 55.257H6.65715C6.9787 55.8991 7.63762 56.3398 8.40012 56.3398H10.0602C10.8227 56.3398 11.4816 55.8991 11.8033 55.257H11.9163C12.864 55.257 13.6676 54.6385 13.9536 53.7816H18.6072C19.713 53.7816 20.6096 52.877 20.6096 51.7627C20.6096 50.6491 19.713 49.7462 18.6072 49.7462Z" fill="#CAFFFF"/>
<path d="M99.6524 24.3093H104.295C104.562 22.3545 106.225 20.8482 108.238 20.8482H113.042C113.015 20.6945 113 20.538 113 20.3761C113 18.9 114.188 17.7027 115.652 17.7027H118.462C119.928 17.7027 121.116 18.9 121.116 20.3761C121.116 20.538 121.099 20.6945 121.072 20.8482H122.442C124.619 20.8482 126.386 22.6084 126.422 24.7921C128.08 24.9127 129.389 26.3035 129.389 28.0049C129.389 29.7865 127.957 31.2294 126.189 31.2294H125.111C124.542 32.3505 123.387 33.1171 122.054 33.1171H118.75C118.235 34.1433 117.182 34.8481 115.964 34.8481H113.312C112.094 34.8481 111.041 34.1433 110.526 33.1171H110.345C108.831 33.1171 107.546 32.1295 107.09 30.7584H99.6524C97.8848 30.7584 96.4524 29.3143 96.4524 27.5339C96.4524 25.7523 97.8848 24.3093 99.6524 24.3093Z" fill="#84DCE1"/>
<path d="M58.6186 4.768H61.9701C62.162 3.35651 63.3624 2.2696 64.8155 2.2696H68.2832L68.252 1.9298C68.252 0.864286 69.1096 0.000196457 70.167 0.000196457H72.195C73.2529 0.000196457 74.1104 0.864286 74.1104 1.9298L74.0788 2.2696H75.0683C76.6388 2.2696 77.9144 3.5404 77.9399 5.1167C79.137 5.20427 80.082 6.20748 80.082 7.43679C80.082 8.72152 79.048 9.76406 77.7725 9.76406H76.9944C76.5837 10.572 75.7494 11.1262 74.7868 11.1262H72.4025C72.0314 11.8652 71.2718 12.375 70.3924 12.375H68.4768C67.5976 12.375 66.838 11.8652 66.4667 11.1262H66.3365C65.2435 11.1262 64.3163 10.4128 63.9869 9.42353H58.6186C57.3431 9.42353 56.3091 8.38114 56.3091 7.09526C56.3091 5.80996 57.3431 4.768 58.6186 4.768Z" fill="#84DCE1"/>
<path d="M113.593 53.6962H117.753C117.992 51.9443 119.481 50.5951 121.284 50.5951H125.59C125.566 50.4572 125.55 50.3163 125.55 50.1728C125.55 48.8493 126.614 47.7772 127.928 47.7772H130.445C131.759 47.7772 132.823 48.8493 132.823 50.1728C132.823 50.3163 132.807 50.4572 132.783 50.5951H134.011C135.962 50.5951 137.544 52.1731 137.576 54.1297C139.062 54.2374 140.234 55.4834 140.234 57.0081C140.234 58.6031 138.952 59.8963 137.368 59.8963H136.402C135.893 60.9001 134.857 61.5876 133.662 61.5876H130.703C130.241 62.5061 129.298 63.1382 128.207 63.1382H125.831C124.738 63.1382 123.796 62.5061 123.335 61.5876H123.172C121.816 61.5876 120.665 60.7015 120.256 59.4745H113.593C112.01 59.4745 110.726 58.1807 110.726 56.5842C110.726 54.9894 112.01 53.6962 113.593 53.6962Z" fill="#84DCE1"/>
<path d="M150 115C149.724 113.375 148.329 112.136 146.638 112.136H10.2062C8.51483 112.136 7.11977 113.375 6.84424 115H150Z" fill="#79442B"/>
<path d="M145.406 111.827C145.406 112.121 145.168 112.361 144.876 112.361H11.0031C10.7105 112.361 10.4734 112.121 10.4734 111.827C10.4734 111.532 10.7105 111.293 11.0031 111.293H144.876C145.168 111.293 145.406 111.532 145.406 111.827Z" fill="#709114"/>
</svg>
