<svg width="22" height="22" viewBox="0 0 22 22" fill="none" xmlns="http://www.w3.org/2000/svg">
<path fill-rule="evenodd" clip-rule="evenodd" d="M1.83203 6.8335C1.83203 4.07208 4.07061 1.8335 6.83203 1.8335H15.1654C17.9268 1.8335 20.1654 4.07207 20.1654 6.8335V15.1668C20.1654 17.9283 17.9268 20.1668 15.1654 20.1668H6.83203C4.07061 20.1668 1.83203 17.9283 1.83203 15.1668V6.8335Z" stroke="#535461" stroke-width="2" stroke-linecap="round" stroke-linejoin="round"/>
<path fill-rule="evenodd" clip-rule="evenodd" d="M14.6658 10.4225C14.8979 11.9872 14.1003 13.5243 12.6873 14.2355C11.2744 14.9467 9.56464 14.6715 8.44611 13.553C7.32759 12.4345 7.05247 10.7247 7.76364 9.3118C8.47482 7.89885 10.012 7.10126 11.5767 7.33329C13.1744 7.57021 14.4289 8.82473 14.6658 10.4225Z" stroke="#535461" stroke-width="2" stroke-linecap="round" stroke-linejoin="round"/>
</svg>
