<svg width="22" height="22" viewBox="0 0 22 22" fill="none" xmlns="http://www.w3.org/2000/svg">
<path d="M4.91965 6.87524H0V22.0009H4.91965V6.87524Z" fill="#535461"/>
<path d="M18.3208 7.05263C18.2685 7.03613 18.219 7.01825 18.164 7.00312C18.098 6.988 18.032 6.97562 17.9646 6.96462C17.7034 6.91237 17.4174 6.87524 17.0819 6.87524C14.2137 6.87524 12.3946 8.96121 11.7951 9.767V6.87524H6.87549V22.0009H11.7951V13.7505C11.7951 13.7505 15.5131 8.57207 17.0819 12.3755C17.0819 15.7705 17.0819 22.0009 17.0819 22.0009H22.0002V11.7938C22.0002 9.50848 20.4341 7.60403 18.3208 7.05263Z" fill="#535461"/>
<path d="M2.4062 4.81271C3.73511 4.81271 4.8124 3.73535 4.8124 2.40636C4.8124 1.07736 3.73511 0 2.4062 0C1.07729 0 0 1.07736 0 2.40636C0 3.73535 1.07729 4.81271 2.4062 4.81271Z" fill="#535461"/>
</svg>
