<svg width="245" height="37" viewBox="0 0 245 37" fill="none" xmlns="http://www.w3.org/2000/svg">
<path d="M27.6365 4.6253C20.9609 -1.90511 10.5405 -1.47263 4.35333 5.61999C-1.79309 12.7126 -1.38604 23.784 5.28954 30.3577C11.9651 36.9313 22.3855 36.4556 28.5727 29.363C34.7191 22.2704 34.312 11.1989 27.6365 4.6253ZM24.0137 24.9085L14.1632 28.152L6.6328 20.7567L8.91227 10.0745L18.7221 6.83093L26.2932 14.2695L24.0137 24.9085Z" fill="#FF8500"/>
<path d="M43.6337 19.503C43.7558 20.2815 43.9593 20.887 44.2443 21.2762C44.8141 22.0114 45.791 22.3574 47.1343 22.3574C47.9484 22.3574 48.6404 22.2709 49.1288 22.0547C50.1057 21.7087 50.5942 21.0167 50.5942 20.022C50.5942 19.4598 50.35 19.0273 49.8615 18.6813C49.3731 18.3786 48.6404 18.1191 47.5821 17.8596L45.8317 17.4272C44.0814 17.0379 42.901 16.5622 42.2497 16.0865C41.1507 15.308 40.5808 14.0538 40.5808 12.3239C40.5808 10.767 41.11 9.46958 42.209 8.47489C43.2673 7.43694 44.8548 6.91797 46.9308 6.91797C48.6811 6.91797 50.1465 7.39369 51.3676 8.38839C52.5887 9.33984 53.24 10.767 53.2807 12.5834H50.0243C49.9836 11.5455 49.5359 10.8103 48.7218 10.3778C48.1926 10.075 47.5006 9.94531 46.6865 9.94531C45.791 9.94531 45.0584 10.1183 44.5292 10.5075C44 10.8968 43.7151 11.4157 43.7151 12.0644C43.7151 12.6699 44 13.1456 44.5292 13.4484C44.8548 13.6646 45.5875 13.8808 46.6865 14.1836L49.5359 14.9188C50.7977 15.2215 51.7339 15.654 52.3445 16.173C53.3214 16.9947 53.8099 18.1624 53.8099 19.7193C53.8099 21.3194 53.24 22.6169 52.1003 23.6548C50.9605 24.6928 49.3324 25.2117 47.2157 25.2117C45.0584 25.2117 43.3895 24.6928 42.1276 23.6548C40.9065 22.6169 40.2959 21.1897 40.2959 19.4166H43.6337V19.503Z" fill="white"/>
<path d="M68.8708 23.3088C67.6496 24.6495 65.8586 25.3414 63.5385 25.3414C61.2183 25.3414 59.4273 24.6495 58.2061 23.3088C56.5372 21.6654 55.7231 19.2867 55.7231 16.1729C55.7231 13.0158 56.5372 10.594 58.2061 9.03704C59.4273 7.69636 61.2183 7.00439 63.5385 7.00439C65.8586 7.00439 67.6496 7.69636 68.8708 9.03704C70.499 10.6372 71.3538 13.0158 71.3538 16.1729C71.3131 19.2867 70.499 21.6654 68.8708 23.3088ZM66.7134 20.6707C67.4868 19.6327 67.8939 18.1191 67.8939 16.1729C67.8939 14.2268 67.4868 12.7131 66.7134 11.6751C65.94 10.594 64.841 10.075 63.4978 10.075C62.1545 10.075 61.0555 10.594 60.2821 11.6751C59.468 12.7131 59.0609 14.2268 59.0609 16.1729C59.0609 18.1191 59.468 19.6327 60.2821 20.6707C61.0962 21.7519 62.1545 22.2708 63.4978 22.2708C64.8817 22.2708 65.94 21.7519 66.7134 20.6707Z" fill="white"/>
<path d="M73.918 7.52295H77.3372V21.7514H85.4781V24.8653H73.918V7.52295Z" fill="white"/>
<path d="M92.4385 7.52295H96.3054L102.085 24.8653H98.3814L97.323 21.319H91.2987L90.1997 24.8653H86.6177L92.4385 7.52295ZM92.2349 18.2916H96.4275L94.3516 11.4585L92.2349 18.2916Z" fill="white"/>
<path d="M114.623 7.95543C115.233 8.21491 115.722 8.64739 116.169 9.16636C116.495 9.59884 116.78 10.0746 116.983 10.6368C117.187 11.1558 117.268 11.7612 117.268 12.4532C117.268 13.2749 117.065 14.0966 116.699 14.8751C116.291 15.6535 115.681 16.2157 114.745 16.5617C115.477 16.8645 116.047 17.3402 116.332 17.9456C116.658 18.5511 116.821 19.4593 116.821 20.6702V21.8379C116.821 22.6164 116.861 23.1786 116.902 23.4381C116.983 23.8706 117.187 24.2166 117.513 24.4328V24.8653H113.768C113.646 24.476 113.605 24.1733 113.564 23.9571C113.483 23.4813 113.442 22.9624 113.401 22.4434L113.361 20.8432C113.361 19.7188 113.157 18.9836 112.832 18.6376C112.506 18.2484 111.855 18.0754 110.878 18.0754H107.54V24.8653H104.202V7.52295H112.017C113.157 7.52295 114.012 7.69594 114.623 7.95543ZM107.581 10.507V15.1778H111.244C111.977 15.1778 112.506 15.0913 112.872 14.8751C113.524 14.5291 113.849 13.8804 113.849 12.9289C113.849 11.891 113.524 11.1558 112.913 10.8098C112.547 10.5935 112.017 10.507 111.325 10.507H107.581Z" fill="white"/>
<path d="M121.258 19.6755C121.298 20.454 121.461 21.1027 121.746 21.6217C121.99 22.1407 122.357 22.6164 122.764 22.9191C123.171 23.2651 123.659 23.4813 124.188 23.6543C124.717 23.8273 125.328 23.8706 125.939 23.8706C126.671 23.8706 127.282 23.7841 127.811 23.5678C128.34 23.3948 128.788 23.1354 129.114 22.7894C129.439 22.4434 129.683 22.0974 129.846 21.6649C130.009 21.2325 130.09 20.7567 130.09 20.281C130.09 19.5891 129.928 19.0701 129.643 18.6376C129.358 18.2051 128.991 17.8591 128.503 17.5997C128.055 17.3402 127.526 17.1239 126.915 16.9509C126.305 16.778 125.694 16.6482 125.084 16.4752C124.473 16.3022 123.863 16.1292 123.252 15.913C122.641 15.6968 122.112 15.4373 121.665 15.048C121.217 14.7021 120.81 14.2263 120.525 13.7074C120.24 13.1451 120.077 12.4532 120.077 11.5882C120.077 10.9828 120.199 10.4205 120.443 9.85832C120.688 9.2961 121.013 8.77713 121.502 8.34465C121.95 7.91218 122.56 7.5662 123.252 7.30671C123.944 7.04722 124.758 6.91748 125.654 6.91748C126.59 6.91748 127.363 7.04722 128.055 7.30671C128.747 7.5662 129.317 7.95543 129.765 8.43115C130.213 8.90687 130.538 9.46909 130.782 10.0746C131.027 10.68 131.108 11.372 131.108 12.064H129.643C129.643 11.4152 129.521 10.853 129.317 10.334C129.114 9.85832 128.788 9.46909 128.422 9.16636C128.055 8.86363 127.607 8.64739 127.119 8.4744C126.631 8.34465 126.142 8.25816 125.613 8.25816C124.84 8.25816 124.148 8.3879 123.618 8.60414C123.089 8.82038 122.642 9.12311 122.357 9.51234C122.031 9.90157 121.827 10.2908 121.705 10.7233C121.583 11.1558 121.542 11.6315 121.624 12.064C121.705 12.6262 121.909 13.0587 122.275 13.4046C122.601 13.7506 123.008 14.0101 123.496 14.2263C123.985 14.4426 124.514 14.6156 125.084 14.7453C125.654 14.8751 126.264 15.048 126.875 15.1778C127.485 15.3508 128.055 15.5238 128.625 15.74C129.195 15.9562 129.683 16.2157 130.131 16.605C130.579 16.9509 130.905 17.4267 131.189 17.9456C131.434 18.5079 131.597 19.1998 131.597 20.0215C131.597 21.6217 131.067 22.8759 130.05 23.7408C128.991 24.6058 127.526 25.0815 125.654 25.0815C124.799 25.0815 124.025 24.9518 123.293 24.7355C122.56 24.5193 121.95 24.1301 121.42 23.6543C120.891 23.1786 120.484 22.5731 120.199 21.8812C119.914 21.1892 119.751 20.3675 119.751 19.4161H121.258V19.6755Z" fill="white"/>
<path d="M133.835 16.2161C133.835 14.9619 133.998 13.751 134.324 12.6698C134.65 11.5453 135.138 10.5939 135.749 9.77218C136.4 8.95047 137.173 8.30176 138.109 7.82603C139.046 7.35031 140.145 7.09082 141.366 7.09082C142.628 7.09082 143.767 7.30706 144.704 7.78278C145.681 8.25851 146.454 8.90722 147.105 9.72893C147.756 10.5506 148.245 11.5453 148.571 12.6265C148.896 13.751 149.059 14.9187 149.059 16.2161C149.059 17.4703 148.896 18.638 148.571 19.7624C148.245 20.8436 147.756 21.8383 147.146 22.66C146.495 23.4817 145.721 24.1304 144.785 24.6061C143.849 25.0819 142.709 25.3413 141.488 25.3413C140.226 25.3413 139.127 25.0819 138.191 24.6061C137.255 24.1304 136.441 23.4817 135.83 22.66C135.179 21.8383 134.731 20.8868 134.405 19.7624C133.998 18.638 133.835 17.4703 133.835 16.2161ZM141.488 23.9142C142.546 23.9142 143.442 23.6979 144.215 23.2655C144.989 22.833 145.599 22.2708 146.088 21.5788C146.576 20.8868 146.942 20.0651 147.187 19.1137C147.431 18.1622 147.553 17.2108 147.553 16.2161C147.553 15.0051 147.431 13.924 147.146 12.9725C146.861 12.0211 146.454 11.1994 145.925 10.5074C145.396 9.81542 144.744 9.3397 144.012 8.95047C143.238 8.60449 142.424 8.4315 141.488 8.4315C140.43 8.4315 139.534 8.64774 138.761 9.08021C137.987 9.51269 137.377 10.0749 136.888 10.8101C136.4 11.5453 136.034 12.367 135.789 13.2752C135.545 14.2267 135.423 15.1781 135.423 16.1728C135.423 17.2108 135.545 18.1622 135.789 19.1137C136.034 20.0651 136.4 20.8436 136.888 21.5788C137.377 22.2708 137.987 22.833 138.761 23.2655C139.493 23.6979 140.389 23.9142 141.488 23.9142Z" fill="white"/>
<path d="M152.112 24.8653V7.52295H153.659V23.4813H162.411V24.8653H152.112Z" fill="white"/>
<path d="M164.771 7.52295H166.317V17.8591C166.317 20.0215 166.684 21.5784 167.457 22.5299C168.23 23.4813 169.411 23.9571 171.12 23.9571C172.016 23.9571 172.749 23.8273 173.359 23.5678C173.97 23.3084 174.458 22.9191 174.825 22.4434C175.191 21.9244 175.476 21.319 175.639 20.5405C175.802 19.8053 175.883 18.8971 175.883 17.8591V7.52295H177.43V18.3349C177.43 20.5838 176.901 22.3137 175.842 23.5246C174.784 24.7355 173.196 25.2977 171.08 25.2977C168.963 25.2977 167.376 24.6923 166.317 23.4813C165.259 22.2704 164.771 20.5405 164.771 18.3349V7.52295Z" fill="white"/>
<path d="M179.628 7.52295H191.514V8.90688H186.345V24.8653H184.798V8.90688H179.628V7.52295Z" fill="white"/>
<path d="M194.241 24.8653V7.52295H195.788V24.8653H194.241Z" fill="white"/>
<path d="M199.37 16.2161C199.37 14.9619 199.533 13.751 199.859 12.6698C200.184 11.5453 200.673 10.5939 201.283 9.77218C201.935 8.95047 202.708 8.30176 203.644 7.82603C204.58 7.35031 205.679 7.09082 206.9 7.09082C208.162 7.09082 209.302 7.30706 210.238 7.78278C211.215 8.25851 211.989 8.90722 212.64 9.72893C213.291 10.5506 213.78 11.5453 214.105 12.6265C214.431 13.751 214.594 14.9187 214.594 16.2161C214.594 17.4703 214.431 18.638 214.105 19.7624C213.78 20.8436 213.291 21.8383 212.681 22.66C212.029 23.4817 211.256 24.1304 210.32 24.6061C209.383 25.0819 208.284 25.3413 207.023 25.3413C205.761 25.3413 204.662 25.0819 203.726 24.6061C202.789 24.1304 201.975 23.4817 201.365 22.66C200.713 21.8383 200.266 20.8868 199.94 19.7624C199.533 18.638 199.37 17.4703 199.37 16.2161ZM206.982 23.9142C208.04 23.9142 208.936 23.6979 209.709 23.2655C210.483 22.833 211.093 22.2708 211.582 21.5788C212.07 20.8868 212.436 20.0651 212.681 19.1137C212.925 18.1622 213.047 17.2108 213.047 16.2161C213.047 15.0051 212.925 13.924 212.64 12.9725C212.355 12.0211 211.948 11.1994 211.419 10.5074C210.89 9.81542 210.238 9.3397 209.506 8.95047C208.732 8.60449 207.918 8.4315 206.982 8.4315C205.924 8.4315 205.028 8.64774 204.255 9.08021C203.481 9.51269 202.871 10.0749 202.382 10.8101C201.894 11.5453 201.527 12.367 201.283 13.2752C201.039 14.2267 200.917 15.1781 200.917 16.1728C200.917 17.2108 201.039 18.1622 201.283 19.1137C201.527 20.0651 201.894 20.8436 202.382 21.5788C202.871 22.2708 203.481 22.833 204.255 23.2655C204.987 23.6979 205.924 23.9142 206.982 23.9142Z" fill="white"/>
<path d="M219.193 9.72858H219.152V24.8653H217.605V7.52295H219.356L228.799 22.6596H228.84V7.52295H230.387V24.8653H228.596L219.193 9.72858Z" fill="white"/>
<path d="M234.661 19.6755C234.702 20.454 234.864 21.1027 235.149 21.6217C235.394 22.1407 235.76 22.6164 236.167 22.9191C236.574 23.2651 237.062 23.4813 237.592 23.6543C238.121 23.8273 238.731 23.8706 239.342 23.8706C240.075 23.8706 240.685 23.7841 241.214 23.5678C241.743 23.3948 242.191 23.1354 242.517 22.7894C242.843 22.4434 243.087 22.0974 243.25 21.6649C243.412 21.2325 243.494 20.7567 243.494 20.281C243.494 19.5891 243.331 19.0701 243.046 18.6376C242.761 18.2051 242.395 17.8591 241.906 17.5997C241.459 17.3402 240.929 17.1239 240.319 16.9509C239.708 16.778 239.098 16.6482 238.487 16.4752C237.877 16.3022 237.266 16.1292 236.655 15.913C236.045 15.6968 235.516 15.4373 235.068 15.048C234.62 14.7021 234.213 14.2263 233.928 13.7074C233.643 13.1451 233.48 12.4532 233.48 11.5882C233.48 10.9828 233.603 10.4205 233.847 9.85832C234.091 9.2961 234.417 8.77713 234.905 8.34465C235.353 7.91218 235.963 7.5662 236.655 7.30671C237.347 7.04722 238.161 6.91748 239.057 6.91748C239.993 6.91748 240.767 7.04722 241.459 7.30671C242.151 7.5662 242.72 7.95543 243.168 8.43115C243.616 8.90687 243.982 9.46909 244.186 10.0746C244.43 10.68 244.511 11.372 244.511 12.064H243.046C243.046 11.4152 242.924 10.853 242.72 10.334C242.517 9.85832 242.191 9.46909 241.825 9.16636C241.459 8.86363 241.011 8.64739 240.522 8.4744C240.034 8.34465 239.545 8.25816 239.016 8.25816C238.243 8.25816 237.551 8.3879 237.022 8.60414C236.493 8.82038 236.045 9.12311 235.76 9.51234C235.434 9.90157 235.231 10.2908 235.109 10.7233C234.986 11.1558 234.946 11.6315 235.027 12.064C235.109 12.6262 235.312 13.0587 235.678 13.4046C236.004 13.7506 236.411 14.0101 236.9 14.2263C237.388 14.4426 237.917 14.6156 238.487 14.7453C239.057 14.8751 239.668 15.048 240.278 15.1778C240.889 15.3508 241.459 15.5238 242.028 15.74C242.598 15.9562 243.087 16.2157 243.535 16.605C243.982 16.9509 244.308 17.4267 244.593 17.9456C244.837 18.5079 245 19.1998 245 20.0215C245 21.6217 244.471 22.8759 243.453 23.7408C242.395 24.6058 240.929 25.0815 239.057 25.0815C238.202 25.0815 237.429 24.9518 236.696 24.7355C235.963 24.5193 235.353 24.1301 234.824 23.6543C234.295 23.1786 233.887 22.5731 233.603 21.8812C233.318 21.1892 233.155 20.3675 233.155 19.4161H234.661V19.6755Z" fill="white"/>
<path d="M41.7207 34.9849H119.1" stroke="#FF8500" stroke-width="2.8001" stroke-miterlimit="10"/>
</svg>
