<svg width="245" height="115" viewBox="0 0 245 115" fill="none" xmlns="http://www.w3.org/2000/svg">
<path d="M80.5185 106.439H74.8962V64.0013C74.8962 63.0558 74.1327 62.2905 73.1917 62.2905C72.2507 62.2905 71.4874 63.0558 71.4874 64.0013V106.439H65.4906C64.5487 106.439 63.7861 107.206 63.7861 108.15C63.7861 109.095 64.5487 109.86 65.4906 109.86H80.5185C81.4604 109.86 82.223 109.095 82.223 108.15C82.223 107.206 81.4604 106.439 80.5185 106.439Z" fill="#3D4758"/>
<path d="M111.83 83.3221C111.246 84.5695 109.424 85.5781 107.762 85.5781H19.365C18.4667 85.5781 17.7771 85.2996 17.4665 84.8175C16.6841 83.6005 15.7686 82.1308 15.7686 82.1308L39.4506 36.3186C40.0355 35.0712 41.8563 34.0602 43.5188 34.0602L132.137 32.1738C132.137 32.1738 133.237 33.9969 133.735 34.7224C134.04 35.1671 134.16 35.696 133.868 36.3186L111.83 83.3221Z" fill="#E0E1E2"/>
<path d="M59.3366 33.7255L43.5188 34.0602C41.8563 34.0602 40.0355 35.0712 39.4506 36.3186L15.7686 82.1308C15.7686 82.1308 16.6841 83.6005 17.4665 84.8175C17.7771 85.2996 18.4667 85.5781 19.365 85.5781H107.762C108.629 85.5781 109.535 85.2996 110.291 84.8596L59.3366 33.7255Z" fill="#D0D0D0"/>
<path d="M110.1 80.5941C109.516 81.8415 107.694 82.8525 106.03 82.8525H17.6334C15.9709 82.8525 15.0973 81.8415 15.6822 80.5941L37.7199 33.5907C38.3039 32.3433 40.1257 31.3345 41.7882 31.3345H130.185C131.848 31.3345 132.722 32.3433 132.137 33.5907L110.1 80.5941Z" fill="#555D6E"/>
<path d="M35.6084 44.8076L40.8673 33.5903H61.0184L55.7595 44.8076H35.6084ZM58.1288 44.8076L63.3878 33.5903H83.5389L78.2811 44.8076H58.1288ZM80.6495 44.8076L85.9085 33.5903H106.06L100.801 44.8076H80.6495ZM103.17 44.8076L108.429 33.5903H128.581L123.321 44.8076H103.17ZM30.0152 56.7363L35.2742 45.5191H55.4262L50.1672 56.7363H30.0152ZM52.5357 56.7363L57.7946 45.5191H77.9467L72.6877 56.7363H52.5357ZM75.0561 56.7363L80.3151 45.5191H100.467L95.2082 56.7363H75.0561ZM97.5768 56.7363L102.836 45.5191H122.988L117.729 56.7363H97.5768ZM24.4218 68.665L29.6808 57.4478H49.8328L44.5739 68.665H24.4218ZM46.9434 68.665L52.2015 57.4478H72.3535L67.0946 68.665H46.9434ZM69.4639 68.665L74.7219 57.4478H94.874L89.615 68.665H69.4639ZM91.9834 68.665L97.2424 57.4478H117.394L112.135 68.665H91.9834ZM18.8296 80.5938L24.0886 69.3788H44.2397L38.9807 80.5938H18.8296ZM41.3501 80.5938L46.609 69.3788H66.7601L61.5021 80.5938H41.3501ZM63.8707 80.5938L69.1295 69.3788H89.2808L84.0219 80.5938H63.8707ZM86.3912 80.5938L91.6502 69.3788H111.801L106.543 80.5938H86.3912Z" fill="#789DB5"/>
<path d="M127.84 34.0025H108.783L103.909 44.396H122.966L127.84 34.0025ZM105.319 34.0025H86.2623L81.3888 44.396H100.446L105.319 34.0025ZM82.799 34.0025H63.7418L58.8681 44.396H77.9252L82.799 34.0025ZM60.2783 34.0025H41.2211L36.3476 44.396H55.4048L60.2783 34.0025ZM122.248 45.9312H103.19L98.3161 56.3247H117.373L122.248 45.9312ZM99.726 45.9312H80.67L75.7954 56.3247H94.8535L99.726 45.9312ZM77.2056 45.9312H58.1493L53.2759 56.3247H72.3321L77.2056 45.9312ZM54.686 45.9312H35.6279L30.7545 56.3247H49.8114L54.686 45.9312ZM116.654 57.86H97.5973L92.7236 68.2534H111.781L116.654 57.86ZM94.1338 57.86H75.0766L70.2032 68.2534H89.2603L94.1338 57.86ZM71.6133 57.86H52.5562L47.6827 68.2534H66.7396L71.6133 57.86ZM49.0926 57.86H30.0357L25.162 68.2534H44.2192L49.0926 57.86ZM111.061 69.7887H92.004L87.1305 80.1821H106.188L111.061 69.7887ZM88.5406 69.7887H69.4835L64.6098 80.1821H83.6669L88.5406 69.7887ZM66.02 69.7887H46.963L42.0893 80.1821H61.1465L66.02 69.7887ZM38.626 80.1821H19.5688L24.4423 69.7887H43.4995L38.626 80.1821Z" fill="url(#paint0_linear)"/>
<path d="M91.6596 80.5938H86.3906L88.7455 75.5714H89.2919L87.1303 80.1818H92.4C92.1533 80.3199 91.9064 80.458 91.6596 80.5938Z" fill="#51C8EE"/>
<path d="M84.021 80.5938H77.4512H84.021L86.332 75.6673L84.021 80.5938Z" fill="#4EC2E6"/>
<path d="M84.021 80.5938H77.4512L78.1918 80.1818H83.6665L85.5914 76.0769L86.332 75.6673L84.021 80.5938Z" fill="#51C8EE"/>
<path d="M54.0776 80.5938H43.333L44.0727 80.1809H54.8174L54.0776 80.5938Z" fill="#51C8EE"/>
<path d="M29.4476 80.5938H18.8296L19.3233 79.5406L20.0621 79.131L19.5693 80.1818H30.1882L29.4476 80.5938Z" fill="#51C8EE"/>
<path d="M27.54 62.0122L29.679 57.4485L27.54 62.0122Z" fill="#4EC2E6"/>
<path d="M27.54 62.0122L29.679 57.4485H35.7633L35.0226 57.8604H30.0344L28.2798 61.6026L27.54 62.0122Z" fill="#51C8EE"/>
<path d="M37.0475 56.7363H30.0132L32.4728 51.4893C32.7195 51.3536 32.9665 51.2155 33.2125 51.0797L30.7529 56.3244H37.7882L37.0475 56.7363Z" fill="#51C8EE"/>
<path d="M45.7002 45.9307H42.4937C42.7404 45.7923 42.9873 45.6562 43.2331 45.5178H45.8933L45.7002 45.9307Z" fill="#51C8EE"/>
<path d="M46.227 44.8086H44.5181L45.2587 44.3958H46.4201L46.227 44.8086Z" fill="#51C8EE"/>
<path d="M92.4002 80.1821H87.1305L89.292 75.5717L87.1305 80.1821L89.8415 75.5717H100.71C97.9397 77.1093 95.1695 78.6469 92.4002 80.1821ZM83.6669 80.1821H78.1922L85.5918 76.0772L83.6669 80.1821ZM54.818 80.1821H44.0734L52.3841 75.5717H63.1278L54.818 80.1821ZM30.1878 80.1821H19.5688L20.2594 79.0213L35.1653 70.7505C35.1697 70.7576 35.1744 70.7623 35.1788 70.7693C35.1788 70.7693 35.7718 71.7194 36.4962 72.8639C36.5535 72.9551 36.6128 73.0488 36.672 73.1401C36.9579 73.5918 37.2576 74.0645 37.5456 74.5115C37.8023 74.9117 38.2477 75.2112 38.8301 75.3891L30.1878 80.1821ZM28.2811 61.6022L30.0357 57.86H35.0239H30.0357L28.2811 61.6022ZM29.4536 60.9492L30.6852 58.8546L33.5056 58.7024L29.4536 60.9492ZM37.7897 56.3247H30.7545L33.2141 51.08L30.7545 56.3247L33.9946 50.647C36.457 49.2802 38.9191 47.9135 41.3825 46.5467L45.5008 46.3571L41.8953 54.0475L37.7897 56.3247ZM46.4199 44.396H45.2585L46.828 43.5254L46.4199 44.396Z" fill="url(#paint1_linear)"/>
<path d="M127.84 34.0025H108.783L103.909 44.396L109.465 34.9058L127.84 34.0025ZM105.319 34.0025H86.2623L81.3888 44.396L86.7459 34.9058L105.319 34.0025ZM82.799 34.0025H63.7418L58.8681 44.396L64.3549 34.9058L82.799 34.0025ZM60.2783 34.0025H41.2211L36.3476 44.396L41.9163 34.8614L60.2783 34.0025ZM122.248 45.9312H103.19L98.3161 56.3247L103.744 46.7176L122.248 45.9312ZM99.2734 46.0599L80.67 45.9312L75.7954 56.3247L81.1891 47.0452L99.2734 46.0599ZM77.2056 45.9312H58.1493L53.2759 56.3247L58.7972 46.7176L77.2056 45.9312ZM54.686 45.9312H35.6279L30.7545 56.3247L36.1956 46.7878L54.686 45.9312ZM116.654 57.86H97.5973L92.7236 68.2534L98.1876 58.8546L116.654 57.86ZM94.1338 57.86H75.0766L70.2032 68.2534L75.7954 59.0184L94.1338 57.86ZM71.6133 57.86H52.5562L47.6827 68.2534L53.2404 58.8546L71.6133 57.86ZM49.0926 57.86H30.0357L25.162 68.2534L30.6852 58.8546L49.0926 57.86ZM111.061 69.7887H92.004L87.1305 80.1821L92.6299 70.8278L111.061 69.7887ZM88.5406 69.7887H69.4835L64.6098 80.1821L70.0747 70.8278L88.5406 69.7887ZM66.02 69.7887H46.963L42.0893 80.1821L47.6827 70.8278L66.02 69.7887ZM25.1284 70.8278L19.5688 80.1821L24.4423 69.7887H43.4995L25.1284 70.8278Z" fill="white"/>
<path d="M38.2059 34.2128C38.7908 32.9654 40.6126 31.9544 42.2751 31.9544C42.2751 31.9544 131.299 31.3342 130.187 31.3342H41.7896C40.1271 31.3342 38.3053 32.3429 37.7213 33.5903L15.6836 80.5938L38.2059 34.2128Z" fill="#789DB5"/>
<path d="M191.483 106.439H185.86V64.0013C185.86 63.0558 185.098 62.2905 184.158 62.2905C183.216 62.2905 182.453 63.0558 182.453 64.0013V106.439H176.455C175.514 106.439 174.75 107.206 174.75 108.15C174.75 109.095 175.514 109.86 176.455 109.86H191.483C192.425 109.86 193.188 109.095 193.188 108.15C193.188 107.206 192.425 106.439 191.483 106.439Z" fill="#3D4758"/>
<path d="M222.796 83.3221C222.21 84.5695 220.389 85.5781 218.726 85.5781H130.33C129.432 85.5781 128.742 85.2996 128.432 84.8175C127.648 83.6005 126.733 82.1308 126.733 82.1308L150.416 36.3186C151 35.0712 152.822 34.0602 154.484 34.0602L243.103 32.1738C243.103 32.1738 244.201 33.9969 244.7 34.7224C245.006 35.1671 245.125 35.696 244.833 36.3186L222.796 83.3221Z" fill="#E0E1E2"/>
<path d="M170.302 33.7255L154.484 34.0602C152.822 34.0602 151 35.0712 150.416 36.3186L126.733 82.1308C126.733 82.1308 127.648 83.6005 128.432 84.8175C128.742 85.2996 129.432 85.5781 130.33 85.5781H218.726C219.594 85.5781 220.501 85.2996 221.256 84.8596L170.302 33.7255Z" fill="#D0D0D0"/>
<path d="M221.065 80.5941C220.48 81.8415 218.658 82.8525 216.995 82.8525H128.599C126.937 82.8525 126.063 81.8415 126.648 80.5941L148.685 33.5907C149.27 32.3433 151.091 31.3345 152.754 31.3345H241.151C242.813 31.3345 243.688 32.3433 243.103 33.5907L221.065 80.5941Z" fill="#555D6E"/>
<path d="M146.574 44.8076L151.832 33.5903H171.984L166.725 44.8076H146.574ZM169.094 44.8076L174.352 33.5903H194.504L189.245 44.8076H169.094ZM191.614 44.8076L196.873 33.5903H217.024L211.765 44.8076H191.614ZM214.135 44.8076L219.393 33.5903H239.544L234.288 44.8076H214.135ZM140.981 56.7363L146.239 45.5191H166.391L161.133 56.7363H140.981ZM163.501 56.7363L168.76 45.5191H188.911L183.653 56.7363H163.501ZM186.022 56.7363L191.281 45.5191H211.432L206.173 56.7363H186.022ZM208.542 56.7363L213.801 45.5191H233.952L228.693 56.7363H208.542ZM135.387 68.665L140.646 57.4478H160.798L155.539 68.665H135.387ZM157.909 68.665L163.167 57.4478H183.319L178.06 68.665H157.909ZM180.43 68.665L185.688 57.4478H205.84L200.581 68.665H180.43ZM202.95 68.665L208.209 57.4478H228.36L223.101 68.665H202.95ZM129.795 80.5938L135.053 69.3788H155.205L149.946 80.5938H129.795ZM152.315 80.5938L157.573 69.3788H177.725L172.466 80.5938H152.315ZM174.836 80.5938L180.094 69.3788H200.245L194.989 80.5938H174.836ZM197.356 80.5938L202.614 69.3788H222.768L217.509 80.5938H197.356Z" fill="#789DB5"/>
<path d="M238.806 34.0025H219.748L214.874 44.396H233.932L238.806 34.0025ZM216.285 34.0025H197.228L192.354 44.396H211.411L216.285 34.0025ZM193.765 34.0025H174.708L169.834 44.396H188.891L193.765 34.0025ZM171.245 34.0025H152.188L147.314 44.396H166.371L171.245 34.0025ZM233.214 45.9312H214.156L209.282 56.3247H228.34L233.214 45.9312ZM210.693 45.9312H191.636L186.762 56.3247H205.819L210.693 45.9312ZM188.173 45.9312H169.115L164.241 56.3247H183.299L188.173 45.9312ZM165.651 45.9312H146.594L141.721 56.3247H160.778L165.651 45.9312ZM227.621 57.86H208.564L203.69 68.2534H222.747L227.621 57.86ZM205.101 57.86H186.043L181.169 68.2534H200.227L205.101 57.86ZM182.58 57.86H163.522L158.648 68.2534H177.705L182.58 57.86ZM160.058 57.86H141.002L136.128 68.2534H155.185L160.058 57.86ZM222.027 69.7887H202.969L198.098 80.1821H217.153L222.027 69.7887ZM199.506 69.7887H180.449L175.576 80.1821H194.632L199.506 69.7887ZM176.986 69.7887H157.929L153.056 80.1821H172.113L176.986 69.7887ZM149.592 80.1821H130.535L135.409 69.7887H154.466L149.592 80.1821Z" fill="url(#paint2_linear)"/>
<path d="M202.626 80.5938H197.355L200.499 73.8887L201.238 73.4791L198.097 80.1818H203.365C203.118 80.3199 202.873 80.458 202.626 80.5938Z" fill="#51C8EE"/>
<path d="M194.988 80.5938H188.417L189.156 80.1818H194.631L196.558 76.0769L197.297 75.6673L194.988 80.5938Z" fill="#51C8EE"/>
<path d="M165.044 80.5938H154.298L155.039 80.1809H165.784L165.044 80.5938Z" fill="#51C8EE"/>
<path d="M140.413 80.5938H129.795L130.288 79.5406L131.028 79.131L130.535 80.1818H141.154L140.413 80.5938Z" fill="#51C8EE"/>
<path d="M175.077 75.0264L177.725 69.3791L175.077 75.0264Z" fill="#4EC2E6"/>
<path d="M174.337 75.438L176.986 69.7884H173.774L174.514 69.3789H177.726L175.078 75.0261L174.337 75.438Z" fill="#51C8EE"/>
<path d="M178.279 73.2495L180.093 69.3786L178.279 73.2495Z" fill="#4EC2E6"/>
<path d="M178.279 73.2495L180.093 69.3786H185.256L184.517 69.7881H180.448L179.018 72.8376L178.279 73.2495Z" fill="#51C8EE"/>
<path d="M222.741 69.4336L222.767 69.3796L222.741 69.4336Z" fill="#4EC2E6"/>
<path d="M222 69.8438L222.026 69.7898H207.891L208.63 69.3793H222.767L222.741 69.4333C222.494 69.5693 222.247 69.7077 222 69.8438Z" fill="#51C8EE"/>
<path d="M223.101 68.6655H209.916H223.101L227.737 58.7752L223.101 68.6655Z" fill="#4EC2E6"/>
<path d="M223.101 68.6655H209.916L210.655 68.2536H222.746L226.998 59.1871L227.737 58.7752L223.101 68.6655Z" fill="#51C8EE"/>
<path d="M186.542 68.6655H180.43L182.058 65.1924L182.797 64.7806L181.169 68.2536H187.282L186.542 68.6655Z" fill="#51C8EE"/>
<path d="M178.06 68.6655H175.798H178.06L178.855 66.9688L178.06 68.6655Z" fill="#4EC2E6"/>
<path d="M178.06 68.6655H175.798L176.537 68.2536H177.704L178.116 67.3783L178.855 66.9688L178.06 68.6655Z" fill="#51C8EE"/>
<path d="M205.515 58.1357L205.839 57.4461L205.515 58.1357Z" fill="#4EC2E6"/>
<path d="M204.775 58.5459L205.099 57.8602H195.27L196.009 57.4483H205.839L205.514 58.1363L204.775 58.5459ZM181.385 57.8602H175.837L176.029 57.4483H182.124L181.385 57.8602Z" fill="#51C8EE"/>
<path d="M206.173 56.7363H197.295C197.542 56.5982 197.789 56.4625 198.037 56.3244H205.819L208.556 50.4876C208.801 50.3519 209.048 50.2138 209.296 50.0781L206.173 56.7363Z" fill="#51C8EE"/>
<path d="M183.738 56.5542L186.257 51.1784L183.738 56.5542Z" fill="#4EC2E6"/>
<path d="M183.41 56.7363H176.365L176.557 56.3244H183.298L187.226 47.9483L187.965 47.5388L186.258 51.178L183.739 56.5538L183.41 56.7363Z" fill="#51C8EE"/>
<path d="M208.72 56.3594L212.498 48.3016L208.72 56.3594Z" fill="#4EC2E6"/>
<path d="M208.72 56.3594L212.498 48.3016L213.237 47.8897L209.459 55.9498L208.72 56.3594Z" fill="#51C8EE"/>
<path d="M190.589 46.9937L191.165 45.7626L190.589 46.9937Z" fill="#4EC2E6"/>
<path d="M186.941 54.7773L190.591 46.9934L191.167 45.7624L191.603 45.519H203.624L202.883 45.9309H191.635L187.68 54.3655L186.941 54.7773Z" fill="#51C8EE"/>
<path d="M227.514 45.9307H216.77L217.509 45.5178H228.255L227.514 45.9307Z" fill="#51C8EE"/>
<path d="M229.54 44.8086H218.794C219.042 44.6702 219.289 44.5342 219.534 44.3958H230.28L229.54 44.8086Z" fill="#51C8EE"/>
<path d="M204.908 44.8086H192.887L193.626 44.3958H205.648L204.908 44.8086Z" fill="#51C8EE"/>
<path d="M235.215 41.6577L238.804 34.0025H238.268C238.515 33.8644 238.76 33.7286 239.007 33.5906H239.544L235.955 41.2458L235.215 41.6577Z" fill="#51C8EE"/>
<path d="M214.176 39.6636L217.023 33.5904L214.176 39.6636Z" fill="#4EC2E6"/>
<path d="M213.437 40.0728L216.285 34.0019H212.36L213.099 33.59H217.024L214.177 39.6632L213.437 40.0728Z" fill="#51C8EE"/>
<path d="M217.378 37.8877L219.393 33.5909L217.378 37.8877Z" fill="#4EC2E6"/>
<path d="M217.377 37.8877L219.392 33.5909H225.121L224.38 34.0028H219.746L218.118 37.4758L217.377 37.8877ZM188.984 34.0028H187.021L187.214 33.5909H189.726C189.478 33.7289 189.231 33.8647 188.984 34.0028Z" fill="#51C8EE"/>
<path d="M203.366 80.1821H198.098L201.239 73.4794L198.098 80.1821L202.424 72.8218L206.29 70.6757L222.027 69.7887L222.001 69.8425C215.791 73.2898 209.578 76.7371 203.366 80.1821ZM194.632 80.1821H189.157L196.559 76.0772L194.632 80.1821ZM165.784 80.1821H155.04L163.349 75.5717C165.66 75.567 168.188 74.1651 169.005 72.4333L173.408 69.9923L176.986 69.7887L174.337 75.4382L165.784 80.1821ZM141.154 80.1821H130.535L131.226 79.0213L137.442 75.5717H149.464L141.154 80.1821ZM179.019 72.8382L180.449 69.7887H184.518H180.449L179.019 72.8382ZM180.272 72.1454L181.041 70.8278L182.825 70.7295L180.272 72.1454ZM222.747 68.2534H210.656L226.999 59.1869L222.747 68.2534ZM187.282 68.2534H181.169L182.797 64.7804L181.169 68.2534L183.513 64.3848L194.007 58.5597L205.101 57.86L204.777 58.5457L187.282 68.2534ZM177.705 68.2534H176.538L178.117 67.3781L177.705 68.2534ZM173.887 62.0188L175.663 58.2344L181.256 57.9325L173.887 62.0188ZM205.819 56.3247H198.037C201.542 54.3799 205.05 52.435 208.557 50.4879L205.819 56.3247ZM183.299 56.3247H176.557L178.115 53.0037L187.226 47.9486L183.299 56.3247ZM209.459 55.9502L213.237 47.8901L209.459 55.9502ZM209.511 55.9198L214.417 47.2371L215.406 46.6872L227.043 46.1933L209.511 55.9198ZM187.681 54.3658L191.636 45.9312H202.883L202.745 46.0084L191.636 45.9312L187.681 54.3658ZM188.005 54.188L192.156 47.0452L201.827 46.5187L188.005 54.188ZM230.28 44.396H219.534C225.763 40.9416 231.989 37.4873 238.216 34.0306L238.806 34.0025L235.217 41.6578L230.28 44.396ZM205.649 44.396H193.627L211.983 34.2108L216.285 34.0025L213.438 40.0733L205.649 44.396ZM218.121 37.4755L219.748 34.0025H224.382H219.748L218.121 37.4755ZM219.315 36.8133L220.432 34.9058L222.978 34.7818L219.315 36.8133ZM186.333 35.4745L186.864 34.3395L188.525 34.2599C187.792 34.6648 187.065 35.0697 186.333 35.4745Z" fill="url(#paint3_linear)"/>
<path d="M238.806 34.0025H219.748L214.874 44.396L220.432 34.9058L238.806 34.0025ZM216.285 34.0025H197.228L192.354 44.396L197.713 34.9058L216.285 34.0025ZM193.765 34.0025H174.708L169.834 44.396L175.32 34.9058L193.765 34.0025ZM171.245 34.0025H152.188L147.314 44.396L152.883 34.8614L171.245 34.0025ZM233.214 45.9312H214.156L209.282 56.3247L214.711 46.7176L233.214 45.9312ZM210.238 46.0599L191.636 45.9312L186.762 56.3247L192.156 47.0452L210.238 46.0599ZM188.173 45.9312H169.115L164.241 56.3247L169.763 46.7176L188.173 45.9312ZM165.651 45.9312H146.594L141.721 56.3247L147.162 46.7878L165.651 45.9312ZM227.621 57.86H208.564L203.69 68.2534L209.154 58.8546L227.621 57.86ZM205.101 57.86H186.043L181.169 68.2534L186.762 59.0184L205.101 57.86ZM182.58 57.86H163.522L158.648 68.2534L164.207 58.8546L182.58 57.86ZM160.058 57.86H141.002L136.128 68.2534L141.651 58.8546L160.058 57.86ZM222.027 69.7887H202.969L198.098 80.1821L203.597 70.8278L222.027 69.7887ZM199.506 69.7887H180.449L175.576 80.1821L181.041 70.8278L199.506 69.7887ZM176.986 69.7887H157.929L153.056 80.1821L158.649 70.8278L176.986 69.7887ZM136.094 70.8278L130.535 80.1821L135.409 69.7887H154.466L136.094 70.8278Z" fill="white"/>
<path d="M149.17 34.2128C149.755 32.9654 151.576 31.9544 153.239 31.9544C153.239 31.9544 242.263 31.3342 241.15 31.3342H152.753C151.091 31.3342 149.269 32.3429 148.684 33.5903L126.647 80.5938L149.17 34.2128Z" fill="#789DB5"/>
<path d="M125.387 104.634H117.553V45.5075C117.553 44.1923 116.49 43.1251 115.179 43.1251C113.868 43.1251 112.805 44.1923 112.805 45.5075V104.634H104.449C103.138 104.634 102.076 105.699 102.076 107.016C102.076 108.332 103.138 109.399 104.449 109.399H125.387C126.698 109.399 127.761 108.332 127.761 107.016C127.761 105.699 126.698 104.634 125.387 104.634Z" fill="#405360"/>
<path d="M169.007 72.4259C168.193 74.1624 165.655 75.5713 163.339 75.5713H40.1891C38.9382 75.5713 37.9772 75.1828 37.5455 74.5111C36.4541 72.8144 35.1787 70.7689 35.1787 70.7689L68.1716 6.9454C68.986 5.20654 71.5239 3.8 73.8404 3.8L197.297 1.1718C197.297 1.1718 198.829 3.70871 199.524 4.72208C199.949 5.34227 200.117 6.07714 199.708 6.9454L169.007 72.4259Z" fill="#E8E9EA"/>
<path d="M95.8765 3.32958L73.8404 3.8C71.5239 3.8 68.986 5.20653 68.1716 6.9454L35.1787 70.7689C35.1787 70.7689 36.4541 72.8144 37.5455 74.5088C37.9772 75.1828 38.9382 75.5713 40.1891 75.5713H163.339C164.547 75.5713 165.81 75.1828 166.862 74.5696L95.8765 3.32958Z" fill="#D8D8D8"/>
<path d="M166.597 68.6261C165.783 70.3626 163.245 71.7715 160.928 71.7715H37.7797C35.463 71.7715 34.245 70.3626 35.0596 68.6261L65.7613 3.1456C66.5756 1.40672 69.1136 0.000190735 71.4302 0.000190735H194.58C196.896 0.000190735 198.113 1.40672 197.3 3.1456L166.597 68.6261Z" fill="#596976"/>
<path d="M62.8185 18.7696L70.1444 3.1455H98.2191L90.8923 18.7696H62.8185ZM94.1926 18.7696L101.518 3.1455H129.593L122.267 18.7696H94.1926ZM125.567 18.7696L132.893 3.1455H160.967L153.641 18.7696H125.567ZM156.942 18.7696L164.267 3.1455H192.341L185.016 18.7696H156.942ZM55.0272 35.3884L62.353 19.7643H90.4265L83.1007 35.3884H55.0272ZM86.4012 35.3884L93.7271 19.7643H121.802L114.475 35.3884H86.4012ZM117.775 35.3884L125.101 19.7643H153.176L145.849 35.3884H117.775ZM149.149 35.3884L156.476 19.7643H184.55L177.224 35.3884H149.149ZM47.2349 52.0072L54.5617 36.3831H82.6352L75.3094 52.0072H47.2349ZM78.609 52.0072L85.9358 36.3831H114.009L106.683 52.0072H78.609ZM109.984 52.0072L117.31 36.3831H145.384L138.058 52.0072H109.984ZM141.358 52.0072L148.684 36.3831H176.759L169.432 52.0072H141.358ZM39.4434 68.626L46.7692 53.0018H74.843L67.5171 68.626H39.4434ZM70.8176 68.626L78.1435 53.0018H106.218L98.8911 68.626H70.8176ZM102.192 68.626L109.518 53.0018H137.592L130.266 68.626H102.192ZM133.567 68.626L140.893 53.0018H168.966L161.64 68.626H133.567Z" fill="#78B2BD"/>
<path d="M191.31 3.71627H164.762L157.972 18.1983H184.522L191.31 3.71627ZM159.937 3.71627H133.387L126.598 18.1983H153.147L159.937 3.71627ZM128.563 3.71627H102.013L95.2238 18.1983H121.773L128.563 3.71627ZM97.1878 3.71627H70.639L63.8488 18.1983H90.3983L97.1878 3.71627ZM183.519 20.335H156.97L150.18 34.8171H176.729L183.519 20.335ZM152.145 20.335H125.596L118.806 34.8171H145.355L152.145 20.335ZM120.771 20.335H94.2217L87.4315 34.8171H113.981L120.771 20.335ZM89.3965 20.335H62.8476L56.0575 34.8171H82.606L89.3965 20.335ZM175.727 36.9538H149.178L142.389 51.4359H168.938L175.727 36.9538ZM144.353 36.9538H117.804L111.014 51.4359H137.563L144.353 36.9538ZM112.979 36.9538H86.4303L79.6402 51.4359H106.189L112.979 36.9538ZM81.604 36.9538H55.0554L48.2659 51.4359H74.8147L81.604 36.9538ZM167.936 53.5726H141.387L134.597 68.0547H161.145L167.936 53.5726ZM136.562 53.5726H110.012L103.223 68.0547H129.771L136.562 53.5726ZM105.187 53.5726H78.6381L71.8479 68.0547H98.3974L105.187 53.5726ZM67.0224 68.0547H40.4736L47.264 53.5726H73.8126L67.0224 68.0547Z" fill="url(#paint4_linear)"/>
<path d="M140.907 68.626H133.566L137.945 59.2856L138.976 58.7146L134.597 68.0549H141.938C141.594 68.2445 141.251 68.4341 140.907 68.626Z" fill="#48F4F6"/>
<path d="M130.267 68.626H121.113L122.144 68.0549H129.772L132.454 62.3328L133.485 61.7617L130.267 68.626Z" fill="#48F4F6"/>
<path d="M88.5509 68.626H73.582L74.6133 68.0537H89.5819L88.5509 68.626Z" fill="#48F4F6"/>
<path d="M54.2364 68.626H39.4434L40.1313 67.1609L41.1616 66.5875L40.4737 68.0549H55.2676L54.2364 68.626Z" fill="#48F4F6"/>
<path d="M101.497 61.4424L105.186 53.5718H100.711L101.742 53.0007H106.218L102.527 60.869L101.497 61.4424Z" fill="#48F4F6"/>
<path d="M72.188 58.6655L74.8432 53.0019L72.188 58.6655Z" fill="#44EDEE"/>
<path d="M71.156 59.2358L73.8122 53.5722H64.6182L65.6482 53.0012H74.8425L72.1873 58.6648L71.156 59.2358ZM106.988 58.3957L109.518 53.0012H116.711L115.68 53.5722H110.012L108.019 57.8223L106.988 58.3957ZM76.648 56.1887L78.143 53.0012H82.3962L81.3659 53.5722H78.6377L77.6783 55.6177L76.648 56.1887Z" fill="#48F4F6"/>
<path d="M168.931 53.0767L168.967 53.0016L168.931 53.0767Z" fill="#44EDEE"/>
<path d="M167.901 53.647L167.937 53.5719H148.244L149.274 52.9996H168.967L168.931 53.0747C168.588 53.2646 168.245 53.457 167.901 53.647Z" fill="#48F4F6"/>
<path d="M169.432 52.0063H151.063H169.432L175.891 38.2311L169.432 52.0063Z" fill="#44EDEE"/>
<path d="M169.432 52.0063H151.063L152.094 51.4353H168.938L174.86 38.8021L175.891 38.2311L169.432 52.0063Z" fill="#48F4F6"/>
<path d="M118.5 52.0063H109.983L112.252 47.1665L113.283 46.5954L111.014 51.4353H119.531L118.5 52.0063Z" fill="#48F4F6"/>
<path d="M106.684 52.0063H103.532L104.563 51.4353H106.189L106.761 50.216L107.793 49.6426L106.684 52.0063Z" fill="#48F4F6"/>
<path d="M84.1867 52.0063H78.6089L82.5377 43.6279L83.568 43.0569L79.6401 51.4353H85.2169L84.1867 52.0063Z" fill="#48F4F6"/>
<path d="M75.3095 52.0063H67.438H75.3095L78.077 46.104L75.3095 52.0063Z" fill="#44EDEE"/>
<path d="M75.3095 52.0063H67.438L68.4692 51.4353H74.8149L77.046 46.675L78.077 46.104L75.3095 52.0063Z" fill="#48F4F6"/>
<path d="M51.5806 42.7397L54.5614 36.3834L51.5806 42.7374V42.7397Z" fill="#44EDEE"/>
<path d="M51.5806 42.7374L54.5614 36.3834H63.0358L62.0055 36.9544H55.0551L52.6109 42.1664L51.5806 42.7397" fill="#48F4F6"/>
<path d="M143.904 37.9102L144.353 36.9529H130.662L131.692 36.3819H145.384L144.935 37.3391L143.904 37.9102ZM111.317 36.9529H94.5688L95.5991 36.3819H112.347L111.317 36.9529Z" fill="#48F4F6"/>
<path d="M145.849 35.3877H133.481H145.849L150.197 26.1129L145.849 35.3877Z" fill="#44EDEE"/>
<path d="M145.849 35.3877H133.481C133.825 35.1981 134.168 35.0062 134.512 34.8167H145.355L149.167 26.684C149.511 26.4944 149.854 26.3025 150.197 26.1129L145.849 35.3877Z" fill="#48F4F6"/>
<path d="M117.546 28.835L120.482 22.5745L117.546 28.835Z" fill="#44EDEE"/>
<path d="M114.136 35.3877H97.3887L98.419 34.8167H113.981L119.452 23.1453L120.483 22.5743L117.547 28.8347L114.594 35.1349L114.136 35.3877Z" fill="#48F4F6"/>
<path d="M64.8268 35.3877H55.0278L58.4538 28.0788C58.7973 27.8892 59.1406 27.6997 59.4851 27.5078L56.0581 34.8167H65.8571L64.8268 35.3877Z" fill="#48F4F6"/>
<path d="M149.395 34.8643L151.856 29.6172L154.658 23.6376L155.69 23.0665L150.426 34.2932L149.395 34.8643Z" fill="#48F4F6"/>
<path d="M123.978 22.1606L124.943 20.0988L123.978 22.1606Z" fill="#44EDEE"/>
<path d="M119.055 32.6587L123.978 22.1599L124.943 20.098L125.549 19.7634H142.297L141.266 20.3344H125.595L120.085 32.0876L119.055 32.6587Z" fill="#48F4F6"/>
<path d="M89.5264 21.6826L90.4263 19.7635L89.5264 21.6826Z" fill="#44EDEE"/>
<path d="M88.495 22.2539L89.3961 20.3348H72.4121C72.7547 20.1429 73.0991 19.9534 73.4424 19.7638H90.4261L89.5262 21.6829L88.495 22.2539ZM175.581 20.3348H160.611L161.643 19.7638H176.611L175.581 20.3348Z" fill="#48F4F6"/>
<path d="M178.4 18.7686H163.432C163.776 18.5786 164.119 18.3862 164.463 18.1962H179.433L178.4 18.7686Z" fill="#48F4F6"/>
<path d="M144.087 18.7686H127.338L128.37 18.1962H145.118L144.087 18.7686Z" fill="#48F4F6"/>
<path d="M94.7768 18.7686H94.1929L100.86 4.55097L101.891 3.97759L95.2241 18.1975H95.808C95.4636 18.3871 95.1201 18.579 94.7768 18.7686Z" fill="#48F4F6"/>
<path d="M90.8927 18.7686H75.2324H90.8927L96.3994 7.02473H96.4003L90.8927 18.7686Z" fill="#44EDEE"/>
<path d="M90.8927 18.7686H75.2324L76.2636 18.1975H90.3988L95.3691 7.5981L96.4003 7.02473L90.8927 18.7686Z" fill="#48F4F6"/>
<path d="M187.342 13.8101L192.342 3.1451L187.342 13.8101Z" fill="#44EDEE"/>
<path d="M186.311 14.3813L191.31 3.71638H190.562C190.907 3.52682 191.25 3.33492 191.593 3.14536H192.341L187.341 13.8103L186.311 14.3813Z" fill="#48F4F6"/>
<path d="M155.97 12.1768L159.937 3.71638H154.47L155.5 3.14535H160.967L157.001 11.6057L155.97 12.1768Z" fill="#48F4F6"/>
<path d="M161.462 9.12939L164.268 3.14512L161.462 9.12939Z" fill="#44EDEE"/>
<path d="M161.462 9.12939L164.268 3.14512H172.248L171.218 3.71615H164.762L162.492 8.55831L161.462 9.12939ZM121.907 3.71615H102.362L103.394 3.14512H122.938C122.594 3.33469 122.251 3.52658 121.907 3.71615Z" fill="#48F4F6"/>
<path d="M141.938 68.0547H134.597L138.976 58.7143L148.243 53.5726H167.936L167.9 53.6475C159.246 58.4499 150.592 63.2523 141.938 68.0547ZM129.771 68.0547H122.143L132.453 62.3325L129.771 68.0547ZM89.5812 68.0547H74.6125L100.711 53.5726H105.187L101.497 61.4432L89.5812 68.0547ZM55.2676 68.0547H40.4736L41.1616 66.5873L64.6186 53.5726H73.8126L71.1565 59.2362L55.2676 68.0547ZM108.019 57.8227L110.012 53.5726H115.681L108.019 57.8227ZM77.6787 55.6181L78.6381 53.5726H81.3663L77.6787 55.6181ZM168.938 51.4359H152.093L174.86 38.8027L168.938 51.4359ZM119.531 51.4359H111.014L113.283 46.596L130.662 36.9538H144.353L143.904 37.9111L119.531 51.4359ZM106.189 51.4359H104.562L106.761 50.2165L106.189 51.4359ZM85.217 51.4359H79.6402L83.568 43.0575L94.5687 36.9538H111.317L85.217 51.4359ZM74.8147 51.4359H68.469L77.0458 46.6756L74.8147 51.4359ZM52.6112 42.1658L55.0554 36.9538H62.0058L52.6112 42.1658ZM145.355 34.8171H134.512C139.398 32.107 144.283 29.3969 149.167 26.6844L145.355 34.8171ZM113.981 34.8171H98.4193L119.452 23.1458L113.981 34.8171ZM65.8564 34.8171H56.0575L59.4844 27.5082C63.793 25.1164 68.1029 22.7269 72.4125 20.335H89.3965L88.4954 22.2541L65.8564 34.8171ZM150.427 34.2929L155.69 23.0662L160.612 20.335H175.581L150.427 34.2929ZM120.085 32.0882L125.596 20.335H141.267L120.085 32.0882ZM179.433 18.1983H164.463C173.163 13.3702 181.863 8.54206 190.562 3.71627H191.31L186.31 14.3812L179.433 18.1983ZM145.118 18.1983H128.37L154.469 3.71627H159.937L155.97 12.1766L145.118 18.1983ZM95.8077 18.1983H95.2238L101.891 3.97842L102.362 3.71627H121.906C113.207 8.54206 104.507 13.3702 95.8077 18.1983ZM90.3983 18.1983H76.2631L95.3686 7.59892L90.3983 18.1983ZM162.492 8.55843L164.762 3.71627H171.217L162.492 8.55843Z" fill="url(#paint5_linear)"/>
<path d="M191.31 3.71627H164.762L157.972 18.1983L165.711 4.97775L191.31 3.71627ZM159.937 3.71627H133.387L126.598 18.1983L134.061 4.97775L159.937 3.71627ZM128.563 3.71627H102.013L95.2238 18.1983L102.867 4.97775L128.563 3.71627ZM97.1878 3.71627H70.639L63.8488 18.1983L71.6072 4.91221L97.1878 3.71627ZM183.519 20.335H156.97L150.18 34.8171L157.742 21.4303L183.519 20.335ZM151.513 20.5153L125.596 20.335L118.806 34.8171L126.32 21.8867L151.513 20.5153ZM120.771 20.335H94.2217L87.4315 34.8171L95.1244 21.4303L120.771 20.335ZM89.3965 20.335H62.8476L56.0575 34.8171L63.6373 21.5286L89.3965 20.335ZM175.727 36.9538H149.178L142.388 51.4359L150 38.3393L175.727 36.9538ZM144.353 36.9538H117.804L111.014 51.4359L118.806 38.5687L144.353 36.9538ZM112.979 36.9538H86.4303L79.6402 51.4359L87.3832 38.3393L112.979 36.9538ZM81.6049 36.9538H55.0554L48.2659 51.4359L55.96 38.3393L81.6049 36.9538ZM167.936 53.5726H141.387L134.597 68.0547L142.259 55.0213L167.936 53.5726ZM136.562 53.5726H110.012L103.223 68.0547L110.836 55.0213L136.562 53.5726ZM105.187 53.5726H78.6381L71.8479 68.0547L79.6409 55.0213L105.187 53.5726ZM48.2186 55.0213L40.4736 68.0547L47.264 53.5726H73.8126L48.2186 55.0213Z" fill="white"/>
<path d="M66.4376 4.01141C67.2529 2.27487 69.7909 0.866005 72.1066 0.866005C72.1066 0.866005 196.129 8.39233e-05 194.581 8.39233e-05H71.4308C69.1141 8.39233e-05 66.5762 1.40896 65.7618 3.14549L35.061 68.626L66.4376 4.01141Z" fill="#78B2BD"/>
<path d="M234.327 115C233.877 112.348 231.594 110.328 228.823 110.328H5.5029C2.73454 110.328 0.450782 112.348 0 115H234.327Z" fill="#79442B"/>
<path d="M226.807 109.825C226.807 110.307 226.42 110.696 225.939 110.696H6.8082C6.3299 110.696 5.94092 110.307 5.94092 109.825C5.94092 109.345 6.3299 108.955 6.8082 108.955H225.939C226.42 108.955 226.807 109.345 226.807 109.825Z" fill="#709114"/>
<defs>
<linearGradient id="paint0_linear" x1="35.6384" y1="19.2888" x2="100.213" y2="82.9639" gradientUnits="userSpaceOnUse">
<stop stop-color="#11BEF2"/>
<stop offset="1" stop-color="#0F7DD6"/>
</linearGradient>
<linearGradient id="paint1_linear" x1="35.6384" y1="19.2888" x2="100.213" y2="82.9638" gradientUnits="userSpaceOnUse">
<stop stop-color="#47CBF4"/>
<stop offset="1" stop-color="#47C5F1"/>
</linearGradient>
<linearGradient id="paint2_linear" x1="146.605" y1="19.2888" x2="211.179" y2="82.9639" gradientUnits="userSpaceOnUse">
<stop stop-color="#11BEF2"/>
<stop offset="1" stop-color="#0F7DD6"/>
</linearGradient>
<linearGradient id="paint3_linear" x1="146.605" y1="19.2888" x2="211.179" y2="82.9639" gradientUnits="userSpaceOnUse">
<stop stop-color="#47CBF4"/>
<stop offset="1" stop-color="#47C5F1"/>
</linearGradient>
<linearGradient id="paint4_linear" x1="62.8609" y1="-16.7805" x2="152.822" y2="71.9279" gradientUnits="userSpaceOnUse">
<stop stop-color="#00FAFA"/>
<stop offset="1" stop-color="#00AEDE"/>
</linearGradient>
<linearGradient id="paint5_linear" x1="62.8609" y1="-16.7805" x2="152.822" y2="71.9279" gradientUnits="userSpaceOnUse">
<stop stop-color="#3BFCFC"/>
<stop offset="1" stop-color="#3BF4F9"/>
</linearGradient>
</defs>
</svg>
